NotoSansMyanmarUI-Bold.ufo
<glyph name="question" format="2">
  <advance width="506"/>
  <unicode hex="003F"/>
  <outline>
    <contour>
      <point x="144" y="421" type="line"/>
      <point x="295" y="421" type="line"/>
      <point x="298" y="426" type="line" smooth="yes"/>
      <point x="304" y="435"/>
      <point x="313" y="441"/>
      <point x="372" y="475" type="curve" smooth="yes"/>
      <point x="455" y="523"/>
      <point x="488" y="571"/>
      <point x="488" y="640" type="curve" smooth="yes"/>
      <point x="488" y="737"/>
      <point x="403" y="801"/>
      <point x="254" y="801" type="curve" smooth="yes"/>
      <point x="156" y="801"/>
      <point x="73" y="776"/>
      <point x="0" y="739" type="curve"/>
      <point x="68" y="618" type="line"/>
      <point x="133" y="649"/>
      <point x="192" y="665"/>
      <point x="240" y="665" type="curve" smooth="yes"/>
      <point x="280" y="665"/>
      <point x="307" y="649"/>
      <point x="307" y="626" type="curve" smooth="yes"/>
      <point x="307" y="602"/>
      <point x="299" y="582"/>
      <point x="233" y="544" type="curve" smooth="yes"/>
      <point x="163" y="504"/>
      <point x="144" y="463"/>
      <point x="144" y="425" type="curve" smooth="yes"/>
    </contour>
    <contour>
      <point x="223" y="140" type="curve" smooth="yes"/>
      <point x="307" y="140"/>
      <point x="366" y="181"/>
      <point x="366" y="256" type="curve" smooth="yes"/>
      <point x="366" y="318"/>
      <point x="309" y="371"/>
      <point x="223" y="371" type="curve" smooth="yes"/>
      <point x="140" y="371"/>
      <point x="84" y="327"/>
      <point x="84" y="255" type="curve" smooth="yes"/>
      <point x="84" y="182"/>
      <point x="140" y="140"/>
    </contour>
    <contour>
      <point x="226" y="217" type="curve" smooth="yes"/>
      <point x="199" y="217"/>
      <point x="187" y="233"/>
      <point x="187" y="254" type="curve" smooth="yes"/>
      <point x="187" y="279"/>
      <point x="204" y="293"/>
      <point x="226" y="293" type="curve" smooth="yes"/>
      <point x="248" y="293"/>
      <point x="264" y="280"/>
      <point x="264" y="255" type="curve" smooth="yes"/>
      <point x="264" y="234"/>
      <point x="248" y="217"/>
    </contour>
  </outline>
</glyph>
<glyph name="ka" format="2">
  <advance width="1121"/>
  <unicode hex="1000"/>
  <note>
ka
</note>
  <outline>
    <contour>
      <point x="203" y="140" type="curve"/>
      <point x="295" y="282" type="line"/>
      <point x="248" y="329"/>
      <point x="241" y="364"/>
      <point x="241" y="405" type="curve" smooth="yes"/>
      <point x="241" y="471"/>
      <point x="287" y="520"/>
      <point x="355" y="520" type="curve" smooth="yes"/>
      <point x="424" y="520"/>
      <point x="473" y="475"/>
      <point x="473" y="405" type="curve" smooth="yes"/>
      <point x="473" y="368"/>
      <point x="460" y="321"/>
      <point x="398" y="282" type="curve"/>
      <point x="489" y="140" type="line"/>
      <point x="594" y="190"/>
      <point x="641" y="282"/>
      <point x="641" y="404" type="curve" smooth="yes"/>
      <point x="641" y="566"/>
      <point x="543" y="656"/>
      <point x="348" y="656" type="curve" smooth="yes"/>
      <point x="163" y="656"/>
      <point x="48" y="553"/>
      <point x="48" y="404" type="curve" smooth="yes"/>
      <point x="48" y="267"/>
      <point x="112" y="185"/>
    </contour>
    <contour>
      <point x="804" y="139" type="curve" smooth="yes"/>
      <point x="951" y="139"/>
      <point x="1072" y="252"/>
      <point x="1072" y="397" type="curve" smooth="yes"/>
      <point x="1072" y="552"/>
      <point x="941" y="656"/>
      <point x="763" y="656" type="curve" smooth="yes"/>
      <point x="682" y="656"/>
      <point x="603" y="635"/>
      <point x="553" y="585" type="curve"/>
      <point x="635" y="449" type="line"/>
      <point x="639" y="477"/>
      <point x="678" y="520"/>
      <point x="750" y="520" type="curve" smooth="yes"/>
      <point x="823" y="520"/>
      <point x="879" y="476"/>
      <point x="879" y="399" type="curve" smooth="yes"/>
      <point x="879" y="333"/>
      <point x="845" y="287"/>
      <point x="789" y="287" type="curve" smooth="yes"/>
      <point x="766" y="287"/>
      <point x="744" y="292"/>
      <point x="723" y="299" type="curve"/>
      <point x="661" y="172" type="line"/>
      <point x="694" y="149"/>
      <point x="765" y="139"/>
    </contour>
  </outline>
</glyph>
<glyph name="kha" format="2">
  <advance width="735"/>
  <unicode hex="1001"/>
  <note>
kha
</note>
  <outline>
    <contour>
      <point x="355" y="140" type="curve" smooth="yes"/>
      <point x="541" y="140"/>
      <point x="687" y="221"/>
      <point x="687" y="397" type="curve" smooth="yes"/>
      <point x="687" y="570"/>
      <point x="563" y="656"/>
      <point x="328" y="656" type="curve" smooth="yes"/>
      <point x="238" y="656"/>
      <point x="171" y="648"/>
      <point x="80" y="617" type="curve"/>
      <point x="127" y="498" type="line"/>
      <point x="213" y="525"/>
      <point x="273" y="532"/>
      <point x="327" y="532" type="curve" smooth="yes"/>
      <point x="437" y="532"/>
      <point x="494" y="493"/>
      <point x="494" y="397" type="curve" smooth="yes"/>
      <point x="494" y="316"/>
      <point x="458" y="267"/>
      <point x="350" y="267" type="curve" smooth="yes"/>
      <point x="297" y="267"/>
      <point x="235" y="287"/>
      <point x="223" y="299" type="curve"/>
      <point x="280" y="319"/>
      <point x="335" y="325"/>
      <point x="369" y="325" type="curve" smooth="yes"/>
      <point x="403" y="325"/>
      <point x="452" y="321"/>
      <point x="498" y="308" type="curve"/>
      <point x="517" y="415" type="line"/>
      <point x="455" y="429"/>
      <point x="403" y="430"/>
      <point x="355" y="430" type="curve" smooth="yes"/>
      <point x="242" y="430"/>
      <point x="162" y="412"/>
      <point x="47" y="366" type="curve"/>
      <point x="61" y="226"/>
      <point x="177" y="140"/>
    </contour>
  </outline>
</glyph>
<glyph name="ga" format="2">
  <advance width="723"/>
  <unicode hex="1002"/>
  <note>
ga
</note>
  <outline>
    <contour>
      <point x="205" y="140" type="curve"/>
      <point x="297" y="282" type="line"/>
      <point x="248" y="329"/>
      <point x="241" y="364"/>
      <point x="241" y="405" type="curve" smooth="yes"/>
      <point x="241" y="469"/>
      <point x="288" y="519"/>
      <point x="359" y="519" type="curve" smooth="yes"/>
      <point x="434" y="519"/>
      <point x="482" y="473"/>
      <point x="482" y="405" type="curve" smooth="yes"/>
      <point x="482" y="368"/>
      <point x="475" y="329"/>
      <point x="426" y="282" type="curve"/>
      <point x="517" y="140" type="line"/>
      <point x="610" y="184"/>
      <point x="675" y="259"/>
      <point x="675" y="398" type="curve" smooth="yes"/>
      <point x="675" y="558"/>
      <point x="556" y="656"/>
      <point x="361" y="656" type="curve" smooth="yes"/>
      <point x="166" y="656"/>
      <point x="48" y="557"/>
      <point x="48" y="404" type="curve" smooth="yes"/>
      <point x="48" y="267"/>
      <point x="112" y="185"/>
    </contour>
  </outline>
</glyph>
<glyph name="gha" format="2">
  <advance width="1122"/>
  <unicode hex="1003"/>
  <note>
gha
</note>
  <outline>
    <contour>
      <point x="329" y="140" type="curve" smooth="yes"/>
      <point x="574" y="140"/>
      <point x="643" y="262"/>
      <point x="643" y="390" type="curve" smooth="yes"/>
      <point x="643" y="547"/>
      <point x="574" y="616"/>
      <point x="490" y="656" type="curve"/>
      <point x="401" y="514" type="line"/>
      <point x="463" y="474"/>
      <point x="475" y="426"/>
      <point x="475" y="389" type="curve" smooth="yes"/>
      <point x="475" y="321"/>
      <point x="426" y="276"/>
      <point x="329" y="276" type="curve" smooth="yes"/>
      <point x="277" y="276"/>
      <point x="245" y="298"/>
      <point x="245" y="336" type="curve" smooth="yes"/>
      <point x="245" y="358"/>
      <point x="254" y="374"/>
      <point x="289" y="398" type="curve" smooth="yes"/>
      <point x="332" y="428"/>
      <point x="370" y="472"/>
      <point x="370" y="529" type="curve" smooth="yes"/>
      <point x="370" y="611"/>
      <point x="313" y="657"/>
      <point x="207" y="657" type="curve" smooth="yes"/>
      <point x="139" y="657"/>
      <point x="63" y="625"/>
      <point x="28" y="567" type="curve"/>
      <point x="107" y="494" type="line"/>
      <point x="123" y="514"/>
      <point x="154" y="537"/>
      <point x="181" y="537" type="curve" smooth="yes"/>
      <point x="197" y="537"/>
      <point x="202" y="529"/>
      <point x="202" y="522" type="curve" smooth="yes"/>
      <point x="202" y="502"/>
      <point x="174" y="487"/>
      <point x="128" y="450" type="curve" smooth="yes"/>
      <point x="80" y="411"/>
      <point x="53" y="374"/>
      <point x="53" y="323" type="curve" smooth="yes"/>
      <point x="53" y="210"/>
      <point x="169" y="140"/>
    </contour>
    <contour>
      <point x="765" y="140" type="curve" smooth="yes"/>
      <point x="951" y="140"/>
      <point x="1073" y="229"/>
      <point x="1073" y="397" type="curve" smooth="yes"/>
      <point x="1073" y="531"/>
      <point x="987" y="656"/>
      <point x="799" y="656" type="curve" smooth="yes"/>
      <point x="735" y="656"/>
      <point x="690" y="641"/>
      <point x="663" y="623" type="curve"/>
      <point x="725" y="496" type="line"/>
      <point x="748" y="506"/>
      <point x="765" y="509"/>
      <point x="790" y="509" type="curve" smooth="yes"/>
      <point x="844" y="509"/>
      <point x="880" y="468"/>
      <point x="880" y="395" type="curve" smooth="yes"/>
      <point x="880" y="331"/>
      <point x="834" y="275"/>
      <point x="767" y="275" type="curve" smooth="yes"/>
      <point x="683" y="275"/>
      <point x="644" y="316"/>
      <point x="634" y="346" type="curve"/>
      <point x="557" y="205" type="line"/>
      <point x="586" y="183"/>
      <point x="642" y="140"/>
    </contour>
  </outline>
</glyph>
<glyph name="nga" format="2">
  <advance width="689"/>
  <unicode hex="1004"/>
  <note>
nga
</note>
  <outline>
    <contour>
      <point x="370" y="142" type="curve" smooth="yes"/>
      <point x="493" y="142"/>
      <point x="594" y="190"/>
      <point x="644" y="254" type="curve"/>
      <point x="500" y="324" type="line"/>
      <point x="464" y="295"/>
      <point x="428" y="278"/>
      <point x="375" y="278" type="curve" smooth="yes"/>
      <point x="296" y="278"/>
      <point x="241" y="319"/>
      <point x="241" y="397" type="curve" smooth="yes"/>
      <point x="241" y="469"/>
      <point x="293" y="519"/>
      <point x="376" y="519" type="curve" smooth="yes"/>
      <point x="421" y="519"/>
      <point x="455" y="511"/>
      <point x="495" y="481" type="curve"/>
      <point x="621" y="556" type="line"/>
      <point x="576" y="618"/>
      <point x="475" y="656"/>
      <point x="370" y="656" type="curve" smooth="yes"/>
      <point x="183" y="656"/>
      <point x="48" y="554"/>
      <point x="48" y="397" type="curve" smooth="yes"/>
      <point x="48" y="244"/>
      <point x="186" y="142"/>
    </contour>
  </outline>
</glyph>
<glyph name="ca" format="2">
  <advance width="735"/>
  <unicode hex="1005"/>
  <note>
ca
</note>
  <outline>
    <contour>
      <point x="370" y="140" type="curve" smooth="yes"/>
      <point x="556" y="140"/>
      <point x="686" y="244"/>
      <point x="686" y="397" type="curve" smooth="yes"/>
      <point x="686" y="544"/>
      <point x="561" y="656"/>
      <point x="368" y="656" type="curve" smooth="yes"/>
      <point x="183" y="656"/>
      <point x="48" y="555"/>
      <point x="48" y="397" type="curve" smooth="yes"/>
      <point x="48" y="241"/>
      <point x="183" y="140"/>
    </contour>
    <contour>
      <point x="348" y="253" type="line"/>
      <point x="380" y="311"/>
      <point x="390" y="352"/>
      <point x="390" y="398" type="curve" smooth="yes"/>
      <point x="390" y="452"/>
      <point x="372" y="496"/>
      <point x="354" y="539" type="curve"/>
      <point x="255" y="508" type="line"/>
      <point x="270" y="483"/>
      <point x="280" y="453"/>
      <point x="280" y="404" type="curve" smooth="yes"/>
      <point x="280" y="350"/>
      <point x="271" y="327"/>
      <point x="250" y="286" type="curve"/>
    </contour>
    <contour>
      <point x="336" y="277" type="curve" smooth="yes"/>
      <point x="238" y="277"/>
      <point x="190" y="337"/>
      <point x="190" y="399" type="curve" smooth="yes"/>
      <point x="190" y="460"/>
      <point x="240" y="519"/>
      <point x="348" y="519" type="curve" smooth="yes"/>
      <point x="436" y="519"/>
      <point x="494" y="473"/>
      <point x="494" y="399" type="curve" smooth="yes"/>
      <point x="494" y="316"/>
      <point x="435" y="277"/>
    </contour>
  </outline>
</glyph>
<glyph name="cha" format="2">
  <advance width="1122"/>
  <unicode hex="1006"/>
  <note>
cha
</note>
  <outline>
    <contour>
      <point x="346" y="140" type="curve" smooth="yes"/>
      <point x="511" y="140"/>
      <point x="635" y="222"/>
      <point x="635" y="401" type="curve" smooth="yes"/>
      <point x="635" y="571"/>
      <point x="523" y="656"/>
      <point x="312" y="656" type="curve" smooth="yes"/>
      <point x="229" y="656"/>
      <point x="165" y="647"/>
      <point x="80" y="617" type="curve"/>
      <point x="127" y="498" type="line"/>
      <point x="206" y="525"/>
      <point x="261" y="532"/>
      <point x="312" y="532" type="curve" smooth="yes"/>
      <point x="405" y="532"/>
      <point x="453" y="494"/>
      <point x="453" y="399" type="curve" smooth="yes"/>
      <point x="453" y="316"/>
      <point x="422" y="267"/>
      <point x="330" y="267" type="curve" smooth="yes"/>
      <point x="284" y="267"/>
      <point x="233" y="287"/>
      <point x="223" y="299" type="curve"/>
      <point x="266" y="321"/>
      <point x="307" y="326"/>
      <point x="340" y="326" type="curve" smooth="yes"/>
      <point x="368" y="326"/>
      <point x="425" y="315"/>
      <point x="479" y="278" type="curve"/>
      <point x="502" y="385" type="line"/>
      <point x="433" y="424"/>
      <point x="378" y="429"/>
      <point x="324" y="429" type="curve" smooth="yes"/>
      <point x="223" y="429"/>
      <point x="150" y="411"/>
      <point x="47" y="366" type="curve"/>
      <point x="61" y="226"/>
      <point x="177" y="140"/>
    </contour>
    <contour>
      <point x="775" y="140" type="curve" smooth="yes"/>
      <point x="961" y="140"/>
      <point x="1074" y="244"/>
      <point x="1074" y="397" type="curve" smooth="yes"/>
      <point x="1074" y="543"/>
      <point x="964" y="656"/>
      <point x="769" y="656" type="curve" smooth="yes"/>
      <point x="649" y="656"/>
      <point x="576" y="621"/>
      <point x="542" y="588" type="curve"/>
      <point x="617" y="433" type="line"/>
      <point x="625" y="468"/>
      <point x="657" y="519"/>
      <point x="747" y="519" type="curve" smooth="yes"/>
      <point x="826" y="519"/>
      <point x="882" y="473"/>
      <point x="882" y="399" type="curve" smooth="yes"/>
      <point x="882" y="326"/>
      <point x="829" y="276"/>
      <point x="756" y="276" type="curve" smooth="yes"/>
      <point x="667" y="276"/>
      <point x="636" y="316"/>
      <point x="613" y="361" type="curve"/>
      <point x="537" y="207" type="line"/>
      <point x="592" y="163"/>
      <point x="681" y="140"/>
    </contour>
  </outline>
</glyph>
<glyph name="ja" format="2">
  <advance width="728"/>
  <unicode hex="1007"/>
  <note>
ja
</note>
  <outline>
    <contour>
      <point x="413" y="140" type="curve" smooth="yes"/>
      <point x="457" y="140"/>
      <point x="523" y="151"/>
      <point x="569" y="180" type="curve"/>
      <point x="464" y="284" type="line"/>
      <point x="450" y="280"/>
      <point x="436" y="276"/>
      <point x="410" y="276" type="curve" smooth="yes"/>
      <point x="292" y="276"/>
      <point x="241" y="319"/>
      <point x="241" y="392" type="curve" smooth="yes"/>
      <point x="241" y="467"/>
      <point x="292" y="519"/>
      <point x="369" y="519" type="curve" smooth="yes"/>
      <point x="392" y="519"/>
      <point x="403" y="517"/>
      <point x="410" y="514" type="curve"/>
      <point x="409" y="539" type="line"/>
      <point x="380" y="514"/>
      <point x="374" y="491"/>
      <point x="374" y="467" type="curve" smooth="yes"/>
      <point x="374" y="400"/>
      <point x="422" y="364"/>
      <point x="505" y="364" type="curve" smooth="yes"/>
      <point x="517" y="364"/>
      <point x="530" y="367"/>
      <point x="539" y="371" type="curve"/>
      <point x="525" y="376" type="line"/>
      <point x="532" y="334"/>
      <point x="555" y="307"/>
      <point x="640" y="307" type="curve" smooth="yes"/>
      <point x="694" y="307" type="line"/>
      <point x="694" y="441" type="line"/>
      <point x="659" y="441"/>
      <point x="637" y="451"/>
      <point x="637" y="470" type="curve" smooth="yes"/>
      <point x="637" y="478"/>
      <point x="639" y="488"/>
      <point x="639" y="503" type="curve" smooth="yes"/>
      <point x="639" y="565"/>
      <point x="569" y="656"/>
      <point x="390" y="656" type="curve" smooth="yes"/>
      <point x="172" y="656"/>
      <point x="48" y="549"/>
      <point x="48" y="397" type="curve" smooth="yes"/>
      <point x="48" y="212"/>
      <point x="210" y="140"/>
    </contour>
    <contour>
      <point x="502" y="443" type="curve" smooth="yes"/>
      <point x="477" y="443"/>
      <point x="460" y="453"/>
      <point x="460" y="474" type="curve" smooth="yes"/>
      <point x="460" y="495"/>
      <point x="477" y="504"/>
      <point x="502" y="504" type="curve" smooth="yes"/>
      <point x="526" y="504"/>
      <point x="543" y="495"/>
      <point x="543" y="474" type="curve" smooth="yes"/>
      <point x="543" y="453"/>
      <point x="526" y="443"/>
    </contour>
  </outline>
</glyph>
<glyph name="jha" format="2">
  <advance width="966"/>
  <unicode hex="1008"/>
  <note>
jha
</note>
  <outline>
    <contour>
      <point x="621" y="-270" type="curve" smooth="yes"/>
      <point x="781" y="-270"/>
      <point x="888" y="-170"/>
      <point x="888" y="-31" type="curve" smooth="yes"/>
      <point x="888" y="648" type="line"/>
      <point x="694" y="648" type="line"/>
      <point x="694" y="12" type="line" smooth="yes"/>
      <point x="694" y="-88"/>
      <point x="675" y="-122"/>
      <point x="625" y="-122" type="curve" smooth="yes"/>
      <point x="576" y="-122"/>
      <point x="555" y="-91"/>
      <point x="555" y="10" type="curve" smooth="yes"/>
      <point x="555" y="217" type="line"/>
      <point x="362" y="152" type="line"/>
      <point x="362" y="-30" type="line" smooth="yes"/>
      <point x="362" y="-175"/>
      <point x="465" y="-270"/>
    </contour>
    <contour>
      <point x="350" y="140" type="curve" smooth="yes"/>
      <point x="533" y="140"/>
      <point x="646" y="244"/>
      <point x="646" y="397" type="curve" smooth="yes"/>
      <point x="646" y="544"/>
      <point x="537" y="656"/>
      <point x="348" y="656" type="curve" smooth="yes"/>
      <point x="183" y="656"/>
      <point x="48" y="555"/>
      <point x="48" y="397" type="curve" smooth="yes"/>
      <point x="48" y="241"/>
      <point x="183" y="140"/>
    </contour>
    <contour>
      <point x="316" y="277" type="curve" smooth="yes"/>
      <point x="238" y="277"/>
      <point x="190" y="337"/>
      <point x="190" y="399" type="curve" smooth="yes"/>
      <point x="190" y="460"/>
      <point x="241" y="519"/>
      <point x="327" y="519" type="curve" smooth="yes"/>
      <point x="407" y="519"/>
      <point x="454" y="469"/>
      <point x="454" y="399" type="curve" smooth="yes"/>
      <point x="454" y="330"/>
      <point x="410" y="277"/>
    </contour>
    <contour>
      <point x="323" y="253" type="line"/>
      <point x="355" y="311"/>
      <point x="365" y="352"/>
      <point x="365" y="398" type="curve" smooth="yes"/>
      <point x="365" y="452"/>
      <point x="347" y="496"/>
      <point x="329" y="539" type="curve"/>
      <point x="230" y="508" type="line"/>
      <point x="245" y="483"/>
      <point x="256" y="453"/>
      <point x="256" y="404" type="curve" smooth="yes"/>
      <point x="256" y="350"/>
      <point x="246" y="327"/>
      <point x="225" y="286" type="curve"/>
    </contour>
  </outline>
</glyph>
<glyph name="nya" format="2">
  <advance width="679"/>
  <unicode hex="1009"/>
  <note>
nya
</note>
  <outline>
    <contour>
      <point x="306" y="-270" type="curve" smooth="yes"/>
      <point x="804" y="-270" type="line" smooth="yes"/>
      <point x="953" y="-270"/>
      <point x="1028" y="-204"/>
      <point x="1028" y="-66" type="curve" smooth="yes"/>
      <point x="1028" y="-30" type="line"/>
      <point x="837" y="-30" type="line"/>
      <point x="837" y="-81" type="line" smooth="yes"/>
      <point x="837" y="-113"/>
      <point x="824" y="-126"/>
      <point x="796" y="-126" type="curve" smooth="yes"/>
      <point x="317" y="-126" type="line" smooth="yes"/>
      <point x="287" y="-126"/>
      <point x="270" y="-117"/>
      <point x="270" y="-81" type="curve" smooth="yes"/>
      <point x="270" y="184" type="line"/>
      <point x="79" y="254" type="line"/>
      <point x="79" y="-72" type="line" smooth="yes"/>
      <point x="79" y="-203"/>
      <point x="155" y="-270"/>
    </contour>
    <contour>
      <point x="364" y="142" type="curve" smooth="yes"/>
      <point x="516" y="142"/>
      <point x="632" y="264"/>
      <point x="632" y="397" type="curve" smooth="yes"/>
      <point x="632" y="554"/>
      <point x="514" y="656"/>
      <point x="352" y="656" type="curve" smooth="yes"/>
      <point x="247" y="656"/>
      <point x="145" y="618"/>
      <point x="100" y="556" type="curve"/>
      <point x="227" y="481" type="line"/>
      <point x="260" y="505"/>
      <point x="287" y="519"/>
      <point x="326" y="519" type="curve" smooth="yes"/>
      <point x="392" y="519"/>
      <point x="439" y="478"/>
      <point x="439" y="397" type="curve" smooth="yes"/>
      <point x="439" y="319"/>
      <point x="390" y="278"/>
      <point x="334" y="278" type="curve" smooth="yes"/>
      <point x="281" y="278"/>
      <point x="252" y="295"/>
      <point x="222" y="324" type="curve"/>
      <point x="79" y="254" type="line"/>
      <point x="182" y="192"/>
      <point x="256" y="142"/>
    </contour>
  </outline>
</glyph>
<glyph name="tta" format="2">
  <advance width="696"/>
  <unicode hex="100B"/>
  <note>
tta
</note>
  <outline>
    <contour>
      <point x="415" y="-270" type="line"/>
      <point x="684" y="-270" type="line"/>
      <point x="684" y="-130" type="line"/>
      <point x="608" y="-130" type="line"/>
      <point x="608" y="2" type="line"/>
      <point x="524" y="-34"/>
      <point x="428" y="-55"/>
      <point x="332" y="-55" type="curve" smooth="yes"/>
      <point x="300" y="-55"/>
      <point x="285" y="-54"/>
      <point x="270" y="-52" type="curve"/>
      <point x="270" y="-7" type="line"/>
      <point x="291" y="-9"/>
      <point x="309" y="-9"/>
      <point x="326" y="-9" type="curve" smooth="yes"/>
      <point x="430" y="-9"/>
      <point x="531" y="16"/>
      <point x="608" y="54" type="curve"/>
      <point x="608" y="253" type="line"/>
      <point x="415" y="183" type="line"/>
      <point x="415" y="109" type="line"/>
      <point x="388" y="102"/>
      <point x="364" y="97"/>
      <point x="308" y="97" type="curve" smooth="yes"/>
      <point x="225" y="97"/>
      <point x="143" y="122"/>
      <point x="71" y="149" type="curve"/>
      <point x="71" y="-153" type="line"/>
      <point x="155" y="-174"/>
      <point x="238" y="-176"/>
      <point x="326" y="-176" type="curve" smooth="yes"/>
      <point x="355" y="-176"/>
      <point x="389" y="-172"/>
      <point x="415" y="-169" type="curve"/>
    </contour>
    <contour>
      <point x="322" y="140" type="curve" smooth="yes"/>
      <point x="393" y="140"/>
      <point x="445" y="152"/>
      <point x="607" y="253" type="curve"/>
      <point x="464" y="322" type="line"/>
      <point x="446" y="293"/>
      <point x="410" y="276"/>
      <point x="369" y="276" type="curve" smooth="yes"/>
      <point x="288" y="276"/>
      <point x="247" y="329"/>
      <point x="247" y="397" type="curve" smooth="yes"/>
      <point x="247" y="472"/>
      <point x="293" y="519"/>
      <point x="360" y="519" type="curve" smooth="yes"/>
      <point x="400" y="519"/>
      <point x="438" y="508"/>
      <point x="461" y="481" type="curve"/>
      <point x="589" y="558" type="line"/>
      <point x="557" y="612"/>
      <point x="471" y="656"/>
      <point x="353" y="656" type="curve" smooth="yes"/>
      <point x="178" y="656"/>
      <point x="54" y="549"/>
      <point x="54" y="397" type="curve" smooth="yes"/>
      <point x="54" y="253"/>
      <point x="157" y="140"/>
    </contour>
  </outline>
</glyph>
<glyph name="ttha" format="2">
  <advance width="672"/>
  <unicode hex="100C"/>
  <note>
ttha
</note>
  <outline>
    <contour>
      <point x="271" y="-270" type="curve" smooth="yes"/>
      <point x="376" y="-270" type="line" smooth="yes"/>
      <point x="528" y="-270"/>
      <point x="601" y="-204"/>
      <point x="601" y="-72" type="curve" smooth="yes"/>
      <point x="601" y="253" type="line"/>
      <point x="411" y="160" type="line"/>
      <point x="411" y="-81" type="line" smooth="yes"/>
      <point x="411" y="-109"/>
      <point x="402" y="-126"/>
      <point x="371" y="-126" type="curve" smooth="yes"/>
      <point x="269" y="-126" type="line" smooth="yes"/>
      <point x="237" y="-126"/>
      <point x="221" y="-117"/>
      <point x="221" y="-101" type="curve" smooth="yes"/>
      <point x="221" y="-92"/>
      <point x="231" y="-80"/>
      <point x="259" y="-80" type="curve" smooth="yes"/>
      <point x="289" y="-80"/>
      <point x="306" y="-86"/>
      <point x="329" y="-97" type="curve"/>
      <point x="389" y="8" type="line"/>
      <point x="352" y="24"/>
      <point x="308" y="36"/>
      <point x="230" y="36" type="curve" smooth="yes"/>
      <point x="131" y="36"/>
      <point x="48" y="-25"/>
      <point x="48" y="-114" type="curve" smooth="yes"/>
      <point x="48" y="-216"/>
      <point x="132" y="-270"/>
    </contour>
    <contour>
      <point x="316" y="140" type="curve" smooth="yes"/>
      <point x="402" y="140"/>
      <point x="470" y="149"/>
      <point x="601" y="253" type="curve"/>
      <point x="458" y="322" type="line"/>
      <point x="440" y="293"/>
      <point x="404" y="276"/>
      <point x="363" y="276" type="curve" smooth="yes"/>
      <point x="282" y="276"/>
      <point x="241" y="329"/>
      <point x="241" y="397" type="curve" smooth="yes"/>
      <point x="241" y="473"/>
      <point x="285" y="519"/>
      <point x="353" y="519" type="curve" smooth="yes"/>
      <point x="394" y="519"/>
      <point x="432" y="508"/>
      <point x="455" y="481" type="curve"/>
      <point x="583" y="558" type="line"/>
      <point x="551" y="612"/>
      <point x="465" y="656"/>
      <point x="347" y="656" type="curve" smooth="yes"/>
      <point x="172" y="656"/>
      <point x="48" y="549"/>
      <point x="48" y="397" type="curve" smooth="yes"/>
      <point x="48" y="253"/>
      <point x="151" y="140"/>
    </contour>
  </outline>
</glyph>
<glyph name="dda" format="2">
  <advance width="709"/>
  <unicode hex="100D"/>
  <note>
dda
</note>
  <outline>
    <contour>
      <point x="423" y="-270" type="line"/>
      <point x="691" y="-270" type="line"/>
      <point x="691" y="-130" type="line"/>
      <point x="615" y="-130" type="line"/>
      <point x="615" y="149" type="line"/>
      <point x="542" y="122"/>
      <point x="461" y="97"/>
      <point x="378" y="97" type="curve" smooth="yes"/>
      <point x="323" y="97"/>
      <point x="298" y="99"/>
      <point x="271" y="104" type="curve"/>
      <point x="271" y="183" type="line"/>
      <point x="79" y="253" type="line"/>
      <point x="79" y="-10" type="line"/>
      <point x="155" y="-34"/>
      <point x="256" y="-49"/>
      <point x="360" y="-49" type="curve" smooth="yes"/>
      <point x="378" y="-49"/>
      <point x="403" y="-47"/>
      <point x="423" y="-45" type="curve"/>
    </contour>
    <contour>
      <point x="364" y="140" type="curve" smooth="yes"/>
      <point x="529" y="140"/>
      <point x="632" y="253"/>
      <point x="632" y="397" type="curve" smooth="yes"/>
      <point x="632" y="549"/>
      <point x="508" y="656"/>
      <point x="333" y="656" type="curve" smooth="yes"/>
      <point x="215" y="656"/>
      <point x="129" y="612"/>
      <point x="97" y="558" type="curve"/>
      <point x="226" y="481" type="line"/>
      <point x="255" y="505"/>
      <point x="284" y="519"/>
      <point x="331" y="519" type="curve" smooth="yes"/>
      <point x="399" y="519"/>
      <point x="439" y="471"/>
      <point x="439" y="397" type="curve" smooth="yes"/>
      <point x="439" y="329"/>
      <point x="399" y="276"/>
      <point x="317" y="276" type="curve" smooth="yes"/>
      <point x="276" y="276"/>
      <point x="241" y="293"/>
      <point x="223" y="322" type="curve"/>
      <point x="79" y="253" type="line"/>
      <point x="218" y="156"/>
      <point x="254" y="140"/>
    </contour>
  </outline>
</glyph>
<glyph name="ddha" format="2">
  <advance width="756"/>
  <unicode hex="100E"/>
  <note>
ddha
</note>
  <outline>
    <contour>
      <point x="350" y="140" type="curve" smooth="yes"/>
      <point x="573" y="140"/>
      <point x="682" y="244"/>
      <point x="682" y="392" type="curve" smooth="yes"/>
      <point x="682" y="548"/>
      <point x="610" y="616"/>
      <point x="521" y="656" type="curve"/>
      <point x="431" y="514" type="line"/>
      <point x="501" y="475"/>
      <point x="514" y="427"/>
      <point x="514" y="391" type="curve" smooth="yes"/>
      <point x="514" y="312"/>
      <point x="446" y="276"/>
      <point x="354" y="276" type="curve" smooth="yes"/>
      <point x="294" y="276"/>
      <point x="245" y="300"/>
      <point x="245" y="336" type="curve" smooth="yes"/>
      <point x="245" y="358"/>
      <point x="254" y="374"/>
      <point x="289" y="398" type="curve" smooth="yes"/>
      <point x="332" y="428"/>
      <point x="370" y="472"/>
      <point x="370" y="529" type="curve" smooth="yes"/>
      <point x="370" y="604"/>
      <point x="313" y="657"/>
      <point x="207" y="657" type="curve" smooth="yes"/>
      <point x="139" y="657"/>
      <point x="63" y="625"/>
      <point x="28" y="567" type="curve"/>
      <point x="107" y="494" type="line"/>
      <point x="123" y="514"/>
      <point x="154" y="537"/>
      <point x="181" y="537" type="curve" smooth="yes"/>
      <point x="197" y="537"/>
      <point x="202" y="529"/>
      <point x="202" y="522" type="curve" smooth="yes"/>
      <point x="202" y="502"/>
      <point x="174" y="487"/>
      <point x="128" y="450" type="curve" smooth="yes"/>
      <point x="80" y="411"/>
      <point x="53" y="374"/>
      <point x="53" y="323" type="curve" smooth="yes"/>
      <point x="53" y="219"/>
      <point x="155" y="140"/>
    </contour>
  </outline>
</glyph>
<glyph name="nna" format="2">
  <advance width="1441"/>
  <unicode hex="100F"/>
  <note>
nna
</note>
  <outline>
    <contour>
      <point x="720" y="143" type="curve" smooth="yes"/>
      <point x="831" y="143"/>
      <point x="910" y="199"/>
      <point x="910" y="297" type="curve" smooth="yes"/>
      <point x="910" y="329"/>
      <point x="905" y="361"/>
      <point x="905" y="388" type="curve" smooth="yes"/>
      <point x="905" y="469"/>
      <point x="964" y="519"/>
      <point x="1056" y="519" type="curve" smooth="yes"/>
      <point x="1141" y="519"/>
      <point x="1199" y="474"/>
      <point x="1199" y="399" type="curve" smooth="yes"/>
      <point x="1199" y="329"/>
      <point x="1154" y="288"/>
      <point x="1098" y="288" type="curve" smooth="yes"/>
      <point x="1071" y="288"/>
      <point x="1051" y="289"/>
      <point x="1028" y="299" type="curve"/>
      <point x="982" y="161" type="line"/>
      <point x="1021" y="144"/>
      <point x="1059" y="142"/>
      <point x="1115" y="142" type="curve" smooth="yes"/>
      <point x="1277" y="142"/>
      <point x="1392" y="254"/>
      <point x="1392" y="397" type="curve" smooth="yes"/>
      <point x="1392" y="555"/>
      <point x="1252" y="656"/>
      <point x="1065" y="656" type="curve" smooth="yes"/>
      <point x="905" y="656"/>
      <point x="763" y="568"/>
      <point x="763" y="429" type="curve" smooth="yes"/>
      <point x="763" y="390"/>
      <point x="768" y="353"/>
      <point x="768" y="332" type="curve" smooth="yes"/>
      <point x="768" y="299"/>
      <point x="748" y="284"/>
      <point x="720" y="284" type="curve" smooth="yes"/>
      <point x="692" y="284"/>
      <point x="672" y="299"/>
      <point x="672" y="332" type="curve" smooth="yes"/>
      <point x="672" y="353"/>
      <point x="677" y="390"/>
      <point x="677" y="429" type="curve" smooth="yes"/>
      <point x="677" y="568"/>
      <point x="535" y="656"/>
      <point x="375" y="656" type="curve" smooth="yes"/>
      <point x="188" y="656"/>
      <point x="48" y="555"/>
      <point x="48" y="397" type="curve" smooth="yes"/>
      <point x="48" y="254"/>
      <point x="163" y="142"/>
      <point x="325" y="142" type="curve" smooth="yes"/>
      <point x="381" y="142"/>
      <point x="419" y="144"/>
      <point x="458" y="161" type="curve"/>
      <point x="412" y="299" type="line"/>
      <point x="389" y="289"/>
      <point x="369" y="288"/>
      <point x="342" y="288" type="curve" smooth="yes"/>
      <point x="286" y="288"/>
      <point x="241" y="329"/>
      <point x="241" y="399" type="curve" smooth="yes"/>
      <point x="241" y="474"/>
      <point x="299" y="519"/>
      <point x="384" y="519" type="curve" smooth="yes"/>
      <point x="476" y="519"/>
      <point x="536" y="469"/>
      <point x="536" y="388" type="curve" smooth="yes"/>
      <point x="536" y="361"/>
      <point x="530" y="329"/>
      <point x="530" y="297" type="curve" smooth="yes"/>
      <point x="530" y="199"/>
      <point x="609" y="143"/>
    </contour>
    <contour>
      <point x="655" y="489" type="line"/>
      <point x="666" y="509"/>
      <point x="688" y="526"/>
      <point x="720" y="526" type="curve" smooth="yes"/>
      <point x="752" y="526"/>
      <point x="774" y="509"/>
      <point x="785" y="489" type="curve"/>
      <point x="878" y="586" type="line"/>
      <point x="828" y="641"/>
      <point x="778" y="656"/>
      <point x="720" y="656" type="curve" smooth="yes"/>
      <point x="662" y="656"/>
      <point x="612" y="640"/>
      <point x="562" y="586" type="curve"/>
    </contour>
  </outline>
</glyph>
<glyph name="tha" format="2">
  <advance width="1120"/>
  <unicode hex="1011"/>
  <note>
tha
</note>
  <outline>
    <contour>
      <point x="354" y="140" type="curve" smooth="yes"/>
      <point x="539" y="140"/>
      <point x="639" y="243"/>
      <point x="639" y="397" type="curve" smooth="yes"/>
      <point x="639" y="548"/>
      <point x="542" y="656"/>
      <point x="356" y="656" type="curve" smooth="yes"/>
      <point x="184" y="656"/>
      <point x="48" y="555"/>
      <point x="48" y="397" type="curve" smooth="yes"/>
      <point x="48" y="241"/>
      <point x="180" y="140"/>
    </contour>
    <contour>
      <point x="354" y="276" type="curve" smooth="yes"/>
      <point x="282" y="276"/>
      <point x="241" y="329"/>
      <point x="241" y="399" type="curve" smooth="yes"/>
      <point x="241" y="469"/>
      <point x="286" y="519"/>
      <point x="354" y="519" type="curve" smooth="yes"/>
      <point x="419" y="519"/>
      <point x="469" y="476"/>
      <point x="469" y="399" type="curve" smooth="yes"/>
      <point x="469" y="326"/>
      <point x="425" y="276"/>
    </contour>
    <contour>
      <point x="762" y="140" type="curve" smooth="yes"/>
      <point x="940" y="140"/>
      <point x="1071" y="237"/>
      <point x="1071" y="397" type="curve" smooth="yes"/>
      <point x="1071" y="555"/>
      <point x="942" y="656"/>
      <point x="765" y="656" type="curve" smooth="yes"/>
      <point x="691" y="656"/>
      <point x="600" y="635"/>
      <point x="555" y="575" type="curve"/>
      <point x="628" y="442" type="line"/>
      <point x="650" y="481"/>
      <point x="687" y="519"/>
      <point x="753" y="519" type="curve" smooth="yes"/>
      <point x="824" y="519"/>
      <point x="879" y="475"/>
      <point x="879" y="399" type="curve" smooth="yes"/>
      <point x="879" y="327"/>
      <point x="829" y="277"/>
      <point x="762" y="277" type="curve" smooth="yes"/>
      <point x="681" y="277"/>
      <point x="655" y="317"/>
      <point x="630" y="362" type="curve"/>
      <point x="553" y="219" type="line"/>
      <point x="606" y="160"/>
      <point x="687" y="140"/>
    </contour>
  </outline>
</glyph>
<glyph name="da" format="2">
  <advance width="702"/>
  <unicode hex="1012"/>
  <note>
da
</note>
  <outline>
    <contour>
      <point x="368" y="140" type="curve" smooth="yes"/>
      <point x="568" y="140"/>
      <point x="652" y="199"/>
      <point x="652" y="287" type="curve" smooth="yes"/>
      <point x="652" y="368"/>
      <point x="575" y="396"/>
      <point x="484" y="403" type="curve"/>
      <point x="484" y="407" type="line"/>
      <point x="581" y="431"/>
      <point x="610" y="466"/>
      <point x="610" y="517" type="curve" smooth="yes"/>
      <point x="610" y="606"/>
      <point x="517" y="656"/>
      <point x="329" y="656" type="curve" smooth="yes"/>
      <point x="165" y="656"/>
      <point x="66" y="596"/>
      <point x="66" y="505" type="curve" smooth="yes"/>
      <point x="66" y="471"/>
      <point x="81" y="432"/>
      <point x="118" y="408" type="curve"/>
      <point x="243" y="472" type="line"/>
      <point x="231" y="481"/>
      <point x="225" y="486"/>
      <point x="225" y="499" type="curve" smooth="yes"/>
      <point x="225" y="523"/>
      <point x="271" y="534"/>
      <point x="337" y="534" type="curve" smooth="yes"/>
      <point x="386" y="534"/>
      <point x="441" y="529"/>
      <point x="441" y="504" type="curve" smooth="yes"/>
      <point x="441" y="474"/>
      <point x="389" y="469"/>
      <point x="333" y="469" type="curve" smooth="yes"/>
      <point x="307" y="469" type="line"/>
      <point x="307" y="352" type="line"/>
      <point x="341" y="352" type="line" smooth="yes"/>
      <point x="430" y="352"/>
      <point x="462" y="345"/>
      <point x="462" y="310" type="curve" smooth="yes"/>
      <point x="462" y="285"/>
      <point x="425" y="269"/>
      <point x="363" y="269" type="curve" smooth="yes"/>
      <point x="267" y="269"/>
      <point x="210" y="292"/>
      <point x="163" y="345" type="curve"/>
      <point x="31" y="278" type="line"/>
      <point x="84" y="188"/>
      <point x="202" y="140"/>
    </contour>
  </outline>
</glyph>
<glyph name="dha" format="2">
  <advance width="735"/>
  <unicode hex="1013"/>
  <note>
dha
</note>
  <outline>
    <contour>
      <point x="241" y="307" type="line"/>
      <point x="271" y="317"/>
      <point x="306" y="325"/>
      <point x="369" y="325" type="curve" smooth="yes"/>
      <point x="425" y="325"/>
      <point x="451" y="319"/>
      <point x="496" y="307" type="curve"/>
      <point x="533" y="397" type="line"/>
      <point x="469" y="418"/>
      <point x="422" y="424"/>
      <point x="369" y="424" type="curve" smooth="yes"/>
      <point x="308" y="424"/>
      <point x="257" y="410"/>
      <point x="207" y="397" type="curve"/>
    </contour>
    <contour>
      <point x="370" y="140" type="curve" smooth="yes"/>
      <point x="556" y="140"/>
      <point x="686" y="244"/>
      <point x="686" y="397" type="curve" smooth="yes"/>
      <point x="686" y="547"/>
      <point x="559" y="656"/>
      <point x="368" y="656" type="curve" smooth="yes"/>
      <point x="183" y="656"/>
      <point x="48" y="555"/>
      <point x="48" y="397" type="curve" smooth="yes"/>
      <point x="48" y="241"/>
      <point x="183" y="140"/>
    </contour>
    <contour>
      <point x="366" y="267" type="curve" smooth="yes"/>
      <point x="258" y="267"/>
      <point x="228" y="324"/>
      <point x="228" y="399" type="curve" smooth="yes"/>
      <point x="228" y="469"/>
      <point x="283" y="519"/>
      <point x="366" y="519" type="curve" smooth="yes"/>
      <point x="445" y="519"/>
      <point x="507" y="475"/>
      <point x="507" y="397" type="curve" smooth="yes"/>
      <point x="507" y="319"/>
      <point x="475" y="267"/>
    </contour>
  </outline>
</glyph>
<glyph name="na" format="2">
  <advance width="627"/>
  <unicode hex="1014"/>
  <note>
na
</note>
  <outline>
    <contour>
      <point x="209" y="-270" type="line"/>
      <point x="358" y="-270" type="line"/>
      <point x="358" y="183" type="line" smooth="yes"/>
      <point x="358" y="291"/>
      <point x="276" y="361"/>
      <point x="171" y="361" type="curve" smooth="yes"/>
      <point x="90" y="361"/>
      <point x="40" y="313"/>
      <point x="40" y="262" type="curve" smooth="yes"/>
      <point x="40" y="186"/>
      <point x="102" y="143"/>
      <point x="243" y="143" type="curve" smooth="yes"/>
      <point x="318" y="143" type="line" smooth="yes"/>
      <point x="464" y="143"/>
      <point x="554" y="205"/>
      <point x="554" y="308" type="curve" smooth="yes"/>
      <point x="554" y="395"/>
      <point x="500" y="430"/>
      <point x="388" y="465" type="curve" smooth="yes"/>
      <point x="318" y="487"/>
      <point x="294" y="502"/>
      <point x="294" y="522" type="curve" smooth="yes"/>
      <point x="294" y="543"/>
      <point x="314" y="547"/>
      <point x="330" y="547" type="curve" smooth="yes"/>
      <point x="366" y="547"/>
      <point x="400" y="525"/>
      <point x="433" y="495" type="curve"/>
      <point x="523" y="587" type="line"/>
      <point x="470" y="633"/>
      <point x="386" y="657"/>
      <point x="318" y="657" type="curve" smooth="yes"/>
      <point x="206" y="657"/>
      <point x="130" y="602"/>
      <point x="130" y="523" type="curve" smooth="yes"/>
      <point x="130" y="457"/>
      <point x="166" y="416"/>
      <point x="270" y="378" type="curve" smooth="yes"/>
      <point x="339" y="356"/>
      <point x="386" y="334"/>
      <point x="386" y="298" type="curve" smooth="yes"/>
      <point x="386" y="249"/>
      <point x="344" y="236"/>
      <point x="246" y="236" type="curve" smooth="yes"/>
      <point x="229" y="236" type="line" smooth="yes"/>
      <point x="162" y="236"/>
      <point x="140" y="249"/>
      <point x="140" y="273" type="curve" smooth="yes"/>
      <point x="140" y="286"/>
      <point x="150" y="297"/>
      <point x="166" y="297" type="curve" smooth="yes"/>
      <point x="203" y="297"/>
      <point x="209" y="269"/>
      <point x="209" y="157" type="curve" smooth="yes"/>
    </contour>
  </outline>
</glyph>
<glyph name="pa" format="2">
  <advance width="732"/>
  <unicode hex="1015"/>
  <note>
pa
</note>
  <outline>
    <contour>
      <point x="371" y="140" type="curve" smooth="yes"/>
      <point x="571" y="140"/>
      <point x="684" y="249"/>
      <point x="684" y="392" type="curve" smooth="yes"/>
      <point x="684" y="532"/>
      <point x="619" y="612"/>
      <point x="526" y="656" type="curve"/>
      <point x="435" y="514" type="line"/>
      <point x="484" y="467"/>
      <point x="491" y="428"/>
      <point x="491" y="391" type="curve" smooth="yes"/>
      <point x="491" y="323"/>
      <point x="439" y="277"/>
      <point x="367" y="277" type="curve" smooth="yes"/>
      <point x="288" y="277"/>
      <point x="241" y="328"/>
      <point x="241" y="391" type="curve" smooth="yes"/>
      <point x="241" y="432"/>
      <point x="248" y="467"/>
      <point x="297" y="514" type="curve"/>
      <point x="205" y="656" type="line"/>
      <point x="112" y="611"/>
      <point x="48" y="529"/>
      <point x="48" y="392" type="curve" smooth="yes"/>
      <point x="48" y="239"/>
      <point x="166" y="140"/>
    </contour>
  </outline>
</glyph>
<glyph name="pha" format="2">
  <advance width="732"/>
  <unicode hex="1016"/>
  <note>
pha
</note>
  <outline>
    <contour>
      <point x="365" y="140" type="curve" smooth="yes"/>
      <point x="565" y="140"/>
      <point x="684" y="240"/>
      <point x="684" y="392" type="curve" smooth="yes"/>
      <point x="684" y="519"/>
      <point x="598" y="620"/>
      <point x="464" y="656" type="curve"/>
      <point x="405" y="578"/>
      <point x="356" y="506"/>
      <point x="356" y="409" type="curve" smooth="yes"/>
      <point x="356" y="361"/>
      <point x="366" y="315"/>
      <point x="392" y="255" type="curve"/>
      <point x="483" y="294" type="line"/>
      <point x="464" y="336"/>
      <point x="453" y="372"/>
      <point x="453" y="409" type="curve" smooth="yes"/>
      <point x="453" y="449"/>
      <point x="468" y="475"/>
      <point x="487" y="497" type="curve"/>
      <point x="530" y="462"/>
      <point x="534" y="431"/>
      <point x="534" y="402" type="curve" smooth="yes"/>
      <point x="534" y="319"/>
      <point x="455" y="276"/>
      <point x="386" y="276" type="curve" smooth="yes"/>
      <point x="294" y="276"/>
      <point x="241" y="316"/>
      <point x="241" y="390" type="curve" smooth="yes"/>
      <point x="241" y="426"/>
      <point x="250" y="467"/>
      <point x="300" y="514" type="curve"/>
      <point x="208" y="656" type="line"/>
      <point x="118" y="615"/>
      <point x="48" y="531"/>
      <point x="48" y="392" type="curve" smooth="yes"/>
      <point x="48" y="241"/>
      <point x="164" y="140"/>
    </contour>
  </outline>
</glyph>
<glyph name="ba" format="2">
  <advance width="738"/>
  <unicode hex="1017"/>
  <note>
ba
</note>
  <outline>
    <contour>
      <point x="369" y="140" type="curve" smooth="yes"/>
      <point x="557" y="140"/>
      <point x="689" y="238"/>
      <point x="689" y="392" type="curve" smooth="yes"/>
      <point x="689" y="531"/>
      <point x="642" y="611"/>
      <point x="598" y="655" type="curve"/>
      <point x="444" y="528" type="line"/>
      <point x="479" y="476"/>
      <point x="496" y="433"/>
      <point x="496" y="391" type="curve" smooth="yes"/>
      <point x="496" y="327"/>
      <point x="446" y="277"/>
      <point x="367" y="277" type="curve" smooth="yes"/>
      <point x="280" y="277"/>
      <point x="241" y="325"/>
      <point x="241" y="391" type="curve" smooth="yes"/>
      <point x="241" y="437"/>
      <point x="247" y="477"/>
      <point x="290" y="529" type="curve"/>
      <point x="144" y="656" type="line"/>
      <point x="87" y="611"/>
      <point x="48" y="529"/>
      <point x="48" y="392" type="curve" smooth="yes"/>
      <point x="48" y="239"/>
      <point x="169" y="140"/>
    </contour>
    <contour>
      <point x="373" y="397" type="curve" smooth="yes"/>
      <point x="505" y="397"/>
      <point x="615" y="482"/>
      <point x="615" y="586" type="curve" smooth="yes"/>
      <point x="615" y="611"/>
      <point x="609" y="633"/>
      <point x="599" y="655" type="curve"/>
      <point x="453" y="596" type="line"/>
      <point x="454" y="590"/>
      <point x="455" y="584"/>
      <point x="455" y="577" type="curve" smooth="yes"/>
      <point x="455" y="549"/>
      <point x="426" y="524"/>
      <point x="372" y="524" type="curve" smooth="yes"/>
      <point x="323" y="524"/>
      <point x="291" y="549"/>
      <point x="291" y="577" type="curve" smooth="yes"/>
      <point x="291" y="583"/>
      <point x="291" y="589"/>
      <point x="292" y="595" type="curve"/>
      <point x="144" y="656" type="line"/>
      <point x="136" y="634"/>
      <point x="131" y="611"/>
      <point x="131" y="586" type="curve" smooth="yes"/>
      <point x="131" y="482"/>
      <point x="239" y="397"/>
    </contour>
  </outline>
</glyph>
<glyph name="bha" format="2">
  <advance width="1122"/>
  <unicode hex="1018"/>
  <note>
bha
</note>
  <outline>
    <contour>
      <point x="319" y="142" type="curve" smooth="yes"/>
      <point x="515" y="142"/>
      <point x="625" y="239"/>
      <point x="625" y="397" type="curve" smooth="yes"/>
      <point x="625" y="550"/>
      <point x="496" y="656"/>
      <point x="319" y="656" type="curve" smooth="yes"/>
      <point x="214" y="656"/>
      <point x="113" y="618"/>
      <point x="68" y="556" type="curve"/>
      <point x="195" y="481" type="line"/>
      <point x="235" y="511"/>
      <point x="268" y="519"/>
      <point x="314" y="519" type="curve" smooth="yes"/>
      <point x="397" y="519"/>
      <point x="449" y="469"/>
      <point x="449" y="397" type="curve" smooth="yes"/>
      <point x="449" y="319"/>
      <point x="394" y="278"/>
      <point x="314" y="278" type="curve" smooth="yes"/>
      <point x="261" y="278"/>
      <point x="225" y="295"/>
      <point x="190" y="324" type="curve"/>
      <point x="46" y="254" type="line"/>
      <point x="95" y="190"/>
      <point x="196" y="142"/>
    </contour>
    <contour>
      <point x="790" y="139" type="curve" smooth="yes"/>
      <point x="953" y="139"/>
      <point x="1074" y="252"/>
      <point x="1074" y="397" type="curve" smooth="yes"/>
      <point x="1074" y="552"/>
      <point x="943" y="656"/>
      <point x="753" y="656" type="curve" smooth="yes"/>
      <point x="665" y="656"/>
      <point x="589" y="632"/>
      <point x="529" y="578" type="curve"/>
      <point x="613" y="443" type="line"/>
      <point x="629" y="476"/>
      <point x="672" y="520"/>
      <point x="746" y="520" type="curve" smooth="yes"/>
      <point x="825" y="520"/>
      <point x="881" y="476"/>
      <point x="881" y="399" type="curve" smooth="yes"/>
      <point x="881" y="333"/>
      <point x="848" y="287"/>
      <point x="775" y="287" type="curve" smooth="yes"/>
      <point x="756" y="287"/>
      <point x="732" y="292"/>
      <point x="711" y="299" type="curve"/>
      <point x="649" y="172" type="line"/>
      <point x="682" y="149"/>
      <point x="738" y="139"/>
    </contour>
  </outline>
</glyph>
<glyph name="ma" format="2">
  <advance width="732"/>
  <unicode hex="1019"/>
  <note>
ma
</note>
  <outline>
    <contour>
      <point x="361" y="140" type="curve" smooth="yes"/>
      <point x="561" y="140"/>
      <point x="683" y="238"/>
      <point x="683" y="392" type="curve" smooth="yes"/>
      <point x="683" y="532"/>
      <point x="618" y="612"/>
      <point x="525" y="656" type="curve"/>
      <point x="434" y="514" type="line"/>
      <point x="495" y="464"/>
      <point x="504" y="424"/>
      <point x="504" y="385" type="curve" smooth="yes"/>
      <point x="504" y="301"/>
      <point x="453" y="266"/>
      <point x="369" y="266" type="curve" smooth="yes"/>
      <point x="269" y="266"/>
      <point x="228" y="315"/>
      <point x="228" y="388" type="curve" smooth="yes"/>
      <point x="228" y="430"/>
      <point x="237" y="466"/>
      <point x="297" y="514" type="curve"/>
      <point x="205" y="656" type="line"/>
      <point x="112" y="611"/>
      <point x="48" y="529"/>
      <point x="48" y="392" type="curve" smooth="yes"/>
      <point x="48" y="239"/>
      <point x="166" y="140"/>
    </contour>
    <contour>
      <point x="241" y="307" type="line"/>
      <point x="271" y="317"/>
      <point x="306" y="325"/>
      <point x="369" y="325" type="curve" smooth="yes"/>
      <point x="425" y="325"/>
      <point x="451" y="319"/>
      <point x="496" y="307" type="curve"/>
      <point x="533" y="397" type="line"/>
      <point x="469" y="418"/>
      <point x="422" y="424"/>
      <point x="369" y="424" type="curve" smooth="yes"/>
      <point x="308" y="424"/>
      <point x="257" y="410"/>
      <point x="207" y="397" type="curve"/>
    </contour>
  </outline>
</glyph>
<glyph name="ya" format="2">
  <advance width="1120"/>
  <unicode hex="101A"/>
  <note>
ya
</note>
  <outline>
    <contour>
      <point x="362" y="140" type="curve" smooth="yes"/>
      <point x="538" y="140"/>
      <point x="641" y="232"/>
      <point x="641" y="392" type="curve" smooth="yes"/>
      <point x="641" y="535"/>
      <point x="588" y="607"/>
      <point x="490" y="656" type="curve"/>
      <point x="399" y="514" type="line"/>
      <point x="462" y="474"/>
      <point x="472" y="428"/>
      <point x="472" y="391" type="curve" smooth="yes"/>
      <point x="472" y="317"/>
      <point x="429" y="277"/>
      <point x="354" y="277" type="curve" smooth="yes"/>
      <point x="288" y="277"/>
      <point x="241" y="328"/>
      <point x="241" y="391" type="curve" smooth="yes"/>
      <point x="241" y="432"/>
      <point x="248" y="467"/>
      <point x="297" y="514" type="curve"/>
      <point x="205" y="656" type="line"/>
      <point x="112" y="611"/>
      <point x="48" y="529"/>
      <point x="48" y="392" type="curve" smooth="yes"/>
      <point x="48" y="239"/>
      <point x="166" y="140"/>
    </contour>
    <contour>
      <point x="763" y="140" type="curve" smooth="yes"/>
      <point x="949" y="140"/>
      <point x="1071" y="229"/>
      <point x="1071" y="397" type="curve" smooth="yes"/>
      <point x="1071" y="527"/>
      <point x="990" y="656"/>
      <point x="798" y="656" type="curve" smooth="yes"/>
      <point x="733" y="656"/>
      <point x="688" y="641"/>
      <point x="661" y="623" type="curve"/>
      <point x="723" y="496" type="line"/>
      <point x="746" y="506"/>
      <point x="763" y="509"/>
      <point x="788" y="509" type="curve" smooth="yes"/>
      <point x="842" y="509"/>
      <point x="878" y="468"/>
      <point x="878" y="395" type="curve" smooth="yes"/>
      <point x="878" y="331"/>
      <point x="832" y="275"/>
      <point x="765" y="275" type="curve" smooth="yes"/>
      <point x="681" y="275"/>
      <point x="642" y="316"/>
      <point x="632" y="346" type="curve"/>
      <point x="555" y="205" type="line"/>
      <point x="584" y="183"/>
      <point x="640" y="140"/>
    </contour>
  </outline>
</glyph>
<glyph name="la" format="2">
  <advance width="1119"/>
  <unicode hex="101C"/>
  <note>
la
</note>
  <outline>
    <contour>
      <point x="328" y="140" type="curve" smooth="yes"/>
      <point x="372" y="140"/>
      <point x="444" y="149"/>
      <point x="481" y="172" type="curve"/>
      <point x="418" y="299" type="line"/>
      <point x="393" y="292"/>
      <point x="377" y="287"/>
      <point x="346" y="287" type="curve" smooth="yes"/>
      <point x="283" y="287"/>
      <point x="241" y="329"/>
      <point x="241" y="399" type="curve" smooth="yes"/>
      <point x="241" y="465"/>
      <point x="273" y="508"/>
      <point x="334" y="508" type="curve" smooth="yes"/>
      <point x="406" y="508"/>
      <point x="435" y="463"/>
      <point x="484" y="343" type="curve" smooth="yes"/>
      <point x="538" y="208"/>
      <point x="635" y="142"/>
      <point x="790" y="142" type="curve" smooth="yes"/>
      <point x="968" y="142"/>
      <point x="1071" y="256"/>
      <point x="1071" y="397" type="curve" smooth="yes"/>
      <point x="1071" y="566"/>
      <point x="975" y="656"/>
      <point x="790" y="656" type="curve" smooth="yes"/>
      <point x="748" y="656"/>
      <point x="676" y="646"/>
      <point x="637" y="623" type="curve"/>
      <point x="702" y="496" type="line"/>
      <point x="732" y="504"/>
      <point x="741" y="509"/>
      <point x="773" y="509" type="curve" smooth="yes"/>
      <point x="845" y="509"/>
      <point x="879" y="453"/>
      <point x="879" y="397" type="curve" smooth="yes"/>
      <point x="879" y="334"/>
      <point x="853" y="288"/>
      <point x="795" y="288" type="curve" smooth="yes"/>
      <point x="741" y="288"/>
      <point x="704" y="311"/>
      <point x="635" y="459" type="curve" smooth="yes"/>
      <point x="566" y="606"/>
      <point x="481" y="656"/>
      <point x="326" y="656" type="curve" smooth="yes"/>
      <point x="159" y="656"/>
      <point x="48" y="544"/>
      <point x="48" y="397" type="curve" smooth="yes"/>
      <point x="48" y="230"/>
      <point x="146" y="140"/>
    </contour>
  </outline>
</glyph>
<glyph name="wa" format="2">
  <advance width="735"/>
  <unicode hex="101D"/>
  <note>
wa
</note>
  <outline>
    <contour>
      <point x="370" y="140" type="curve" smooth="yes"/>
      <point x="556" y="140"/>
      <point x="686" y="244"/>
      <point x="686" y="397" type="curve" smooth="yes"/>
      <point x="686" y="547"/>
      <point x="559" y="656"/>
      <point x="368" y="656" type="curve" smooth="yes"/>
      <point x="183" y="656"/>
      <point x="48" y="555"/>
      <point x="48" y="397" type="curve" smooth="yes"/>
      <point x="48" y="241"/>
      <point x="183" y="140"/>
    </contour>
    <contour>
      <point x="366" y="276" type="curve" smooth="yes"/>
      <point x="286" y="276"/>
      <point x="241" y="329"/>
      <point x="241" y="399" type="curve" smooth="yes"/>
      <point x="241" y="469"/>
      <point x="291" y="519"/>
      <point x="366" y="519" type="curve" smooth="yes"/>
      <point x="438" y="519"/>
      <point x="494" y="476"/>
      <point x="494" y="399" type="curve" smooth="yes"/>
      <point x="494" y="326"/>
      <point x="445" y="276"/>
    </contour>
  </outline>
</glyph>
<glyph name="sa" format="2">
  <advance width="1125"/>
  <unicode hex="101E"/>
  <note>
sa
</note>
  <outline>
    <contour>
      <point x="321" y="142" type="curve" smooth="yes"/>
      <point x="505" y="142"/>
      <point x="633" y="239"/>
      <point x="633" y="395" type="curve" smooth="yes"/>
      <point x="633" y="553"/>
      <point x="502" y="656"/>
      <point x="321" y="656" type="curve" smooth="yes"/>
      <point x="216" y="656"/>
      <point x="115" y="618"/>
      <point x="70" y="556" type="curve"/>
      <point x="197" y="481" type="line"/>
      <point x="237" y="511"/>
      <point x="270" y="519"/>
      <point x="316" y="519" type="curve" smooth="yes"/>
      <point x="393" y="519"/>
      <point x="440" y="468"/>
      <point x="440" y="394" type="curve" smooth="yes"/>
      <point x="440" y="318"/>
      <point x="390" y="278"/>
      <point x="316" y="278" type="curve" smooth="yes"/>
      <point x="263" y="278"/>
      <point x="228" y="295"/>
      <point x="192" y="324" type="curve"/>
      <point x="48" y="254" type="line"/>
      <point x="97" y="190"/>
      <point x="198" y="142"/>
    </contour>
    <contour>
      <point x="769" y="140" type="curve" smooth="yes"/>
      <point x="955" y="140"/>
      <point x="1077" y="229"/>
      <point x="1077" y="397" type="curve" smooth="yes"/>
      <point x="1077" y="532"/>
      <point x="981" y="656"/>
      <point x="810" y="656" type="curve" smooth="yes"/>
      <point x="740" y="656"/>
      <point x="694" y="641"/>
      <point x="667" y="623" type="curve"/>
      <point x="729" y="496" type="line"/>
      <point x="752" y="506"/>
      <point x="769" y="509"/>
      <point x="794" y="509" type="curve" smooth="yes"/>
      <point x="848" y="509"/>
      <point x="884" y="468"/>
      <point x="884" y="395" type="curve" smooth="yes"/>
      <point x="884" y="326"/>
      <point x="839" y="275"/>
      <point x="764" y="275" type="curve" smooth="yes"/>
      <point x="700" y="275"/>
      <point x="660" y="300"/>
      <point x="623" y="350" type="curve"/>
      <point x="544" y="218" type="line"/>
      <point x="576" y="191"/>
      <point x="636" y="140"/>
    </contour>
  </outline>
</glyph>
<glyph name="ha" format="2">
  <advance width="1119"/>
  <unicode hex="101F"/>
  <note>
ha
</note>
  <outline>
    <contour>
      <point x="362" y="140" type="curve" smooth="yes"/>
      <point x="538" y="140"/>
      <point x="641" y="232"/>
      <point x="641" y="392" type="curve" smooth="yes"/>
      <point x="641" y="536"/>
      <point x="587" y="607"/>
      <point x="490" y="656" type="curve"/>
      <point x="399" y="514" type="line"/>
      <point x="462" y="474"/>
      <point x="472" y="428"/>
      <point x="472" y="391" type="curve" smooth="yes"/>
      <point x="472" y="317"/>
      <point x="429" y="277"/>
      <point x="354" y="277" type="curve" smooth="yes"/>
      <point x="288" y="277"/>
      <point x="241" y="328"/>
      <point x="241" y="391" type="curve" smooth="yes"/>
      <point x="241" y="432"/>
      <point x="248" y="467"/>
      <point x="297" y="514" type="curve"/>
      <point x="205" y="656" type="line"/>
      <point x="112" y="611"/>
      <point x="48" y="529"/>
      <point x="48" y="392" type="curve" smooth="yes"/>
      <point x="48" y="239"/>
      <point x="166" y="140"/>
    </contour>
    <contour>
      <point x="798" y="140" type="curve" smooth="yes"/>
      <point x="990" y="140"/>
      <point x="1071" y="270"/>
      <point x="1071" y="399" type="curve" smooth="yes"/>
      <point x="1071" y="568"/>
      <point x="949" y="656"/>
      <point x="769" y="656" type="curve" smooth="yes"/>
      <point x="648" y="656"/>
      <point x="597" y="619"/>
      <point x="555" y="591" type="curve"/>
      <point x="633" y="450" type="line"/>
      <point x="642" y="480"/>
      <point x="681" y="521"/>
      <point x="765" y="521" type="curve" smooth="yes"/>
      <point x="833" y="521"/>
      <point x="878" y="465"/>
      <point x="878" y="401" type="curve" smooth="yes"/>
      <point x="878" y="328"/>
      <point x="843" y="287"/>
      <point x="788" y="287" type="curve" smooth="yes"/>
      <point x="763" y="287"/>
      <point x="746" y="289"/>
      <point x="723" y="300" type="curve"/>
      <point x="661" y="172" type="line"/>
      <point x="688" y="154"/>
      <point x="734" y="140"/>
    </contour>
  </outline>
</glyph>
<glyph name="lla" format="2">
  <advance width="719"/>
  <unicode hex="1020"/>
  <note>
lla
</note>
  <outline>
    <contour>
      <point x="269" y="-270" type="curve" smooth="yes"/>
      <point x="424" y="-270" type="line" smooth="yes"/>
      <point x="549" y="-270"/>
      <point x="613" y="-204"/>
      <point x="613" y="-66" type="curve" smooth="yes"/>
      <point x="613" y="-59" type="line"/>
      <point x="452" y="-59" type="line"/>
      <point x="452" y="-108" type="line" smooth="yes"/>
      <point x="452" y="-148"/>
      <point x="435" y="-163"/>
      <point x="394" y="-163" type="curve" smooth="yes"/>
      <point x="299" y="-163" type="line" smooth="yes"/>
      <point x="258" y="-163"/>
      <point x="235" y="-151"/>
      <point x="235" y="-100" type="curve" smooth="yes"/>
      <point x="235" y="89" type="line"/>
      <point x="275" y="81"/>
      <point x="318" y="81"/>
      <point x="357" y="81" type="curve" smooth="yes"/>
      <point x="451" y="81"/>
      <point x="540" y="100"/>
      <point x="608" y="128" type="curve"/>
      <point x="608" y="325" type="line"/>
      <point x="415" y="257" type="line"/>
      <point x="415" y="183" type="line"/>
      <point x="388" y="176"/>
      <point x="364" y="171"/>
      <point x="308" y="171" type="curve" smooth="yes"/>
      <point x="225" y="171"/>
      <point x="143" y="196"/>
      <point x="71" y="223" type="curve"/>
      <point x="71" y="-72" type="line" smooth="yes"/>
      <point x="71" y="-203"/>
      <point x="137" y="-270"/>
    </contour>
    <contour>
      <point x="322" y="214" type="curve" smooth="yes"/>
      <point x="392" y="214"/>
      <point x="445" y="226"/>
      <point x="607" y="325" type="curve"/>
      <point x="464" y="396" type="line"/>
      <point x="446" y="366"/>
      <point x="410" y="349"/>
      <point x="369" y="349" type="curve" smooth="yes"/>
      <point x="288" y="349"/>
      <point x="247" y="373"/>
      <point x="247" y="436" type="curve" smooth="yes"/>
      <point x="247" y="479"/>
      <point x="288" y="519"/>
      <point x="352" y="519" type="curve" smooth="yes"/>
      <point x="400" y="519"/>
      <point x="438" y="508"/>
      <point x="461" y="481" type="curve"/>
      <point x="589" y="558" type="line"/>
      <point x="557" y="612"/>
      <point x="471" y="656"/>
      <point x="353" y="656" type="curve" smooth="yes"/>
      <point x="178" y="656"/>
      <point x="54" y="576"/>
      <point x="54" y="442" type="curve" smooth="yes"/>
      <point x="54" y="307"/>
      <point x="157" y="214"/>
    </contour>
  </outline>
</glyph>
<glyph name="a_m" format="2">
  <advance width="1105"/>
  <unicode hex="1021"/>
  <note>
a_m
</note>
  <outline>
    <contour>
      <point x="348" y="140" type="curve" smooth="yes"/>
      <point x="534" y="140"/>
      <point x="612" y="199"/>
      <point x="612" y="287" type="curve" smooth="yes"/>
      <point x="612" y="368"/>
      <point x="536" y="396"/>
      <point x="445" y="403" type="curve"/>
      <point x="445" y="407" type="line"/>
      <point x="541" y="431"/>
      <point x="571" y="466"/>
      <point x="571" y="517" type="curve" smooth="yes"/>
      <point x="571" y="606"/>
      <point x="485" y="656"/>
      <point x="309" y="656" type="curve" smooth="yes"/>
      <point x="157" y="656"/>
      <point x="66" y="596"/>
      <point x="66" y="505" type="curve" smooth="yes"/>
      <point x="66" y="471"/>
      <point x="81" y="432"/>
      <point x="118" y="408" type="curve"/>
      <point x="243" y="472" type="line"/>
      <point x="231" y="481"/>
      <point x="225" y="486"/>
      <point x="225" y="499" type="curve" smooth="yes"/>
      <point x="225" y="523"/>
      <point x="263" y="534"/>
      <point x="318" y="534" type="curve" smooth="yes"/>
      <point x="357" y="534"/>
      <point x="401" y="529"/>
      <point x="401" y="504" type="curve" smooth="yes"/>
      <point x="401" y="474"/>
      <point x="359" y="469"/>
      <point x="313" y="469" type="curve" smooth="yes"/>
      <point x="287" y="469" type="line"/>
      <point x="287" y="352" type="line"/>
      <point x="321" y="352" type="line" smooth="yes"/>
      <point x="396" y="352"/>
      <point x="422" y="345"/>
      <point x="422" y="310" type="curve" smooth="yes"/>
      <point x="422" y="285"/>
      <point x="393" y="269"/>
      <point x="344" y="269" type="curve" smooth="yes"/>
      <point x="258" y="269"/>
      <point x="205" y="292"/>
      <point x="163" y="345" type="curve"/>
      <point x="31" y="278" type="line"/>
      <point x="81" y="188"/>
      <point x="193" y="140"/>
    </contour>
    <contour>
      <point x="774" y="140" type="curve" smooth="yes"/>
      <point x="939" y="140"/>
      <point x="1057" y="240"/>
      <point x="1057" y="397" type="curve" smooth="yes"/>
      <point x="1057" y="553"/>
      <point x="932" y="656"/>
      <point x="758" y="656" type="curve" smooth="yes"/>
      <point x="644" y="656"/>
      <point x="570" y="618"/>
      <point x="514" y="582" type="curve"/>
      <point x="541" y="454" type="line"/>
      <point x="588" y="489"/>
      <point x="648" y="519"/>
      <point x="755" y="519" type="curve" smooth="yes"/>
      <point x="875" y="519"/>
      <point x="918" y="451"/>
      <point x="918" y="377" type="curve" smooth="yes"/>
      <point x="918" y="299"/>
      <point x="870" y="246"/>
      <point x="765" y="246" type="curve" smooth="yes"/>
      <point x="752" y="246"/>
      <point x="734" y="246"/>
      <point x="719" y="246" type="curve"/>
      <point x="774" y="223" type="line"/>
      <point x="797" y="300"/>
      <point x="840" y="349"/>
      <point x="936" y="370" type="curve"/>
      <point x="928" y="464" type="line"/>
      <point x="742" y="429"/>
      <point x="667" y="333"/>
      <point x="662" y="155" type="curve"/>
      <point x="708" y="141"/>
      <point x="745" y="140"/>
    </contour>
  </outline>
</glyph>
<glyph name="i_m" format="2">
  <advance width="1100"/>
  <unicode hex="1023"/>
  <note>
i_m
</note>
  <outline>
    <contour>
      <point x="195" y="140" type="curve"/>
      <point x="287" y="282" type="line"/>
      <point x="245" y="330"/>
      <point x="241" y="364"/>
      <point x="241" y="405" type="curve" smooth="yes"/>
      <point x="241" y="469"/>
      <point x="281" y="519"/>
      <point x="345" y="519" type="curve" smooth="yes"/>
      <point x="415" y="519"/>
      <point x="453" y="473"/>
      <point x="453" y="388" type="curve" smooth="yes"/>
      <point x="453" y="259" type="line"/>
      <point x="648" y="259" type="line"/>
      <point x="648" y="388" type="line" smooth="yes"/>
      <point x="648" y="473"/>
      <point x="690" y="519"/>
      <point x="752" y="519" type="curve" smooth="yes"/>
      <point x="817" y="519"/>
      <point x="858" y="471"/>
      <point x="858" y="405" type="curve" smooth="yes"/>
      <point x="858" y="370"/>
      <point x="853" y="330"/>
      <point x="813" y="282" type="curve"/>
      <point x="904" y="140" type="line"/>
      <point x="988" y="183"/>
      <point x="1051" y="263"/>
      <point x="1051" y="404" type="curve" smooth="yes"/>
      <point x="1051" y="552"/>
      <point x="956" y="656"/>
      <point x="764" y="656" type="curve" smooth="yes"/>
      <point x="659" y="656"/>
      <point x="564" y="620"/>
      <point x="524" y="523" type="curve"/>
      <point x="576" y="523" type="line"/>
      <point x="549" y="620"/>
      <point x="456" y="656"/>
      <point x="347" y="656" type="curve" smooth="yes"/>
      <point x="160" y="656"/>
      <point x="48" y="556"/>
      <point x="48" y="404" type="curve" smooth="yes"/>
      <point x="48" y="267"/>
      <point x="109" y="185"/>
    </contour>
    <contour>
      <point x="805" y="-270" type="line"/>
      <point x="978" y="-270" type="line"/>
      <point x="978" y="-162" type="line"/>
      <point x="897" y="-162" type="line"/>
      <point x="910" y="-136"/>
      <point x="915" y="-117"/>
      <point x="915" y="-78" type="curve" smooth="yes"/>
      <point x="915" y="18"/>
      <point x="848" y="108"/>
      <point x="722" y="108" type="curve" smooth="yes"/>
      <point x="628" y="108"/>
      <point x="555" y="70"/>
      <point x="528" y="-24" type="curve"/>
      <point x="584" y="-28" type="line"/>
      <point x="547" y="71"/>
      <point x="474" y="108"/>
      <point x="392" y="108" type="curve" smooth="yes"/>
      <point x="262" y="108"/>
      <point x="180" y="20"/>
      <point x="180" y="-95" type="curve" smooth="yes"/>
      <point x="180" y="-193"/>
      <point x="225" y="-255"/>
      <point x="290" y="-285" type="curve"/>
      <point x="359" y="-175" type="line"/>
      <point x="335" y="-150"/>
      <point x="326" y="-121"/>
      <point x="326" y="-86" type="curve" smooth="yes"/>
      <point x="326" y="-37"/>
      <point x="355" y="4"/>
      <point x="402" y="4" type="curve" smooth="yes"/>
      <point x="453" y="4"/>
      <point x="475" y="-29"/>
      <point x="475" y="-82" type="curve" smooth="yes"/>
      <point x="475" y="-194" type="line"/>
      <point x="620" y="-194" type="line"/>
      <point x="620" y="-80" type="line" smooth="yes"/>
      <point x="620" y="-32"/>
      <point x="649" y="4"/>
      <point x="696" y="4" type="curve" smooth="yes"/>
      <point x="745" y="4"/>
      <point x="770" y="-28"/>
      <point x="770" y="-81" type="curve" smooth="yes"/>
      <point x="770" y="-106"/>
      <point x="760" y="-133"/>
      <point x="738" y="-160" type="curve"/>
    </contour>
  </outline>
</glyph>
<glyph name="ii" format="2">
  <advance width="1361"/>
  <unicode hex="1024"/>
  <note>
ii
</note>
  <outline>
    <contour>
      <point x="289" y="-270" type="curve" smooth="yes"/>
      <point x="735" y="-270" type="line" smooth="yes"/>
      <point x="896" y="-270"/>
      <point x="969" y="-204"/>
      <point x="969" y="-72" type="curve" smooth="yes"/>
      <point x="969" y="392" type="line" smooth="yes"/>
      <point x="969" y="536"/>
      <point x="885" y="656"/>
      <point x="726" y="656" type="curve" smooth="yes"/>
      <point x="631" y="656"/>
      <point x="577" y="616"/>
      <point x="546" y="583" type="curve"/>
      <point x="617" y="487" type="line"/>
      <point x="632" y="496"/>
      <point x="646" y="509"/>
      <point x="691" y="509" type="curve" smooth="yes"/>
      <point x="757" y="509"/>
      <point x="779" y="458"/>
      <point x="779" y="389" type="curve" smooth="yes"/>
      <point x="779" y="-81" type="line" smooth="yes"/>
      <point x="779" y="-108"/>
      <point x="769" y="-125"/>
      <point x="735" y="-125" type="curve" smooth="yes"/>
      <point x="289" y="-125" type="line" smooth="yes"/>
      <point x="256" y="-125"/>
      <point x="235" y="-111"/>
      <point x="235" y="-88" type="curve" smooth="yes"/>
      <point x="235" y="-55"/>
      <point x="270" y="-42"/>
      <point x="371" y="-42" type="curve" smooth="yes"/>
      <point x="493" y="-42"/>
      <point x="594" y="-50"/>
      <point x="664" y="-72" type="curve"/>
      <point x="751" y="41" type="line"/>
      <point x="653" y="87"/>
      <point x="526" y="104"/>
      <point x="371" y="104" type="curve" smooth="yes"/>
      <point x="148" y="104"/>
      <point x="43" y="32"/>
      <point x="43" y="-88" type="curve" smooth="yes"/>
      <point x="43" y="-187"/>
      <point x="105" y="-270"/>
    </contour>
    <contour>
      <point x="185" y="140" type="curve"/>
      <point x="277" y="282" type="line"/>
      <point x="237" y="329"/>
      <point x="231" y="364"/>
      <point x="231" y="405" type="curve" smooth="yes"/>
      <point x="231" y="461"/>
      <point x="267" y="519"/>
      <point x="335" y="519" type="curve" smooth="yes"/>
      <point x="406" y="519"/>
      <point x="442" y="473"/>
      <point x="442" y="405" type="curve" smooth="yes"/>
      <point x="442" y="368"/>
      <point x="436" y="329"/>
      <point x="396" y="282" type="curve"/>
      <point x="487" y="140" type="line"/>
      <point x="573" y="184"/>
      <point x="635" y="264"/>
      <point x="635" y="404" type="curve" smooth="yes"/>
      <point x="635" y="558"/>
      <point x="527" y="656"/>
      <point x="337" y="656" type="curve" smooth="yes"/>
      <point x="156" y="656"/>
      <point x="38" y="557"/>
      <point x="38" y="404" type="curve" smooth="yes"/>
      <point x="38" y="267"/>
      <point x="98" y="185"/>
    </contour>
    <contour>
      <point x="1107" y="-270" type="line"/>
      <point x="1300" y="-270" type="line"/>
      <point x="1300" y="394" type="line" smooth="yes"/>
      <point x="1300" y="595"/>
      <point x="1245" y="670"/>
      <point x="1089" y="816" type="curve" smooth="yes"/>
      <point x="1067" y="835"/>
      <point x="1047" y="856"/>
      <point x="1047" y="879" type="curve" smooth="yes"/>
      <point x="1047" y="900"/>
      <point x="1064" y="912"/>
      <point x="1084" y="912" type="curve" smooth="yes"/>
      <point x="1125" y="912"/>
      <point x="1141" y="883"/>
      <point x="1153" y="865" type="curve"/>
      <point x="1291" y="928" type="line"/>
      <point x="1264" y="998"/>
      <point x="1191" y="1053"/>
      <point x="1079" y="1053" type="curve" smooth="yes"/>
      <point x="948" y="1053"/>
      <point x="860" y="982"/>
      <point x="860" y="885" type="curve" smooth="yes"/>
      <point x="860" y="813"/>
      <point x="901" y="767"/>
      <point x="992" y="677" type="curve" smooth="yes"/>
      <point x="1076" y="594"/>
      <point x="1107" y="523"/>
      <point x="1107" y="397" type="curve" smooth="yes"/>
    </contour>
  </outline>
</glyph>
<glyph name="u_m" format="2">
  <advance width="685"/>
  <unicode hex="1025"/>
  <note>
u_m
</note>
  <outline>
    <contour>
      <point x="304" y="-270" type="curve" smooth="yes"/>
      <point x="409" y="-270" type="line" smooth="yes"/>
      <point x="548" y="-270"/>
      <point x="632" y="-216"/>
      <point x="632" y="-114" type="curve" smooth="yes"/>
      <point x="632" y="-25"/>
      <point x="549" y="36"/>
      <point x="450" y="36" type="curve" smooth="yes"/>
      <point x="372" y="36"/>
      <point x="328" y="24"/>
      <point x="291" y="8" type="curve"/>
      <point x="352" y="-97" type="line"/>
      <point x="374" y="-86"/>
      <point x="392" y="-80"/>
      <point x="421" y="-80" type="curve" smooth="yes"/>
      <point x="449" y="-80"/>
      <point x="460" y="-92"/>
      <point x="460" y="-101" type="curve" smooth="yes"/>
      <point x="460" y="-117"/>
      <point x="443" y="-126"/>
      <point x="411" y="-126" type="curve" smooth="yes"/>
      <point x="309" y="-126" type="line" smooth="yes"/>
      <point x="279" y="-126"/>
      <point x="269" y="-109"/>
      <point x="269" y="-81" type="curve" smooth="yes"/>
      <point x="269" y="160" type="line"/>
      <point x="79" y="253" type="line"/>
      <point x="79" y="-72" type="line" smooth="yes"/>
      <point x="79" y="-204"/>
      <point x="152" y="-270"/>
    </contour>
    <contour>
      <point x="364" y="140" type="curve" smooth="yes"/>
      <point x="529" y="140"/>
      <point x="632" y="253"/>
      <point x="632" y="397" type="curve" smooth="yes"/>
      <point x="632" y="549"/>
      <point x="508" y="656"/>
      <point x="333" y="656" type="curve" smooth="yes"/>
      <point x="215" y="656"/>
      <point x="129" y="612"/>
      <point x="97" y="558" type="curve"/>
      <point x="226" y="481" type="line"/>
      <point x="249" y="508"/>
      <point x="286" y="519"/>
      <point x="334" y="519" type="curve" smooth="yes"/>
      <point x="399" y="519"/>
      <point x="439" y="471"/>
      <point x="439" y="397" type="curve" smooth="yes"/>
      <point x="439" y="329"/>
      <point x="399" y="276"/>
      <point x="317" y="276" type="curve" smooth="yes"/>
      <point x="276" y="276"/>
      <point x="241" y="293"/>
      <point x="223" y="322" type="curve"/>
      <point x="79" y="253" type="line"/>
      <point x="210" y="149"/>
      <point x="278" y="140"/>
    </contour>
  </outline>
</glyph>
<glyph name="e_m" format="2">
  <advance width="724"/>
  <unicode hex="1027"/>
  <note>
e_m
</note>
  <outline>
    <contour>
      <point x="375" y="140" type="curve" smooth="yes"/>
      <point x="528" y="140"/>
      <point x="673" y="217"/>
      <point x="676" y="341" type="curve"/>
      <point x="607" y="366"/>
      <point x="520" y="380"/>
      <point x="389" y="380" type="curve" smooth="yes"/>
      <point x="322" y="380"/>
      <point x="271" y="373"/>
      <point x="241" y="364" type="curve"/>
      <point x="239" y="375"/>
      <point x="238" y="385"/>
      <point x="238" y="398" type="curve" smooth="yes"/>
      <point x="238" y="411"/>
      <point x="239" y="421"/>
      <point x="241" y="432" type="curve"/>
      <point x="271" y="423"/>
      <point x="332" y="415"/>
      <point x="389" y="415" type="curve" smooth="yes"/>
      <point x="520" y="415"/>
      <point x="607" y="430"/>
      <point x="676" y="456" type="curve"/>
      <point x="673" y="579"/>
      <point x="544" y="656"/>
      <point x="375" y="656" type="curve" smooth="yes"/>
      <point x="156" y="656"/>
      <point x="48" y="545"/>
      <point x="48" y="398" type="curve" smooth="yes"/>
      <point x="48" y="246"/>
      <point x="174" y="140"/>
    </contour>
    <contour>
      <point x="362" y="245" type="curve" smooth="yes"/>
      <point x="314" y="245"/>
      <point x="275" y="265"/>
      <point x="261" y="290" type="curve"/>
      <point x="279" y="296"/>
      <point x="335" y="298"/>
      <point x="366" y="298" type="curve" smooth="yes"/>
      <point x="405" y="298"/>
      <point x="416" y="297"/>
      <point x="462" y="290" type="curve"/>
      <point x="457" y="271"/>
      <point x="422" y="245"/>
    </contour>
    <contour>
      <point x="366" y="497" type="curve" smooth="yes"/>
      <point x="335" y="497"/>
      <point x="279" y="500"/>
      <point x="261" y="505" type="curve"/>
      <point x="275" y="531"/>
      <point x="314" y="550"/>
      <point x="362" y="550" type="curve" smooth="yes"/>
      <point x="422" y="550"/>
      <point x="457" y="526"/>
      <point x="462" y="505" type="curve"/>
      <point x="416" y="499"/>
      <point x="405" y="497"/>
    </contour>
  </outline>
</glyph>
<glyph name="e_mon" format="2">
  <advance width="814"/>
  <unicode hex="1028"/>
  <note>
e_mon
</note>
  <outline>
    <contour>
      <point x="405" y="-270" type="curve" smooth="yes"/>
      <point x="619" y="-270"/>
      <point x="730" y="-186"/>
      <point x="730" y="17" type="curve" smooth="yes"/>
      <point x="730" y="21" type="line"/>
      <point x="543" y="21" type="line"/>
      <point x="543" y="19" type="line" smooth="yes"/>
      <point x="543" y="-98"/>
      <point x="488" y="-127"/>
      <point x="406" y="-127" type="curve" smooth="yes"/>
      <point x="322" y="-127"/>
      <point x="266" y="-97"/>
      <point x="266" y="3" type="curve" smooth="yes"/>
      <point x="266" y="384" type="line" smooth="yes"/>
      <point x="266" y="481"/>
      <point x="330" y="514"/>
      <point x="414" y="514" type="curve" smooth="yes"/>
      <point x="501" y="514"/>
      <point x="555" y="458"/>
      <point x="555" y="375" type="curve" smooth="yes"/>
      <point x="555" y="324"/>
      <point x="535" y="252"/>
      <point x="478" y="252" type="curve" smooth="yes"/>
      <point x="455" y="252"/>
      <point x="452" y="264"/>
      <point x="452" y="271" type="curve" smooth="yes"/>
      <point x="452" y="283"/>
      <point x="465" y="293"/>
      <point x="486" y="308" type="curve" smooth="yes"/>
      <point x="504" y="323"/>
      <point x="514" y="342"/>
      <point x="514" y="372" type="curve" smooth="yes"/>
      <point x="514" y="427"/>
      <point x="469" y="469"/>
      <point x="396" y="469" type="curve" smooth="yes"/>
      <point x="356" y="469"/>
      <point x="309" y="454"/>
      <point x="293" y="432" type="curve"/>
      <point x="347" y="368" type="line"/>
      <point x="355" y="377"/>
      <point x="370" y="382"/>
      <point x="382" y="382" type="curve" smooth="yes"/>
      <point x="394" y="382"/>
      <point x="401" y="378"/>
      <point x="401" y="369" type="curve" smooth="yes"/>
      <point x="401" y="359"/>
      <point x="393" y="352"/>
      <point x="382" y="345" type="curve" smooth="yes"/>
      <point x="356" y="329"/>
      <point x="308" y="304"/>
      <point x="308" y="248" type="curve" smooth="yes"/>
      <point x="308" y="188"/>
      <point x="362" y="140"/>
      <point x="479" y="140" type="curve" smooth="yes"/>
      <point x="622" y="140"/>
      <point x="730" y="213"/>
      <point x="730" y="397" type="curve" smooth="yes"/>
      <point x="730" y="568"/>
      <point x="618" y="657"/>
      <point x="405" y="657" type="curve" smooth="yes"/>
      <point x="197" y="657"/>
      <point x="79" y="568"/>
      <point x="79" y="385" type="curve" smooth="yes"/>
      <point x="79" y="2" type="line" smooth="yes"/>
      <point x="79" y="-176"/>
      <point x="195" y="-270"/>
    </contour>
  </outline>
</glyph>
<glyph name="o_m" format="2">
  <advance width="1444"/>
  <unicode hex="1029"/>
  <note>
o_m
</note>
  <outline>
    <contour>
      <point x="294" y="-270" type="curve" smooth="yes"/>
      <point x="1171" y="-270" type="line" smooth="yes"/>
      <point x="1322" y="-270"/>
      <point x="1396" y="-204"/>
      <point x="1396" y="-69" type="curve" smooth="yes"/>
      <point x="1396" y="311" type="line"/>
      <point x="1256" y="311" type="line"/>
      <point x="1256" y="-81" type="line" smooth="yes"/>
      <point x="1256" y="-113"/>
      <point x="1245" y="-126"/>
      <point x="1205" y="-126" type="curve" smooth="yes"/>
      <point x="311" y="-126" type="line" smooth="yes"/>
      <point x="272" y="-126"/>
      <point x="259" y="-113"/>
      <point x="259" y="-81" type="curve" smooth="yes"/>
      <point x="259" y="864" type="line" smooth="yes"/>
      <point x="259" y="895"/>
      <point x="272" y="909"/>
      <point x="311" y="909" type="curve" smooth="yes"/>
      <point x="1205" y="909" type="line" smooth="yes"/>
      <point x="1245" y="909"/>
      <point x="1256" y="895"/>
      <point x="1256" y="864" type="curve" smooth="yes"/>
      <point x="1256" y="824" type="line"/>
      <point x="1396" y="824" type="line"/>
      <point x="1396" y="852" type="line" smooth="yes"/>
      <point x="1396" y="986"/>
      <point x="1322" y="1054"/>
      <point x="1171" y="1054" type="curve" smooth="yes"/>
      <point x="294" y="1054" type="line" smooth="yes"/>
      <point x="144" y="1054"/>
      <point x="69" y="986"/>
      <point x="69" y="852" type="curve" smooth="yes"/>
      <point x="69" y="-69" type="line" smooth="yes"/>
      <point x="69" y="-204"/>
      <point x="144" y="-270"/>
    </contour>
    <contour>
      <point x="652" y="142" type="curve" smooth="yes"/>
      <point x="836" y="142"/>
      <point x="964" y="239"/>
      <point x="964" y="395" type="curve" smooth="yes"/>
      <point x="964" y="553"/>
      <point x="833" y="656"/>
      <point x="652" y="656" type="curve" smooth="yes"/>
      <point x="547" y="656"/>
      <point x="446" y="618"/>
      <point x="401" y="556" type="curve"/>
      <point x="528" y="481" type="line"/>
      <point x="568" y="511"/>
      <point x="601" y="519"/>
      <point x="647" y="519" type="curve" smooth="yes"/>
      <point x="724" y="519"/>
      <point x="771" y="468"/>
      <point x="771" y="394" type="curve" smooth="yes"/>
      <point x="771" y="318"/>
      <point x="721" y="278"/>
      <point x="647" y="278" type="curve" smooth="yes"/>
      <point x="594" y="278"/>
      <point x="559" y="295"/>
      <point x="523" y="324" type="curve"/>
      <point x="379" y="254" type="line"/>
      <point x="428" y="190"/>
      <point x="529" y="142"/>
    </contour>
    <contour>
      <point x="1100" y="140" type="curve" smooth="yes"/>
      <point x="1286" y="140"/>
      <point x="1408" y="229"/>
      <point x="1408" y="397" type="curve" smooth="yes"/>
      <point x="1408" y="532"/>
      <point x="1312" y="656"/>
      <point x="1141" y="656" type="curve" smooth="yes"/>
      <point x="1071" y="656"/>
      <point x="1025" y="641"/>
      <point x="998" y="623" type="curve"/>
      <point x="1060" y="496" type="line"/>
      <point x="1083" y="506"/>
      <point x="1100" y="509"/>
      <point x="1125" y="509" type="curve" smooth="yes"/>
      <point x="1179" y="509"/>
      <point x="1215" y="468"/>
      <point x="1215" y="395" type="curve" smooth="yes"/>
      <point x="1215" y="326"/>
      <point x="1170" y="275"/>
      <point x="1095" y="275" type="curve" smooth="yes"/>
      <point x="1031" y="275"/>
      <point x="991" y="300"/>
      <point x="954" y="350" type="curve"/>
      <point x="875" y="218" type="line"/>
      <point x="907" y="191"/>
      <point x="967" y="140"/>
    </contour>
  </outline>
</glyph>
<glyph name="_tall_aa" format="2">
  <advance width="326"/>
  <unicode hex="102B"/>
  <note>
_tall_aa
</note>
  <outline>
    <contour>
      <point x="69" y="149" type="line"/>
      <point x="258" y="149" type="line"/>
      <point x="258" y="818" type="line" smooth="yes"/>
      <point x="258" y="965"/>
      <point x="148" y="1054"/>
      <point x="-47" y="1054" type="curve" smooth="yes"/>
      <point x="-243" y="1054"/>
      <point x="-348" y="962"/>
      <point x="-348" y="807" type="curve" smooth="yes"/>
      <point x="-348" y="793" type="line"/>
      <point x="-161" y="793" type="line"/>
      <point x="-161" y="804" type="line" smooth="yes"/>
      <point x="-161" y="892"/>
      <point x="-118" y="915"/>
      <point x="-46" y="915" type="curve" smooth="yes"/>
      <point x="33" y="915"/>
      <point x="69" y="890"/>
      <point x="69" y="810" type="curve" smooth="yes"/>
    </contour>
  </outline>
</glyph>
<glyph name="_aa" format="2">
  <advance width="456"/>
  <unicode hex="102C"/>
  <note>
_aa
</note>
  <outline>
    <contour>
      <point x="154" y="139" type="curve" smooth="yes"/>
      <point x="303" y="139"/>
      <point x="406" y="243"/>
      <point x="406" y="397" type="curve" smooth="yes"/>
      <point x="406" y="554"/>
      <point x="281" y="656"/>
      <point x="85" y="656" type="curve" smooth="yes"/>
      <point x="-38" y="656"/>
      <point x="-118" y="623"/>
      <point x="-175" y="586" type="curve"/>
      <point x="-93" y="458" type="line"/>
      <point x="-39" y="495"/>
      <point x="-3" y="512"/>
      <point x="73" y="512" type="curve" smooth="yes"/>
      <point x="152" y="512"/>
      <point x="213" y="476"/>
      <point x="213" y="399" type="curve" smooth="yes"/>
      <point x="213" y="333"/>
      <point x="186" y="287"/>
      <point x="139" y="287" type="curve" smooth="yes"/>
      <point x="116" y="287"/>
      <point x="94" y="292"/>
      <point x="73" y="299" type="curve"/>
      <point x="11" y="172" type="line"/>
      <point x="44" y="149"/>
      <point x="115" y="139"/>
    </contour>
  </outline>
</glyph>
<glyph name="_i" format="2">
  <unicode hex="102D"/>
  <note>
_i
</note>
  <outline>
    <contour>
      <point x="-319" y="711" type="curve" smooth="yes"/>
      <point x="-203" y="711"/>
      <point x="-120" y="779"/>
      <point x="-120" y="886" type="curve" smooth="yes"/>
      <point x="-120" y="985"/>
      <point x="-200" y="1053"/>
      <point x="-321" y="1053" type="curve" smooth="yes"/>
      <point x="-442" y="1053"/>
      <point x="-523" y="987"/>
      <point x="-523" y="883" type="curve" smooth="yes"/>
      <point x="-523" y="779"/>
      <point x="-439" y="711"/>
    </contour>
    <contour>
      <point x="-321" y="813" type="curve" smooth="yes"/>
      <point x="-361" y="813"/>
      <point x="-376" y="848"/>
      <point x="-376" y="884" type="curve" smooth="yes"/>
      <point x="-376" y="918"/>
      <point x="-360" y="952"/>
      <point x="-321" y="952" type="curve" smooth="yes"/>
      <point x="-282" y="952"/>
      <point x="-265" y="920"/>
      <point x="-265" y="887" type="curve" smooth="yes"/>
      <point x="-265" y="847"/>
      <point x="-280" y="813"/>
    </contour>
  </outline>
</glyph>
<glyph name="_ii" format="2">
  <unicode hex="102E"/>
  <note>
_ii
</note>
  <outline>
    <contour>
      <point x="-319" y="711" type="curve" smooth="yes"/>
      <point x="-204" y="711"/>
      <point x="-120" y="779"/>
      <point x="-120" y="885" type="curve" smooth="yes"/>
      <point x="-120" y="985"/>
      <point x="-199" y="1054"/>
      <point x="-321" y="1054" type="curve" smooth="yes"/>
      <point x="-438" y="1054"/>
      <point x="-523" y="988"/>
      <point x="-523" y="882" type="curve" smooth="yes"/>
      <point x="-523" y="778"/>
      <point x="-439" y="711"/>
    </contour>
    <contour>
      <point x="-319" y="797" type="curve" smooth="yes"/>
      <point x="-376" y="797"/>
      <point x="-396" y="816"/>
      <point x="-396" y="884" type="curve" smooth="yes"/>
      <point x="-396" y="930"/>
      <point x="-367" y="962"/>
      <point x="-322" y="962" type="curve" smooth="yes"/>
      <point x="-276" y="962"/>
      <point x="-247" y="932"/>
      <point x="-247" y="886" type="curve" smooth="yes"/>
      <point x="-247" y="819"/>
      <point x="-254" y="797"/>
    </contour>
    <contour>
      <point x="-397" y="832" type="line"/>
      <point x="-375" y="842"/>
      <point x="-348" y="846"/>
      <point x="-320" y="846" type="curve" smooth="yes"/>
      <point x="-292" y="846"/>
      <point x="-265" y="842"/>
      <point x="-243" y="832" type="curve"/>
      <point x="-232" y="874" type="line"/>
      <point x="-261" y="886"/>
      <point x="-292" y="892"/>
      <point x="-320" y="892" type="curve" smooth="yes"/>
      <point x="-348" y="892"/>
      <point x="-379" y="886"/>
      <point x="-408" y="874" type="curve"/>
    </contour>
  </outline>
</glyph>
<glyph name="_u" format="2">
  <unicode hex="102F"/>
  <note>
_u
</note>
  <outline>
    <contour>
      <point x="-365" y="-270" type="line"/>
      <point x="-139" y="-270" type="line"/>
      <point x="-139" y="-182" type="line"/>
      <point x="-265" y="-182" type="line"/>
      <point x="-265" y="107" type="line"/>
      <point x="-365" y="107" type="line"/>
    </contour>
  </outline>
</glyph>
<glyph name="_uu" format="2">
  <unicode hex="1030"/>
  <note>
_uu
</note>
  <outline>
    <contour>
      <point x="-247" y="-270" type="line"/>
      <point x="-26" y="-270" type="line"/>
      <point x="-26" y="-182" type="line"/>
      <point x="-147" y="-182" type="line"/>
      <point x="-147" y="107" type="line"/>
      <point x="-247" y="107" type="line"/>
    </contour>
    <contour>
      <point x="-416" y="-270" type="line"/>
      <point x="-316" y="-270" type="line"/>
      <point x="-316" y="107" type="line"/>
      <point x="-416" y="107" type="line"/>
    </contour>
  </outline>
</glyph>
<glyph name="_e" format="2">
  <advance width="737"/>
  <unicode hex="1031"/>
  <note>
_e
</note>
  <outline>
    <contour>
      <point x="379" y="140" type="curve" smooth="yes"/>
      <point x="558" y="140"/>
      <point x="674" y="226"/>
      <point x="688" y="366" type="curve"/>
      <point x="573" y="413"/>
      <point x="492" y="430"/>
      <point x="380" y="430" type="curve" smooth="yes"/>
      <point x="331" y="430"/>
      <point x="279" y="429"/>
      <point x="217" y="415" type="curve"/>
      <point x="236" y="308" type="line"/>
      <point x="282" y="321"/>
      <point x="331" y="325"/>
      <point x="365" y="325" type="curve" smooth="yes"/>
      <point x="399" y="325"/>
      <point x="455" y="319"/>
      <point x="513" y="299" type="curve"/>
      <point x="501" y="287"/>
      <point x="438" y="267"/>
      <point x="384" y="267" type="curve" smooth="yes"/>
      <point x="275" y="267"/>
      <point x="240" y="316"/>
      <point x="240" y="397" type="curve" smooth="yes"/>
      <point x="240" y="493"/>
      <point x="297" y="532"/>
      <point x="407" y="532" type="curve" smooth="yes"/>
      <point x="462" y="532"/>
      <point x="522" y="525"/>
      <point x="608" y="498" type="curve"/>
      <point x="655" y="617" type="line"/>
      <point x="565" y="647"/>
      <point x="497" y="656"/>
      <point x="407" y="656" type="curve" smooth="yes"/>
      <point x="171" y="656"/>
      <point x="47" y="570"/>
      <point x="47" y="397" type="curve" smooth="yes"/>
      <point x="47" y="221"/>
      <point x="192" y="140"/>
    </contour>
  </outline>
</glyph>
<glyph name="_ai" format="2">
  <unicode hex="1032"/>
  <note>
_ai
</note>
  <outline>
    <contour>
      <point x="-204" y="759" type="line"/>
      <point x="-110" y="862" type="line"/>
      <point x="-333" y="1009" type="line"/>
      <point x="-427" y="901" type="line"/>
    </contour>
  </outline>
</glyph>
<glyph name="_ii_mon" format="2">
  <unicode hex="1033"/>
  <note>
_ii_mon
</note>
  <outline>
    <contour>
      <point x="-328" y="711" type="curve" smooth="yes"/>
      <point x="-196" y="711"/>
      <point x="-107" y="784"/>
      <point x="-107" y="880" type="curve" smooth="yes"/>
      <point x="-107" y="979"/>
      <point x="-205" y="1054"/>
      <point x="-328" y="1054" type="curve" smooth="yes"/>
      <point x="-458" y="1054"/>
      <point x="-554" y="984"/>
      <point x="-554" y="880" type="curve" smooth="yes"/>
      <point x="-554" y="781"/>
      <point x="-466" y="711"/>
    </contour>
    <contour>
      <point x="-328" y="769" type="curve" smooth="yes"/>
      <point x="-415" y="769"/>
      <point x="-469" y="817"/>
      <point x="-469" y="882" type="curve" smooth="yes"/>
      <point x="-469" y="950"/>
      <point x="-404" y="996"/>
      <point x="-328" y="996" type="curve" smooth="yes"/>
      <point x="-256" y="996"/>
      <point x="-190" y="951"/>
      <point x="-190" y="882" type="curve" smooth="yes"/>
      <point x="-190" y="820"/>
      <point x="-247" y="769"/>
    </contour>
    <contour>
      <point x="-328" y="802" type="curve" smooth="yes"/>
      <point x="-275" y="802"/>
      <point x="-237" y="832"/>
      <point x="-237" y="882" type="curve" smooth="yes"/>
      <point x="-237" y="926"/>
      <point x="-276" y="963"/>
      <point x="-328" y="963" type="curve" smooth="yes"/>
      <point x="-379" y="963"/>
      <point x="-420" y="928"/>
      <point x="-420" y="882" type="curve" smooth="yes"/>
      <point x="-420" y="835"/>
      <point x="-385" y="802"/>
    </contour>
    <contour>
      <point x="-331" y="849" type="curve" smooth="yes"/>
      <point x="-354" y="849"/>
      <point x="-368" y="862"/>
      <point x="-368" y="882" type="curve" smooth="yes"/>
      <point x="-368" y="902"/>
      <point x="-354" y="914"/>
      <point x="-331" y="914" type="curve" smooth="yes"/>
      <point x="-308" y="914"/>
      <point x="-292" y="902"/>
      <point x="-292" y="882" type="curve" smooth="yes"/>
      <point x="-292" y="862"/>
      <point x="-307" y="849"/>
    </contour>
  </outline>
</glyph>
<glyph name="_o_mon" format="2">
  <unicode hex="1034"/>
  <note>
_o_mon
</note>
  <outline>
    <contour>
      <point x="-420" y="747" type="line"/>
      <point x="-182" y="900" type="line"/>
      <point x="-276" y="1007" type="line"/>
      <point x="-513" y="850" type="line"/>
    </contour>
  </outline>
</glyph>
<glyph name="_e_above" format="2">
  <unicode hex="1035"/>
  <note>
_e_above
</note>
  <outline>
    <contour>
      <point x="-324" y="711" type="curve" smooth="yes"/>
      <point x="-233" y="711"/>
      <point x="-156" y="751"/>
      <point x="-131" y="824" type="curve"/>
      <point x="-174" y="862"/>
      <point x="-240" y="891"/>
      <point x="-308" y="891" type="curve" smooth="yes"/>
      <point x="-349" y="891"/>
      <point x="-386" y="881"/>
      <point x="-407" y="870" type="curve"/>
      <point x="-394" y="819" type="line"/>
      <point x="-374" y="832"/>
      <point x="-351" y="840"/>
      <point x="-323" y="840" type="curve" smooth="yes"/>
      <point x="-299" y="840"/>
      <point x="-276" y="836"/>
      <point x="-262" y="824" type="curve"/>
      <point x="-272" y="808"/>
      <point x="-294" y="797"/>
      <point x="-324" y="797" type="curve" smooth="yes"/>
      <point x="-378" y="797"/>
      <point x="-395" y="820"/>
      <point x="-395" y="879" type="curve" smooth="yes"/>
      <point x="-395" y="927"/>
      <point x="-374" y="962"/>
      <point x="-322" y="962" type="curve" smooth="yes"/>
      <point x="-292" y="962"/>
      <point x="-259" y="952"/>
      <point x="-246" y="917" type="curve"/>
      <point x="-143" y="959" type="line"/>
      <point x="-174" y="1020"/>
      <point x="-234" y="1054"/>
      <point x="-330" y="1054" type="curve" smooth="yes"/>
      <point x="-451" y="1054"/>
      <point x="-523" y="974"/>
      <point x="-523" y="882" type="curve" smooth="yes"/>
      <point x="-523" y="782"/>
      <point x="-443" y="711"/>
    </contour>
  </outline>
</glyph>
<glyph name="anusvara" format="2">
  <unicode hex="1036"/>
  <note>
anusvara
</note>
  <outline>
    <contour>
      <point x="-329" y="694" type="curve" smooth="yes"/>
      <point x="-245" y="694"/>
      <point x="-186" y="736"/>
      <point x="-186" y="811" type="curve" smooth="yes"/>
      <point x="-186" y="873"/>
      <point x="-243" y="925"/>
      <point x="-329" y="925" type="curve" smooth="yes"/>
      <point x="-413" y="925"/>
      <point x="-469" y="881"/>
      <point x="-469" y="810" type="curve" smooth="yes"/>
      <point x="-469" y="737"/>
      <point x="-413" y="694"/>
    </contour>
    <contour>
      <point x="-326" y="772" type="curve" smooth="yes"/>
      <point x="-353" y="772"/>
      <point x="-365" y="787"/>
      <point x="-365" y="809" type="curve" smooth="yes"/>
      <point x="-365" y="833"/>
      <point x="-348" y="847"/>
      <point x="-326" y="847" type="curve" smooth="yes"/>
      <point x="-304" y="847"/>
      <point x="-288" y="835"/>
      <point x="-288" y="810" type="curve" smooth="yes"/>
      <point x="-288" y="788"/>
      <point x="-304" y="772"/>
    </contour>
  </outline>
</glyph>
<glyph name="visarga" format="2">
  <advance width="408"/>
  <unicode hex="1038"/>
  <note>
visarga
</note>
  <outline>
    <contour>
      <point x="201" y="405" type="curve" smooth="yes"/>
      <point x="286" y="405"/>
      <point x="345" y="446"/>
      <point x="345" y="521" type="curve" smooth="yes"/>
      <point x="345" y="583"/>
      <point x="288" y="635"/>
      <point x="201" y="635" type="curve" smooth="yes"/>
      <point x="118" y="635"/>
      <point x="62" y="591"/>
      <point x="62" y="520" type="curve" smooth="yes"/>
      <point x="62" y="447"/>
      <point x="118" y="405"/>
    </contour>
    <contour>
      <point x="201" y="142" type="curve" smooth="yes"/>
      <point x="286" y="142"/>
      <point x="345" y="183"/>
      <point x="345" y="258" type="curve" smooth="yes"/>
      <point x="345" y="320"/>
      <point x="288" y="373"/>
      <point x="201" y="373" type="curve" smooth="yes"/>
      <point x="118" y="373"/>
      <point x="62" y="328"/>
      <point x="62" y="257" type="curve" smooth="yes"/>
      <point x="62" y="184"/>
      <point x="118" y="142"/>
    </contour>
    <contour>
      <point x="204" y="219" type="curve" smooth="yes"/>
      <point x="177" y="219"/>
      <point x="165" y="235"/>
      <point x="165" y="256" type="curve" smooth="yes"/>
      <point x="165" y="280"/>
      <point x="182" y="295"/>
      <point x="204" y="295" type="curve" smooth="yes"/>
      <point x="226" y="295"/>
      <point x="242" y="282"/>
      <point x="242" y="257" type="curve" smooth="yes"/>
      <point x="242" y="235"/>
      <point x="226" y="219"/>
    </contour>
    <contour>
      <point x="204" y="482" type="curve" smooth="yes"/>
      <point x="177" y="482"/>
      <point x="165" y="497"/>
      <point x="165" y="519" type="curve" smooth="yes"/>
      <point x="165" y="543"/>
      <point x="182" y="558"/>
      <point x="204" y="558" type="curve" smooth="yes"/>
      <point x="226" y="558"/>
      <point x="242" y="545"/>
      <point x="242" y="520" type="curve" smooth="yes"/>
      <point x="242" y="498"/>
      <point x="226" y="482"/>
    </contour>
  </outline>
</glyph>
<glyph name="virama" format="2">
  <unicode hex="1039"/>
  <note>
virama
</note>
  <outline>
    <contour>
      <point x="-392" y="-257" type="line"/>
      <point x="-243" y="-257" type="line"/>
      <point x="-243" y="-152" type="line"/>
      <point x="-128" y="-152" type="line"/>
      <point x="-128" y="-45" type="line"/>
      <point x="-243" y="-45" type="line"/>
      <point x="-243" y="61" type="line"/>
      <point x="-392" y="61" type="line"/>
      <point x="-392" y="-45" type="line"/>
      <point x="-507" y="-45" type="line"/>
      <point x="-507" y="-152" type="line"/>
      <point x="-392" y="-152" type="line"/>
    </contour>
  </outline>
</glyph>
<glyph name="asat" format="2">
  <unicode hex="103A"/>
  <note>
asat
</note>
  <outline>
    <contour>
      <point x="-393" y="711" type="curve"/>
      <point x="-295" y="788" type="line"/>
      <point x="-345" y="822"/>
      <point x="-376" y="853"/>
      <point x="-376" y="893" type="curve" smooth="yes"/>
      <point x="-376" y="925"/>
      <point x="-350" y="952"/>
      <point x="-313" y="952" type="curve" smooth="yes"/>
      <point x="-281" y="952"/>
      <point x="-262" y="929"/>
      <point x="-256" y="921" type="curve"/>
      <point x="-155" y="970" type="line"/>
      <point x="-180" y="1023"/>
      <point x="-249" y="1054"/>
      <point x="-320" y="1054" type="curve" smooth="yes"/>
      <point x="-439" y="1054"/>
      <point x="-522" y="983"/>
      <point x="-522" y="897" type="curve" smooth="yes"/>
      <point x="-522" y="806"/>
      <point x="-473" y="768"/>
    </contour>
  </outline>
</glyph>
<glyph name="medial_ya" format="2">
  <advance width="302"/>
  <unicode hex="103B"/>
  <note>
medial_ya
</note>
  <outline>
    <contour>
      <point x="243" y="-270" type="line"/>
      <point x="243" y="659" type="line"/>
      <point x="58" y="659" type="line"/>
      <point x="58" y="-70" type="line"/>
      <point x="-97" y="-31" type="line"/>
      <point x="-97" y="371" type="line"/>
      <point x="-242" y="371" type="line"/>
      <point x="-242" y="-137" type="line"/>
    </contour>
  </outline>
</glyph>
<glyph name="medial_ra" format="2">
  <advance width="338"/>
  <unicode hex="103C"/>
  <note>
medial_ra
</note>
  <outline>
    <contour>
      <point x="294" y="-270" type="curve" smooth="yes"/>
      <point x="775" y="-270" type="line" smooth="yes"/>
      <point x="925" y="-270"/>
      <point x="999" y="-204"/>
      <point x="999" y="-69" type="curve" smooth="yes"/>
      <point x="999" y="310" type="line"/>
      <point x="858" y="310" type="line"/>
      <point x="858" y="-81" type="line" smooth="yes"/>
      <point x="858" y="-113"/>
      <point x="847" y="-126"/>
      <point x="807" y="-126" type="curve" smooth="yes"/>
      <point x="311" y="-126" type="line" smooth="yes"/>
      <point x="272" y="-126"/>
      <point x="259" y="-113"/>
      <point x="259" y="-81" type="curve" smooth="yes"/>
      <point x="259" y="864" type="line" smooth="yes"/>
      <point x="259" y="895"/>
      <point x="272" y="909"/>
      <point x="311" y="909" type="curve" smooth="yes"/>
      <point x="808" y="909" type="line" smooth="yes"/>
      <point x="848" y="909"/>
      <point x="859" y="895"/>
      <point x="859" y="864" type="curve" smooth="yes"/>
      <point x="859" y="824" type="line"/>
      <point x="999" y="824" type="line"/>
      <point x="999" y="852" type="line" smooth="yes"/>
      <point x="999" y="986"/>
      <point x="925" y="1054"/>
      <point x="775" y="1054" type="curve" smooth="yes"/>
      <point x="294" y="1054" type="line" smooth="yes"/>
      <point x="144" y="1054"/>
      <point x="69" y="986"/>
      <point x="69" y="852" type="curve" smooth="yes"/>
      <point x="69" y="-69" type="line" smooth="yes"/>
      <point x="69" y="-204"/>
      <point x="144" y="-270"/>
    </contour>
  </outline>
</glyph>
<glyph name="medial_wa" format="2">
  <unicode hex="103D"/>
  <note>
medial_wa
</note>
  <outline>
    <contour>
      <point x="-328" y="-257" type="curve" smooth="yes"/>
      <point x="-181" y="-257"/>
      <point x="-104" y="-182"/>
      <point x="-104" y="-72" type="curve" smooth="yes"/>
      <point x="-104" y="34"/>
      <point x="-182" y="108"/>
      <point x="-323" y="108" type="curve" smooth="yes"/>
      <point x="-464" y="108"/>
      <point x="-543" y="34"/>
      <point x="-543" y="-76" type="curve" smooth="yes"/>
      <point x="-543" y="-186"/>
      <point x="-459" y="-257"/>
    </contour>
    <contour>
      <point x="-323" y="-156" type="curve" smooth="yes"/>
      <point x="-374" y="-156"/>
      <point x="-396" y="-121"/>
      <point x="-396" y="-73" type="curve" smooth="yes"/>
      <point x="-396" y="-20"/>
      <point x="-371" y="7"/>
      <point x="-322" y="7" type="curve" smooth="yes"/>
      <point x="-274" y="7"/>
      <point x="-248" y="-24"/>
      <point x="-248" y="-72" type="curve" smooth="yes"/>
      <point x="-248" y="-120"/>
      <point x="-273" y="-156"/>
    </contour>
  </outline>
</glyph>
<glyph name="great_sa" format="2">
  <advance width="1504"/>
  <unicode hex="103F"/>
  <note>
great_sa
</note>
  <outline>
    <contour>
      <point x="311" y="142" type="curve" smooth="yes"/>
      <point x="493" y="142"/>
      <point x="613" y="239"/>
      <point x="613" y="395" type="curve" smooth="yes"/>
      <point x="613" y="553"/>
      <point x="490" y="656"/>
      <point x="311" y="656" type="curve" smooth="yes"/>
      <point x="216" y="656"/>
      <point x="115" y="618"/>
      <point x="70" y="556" type="curve"/>
      <point x="197" y="481" type="line"/>
      <point x="237" y="511"/>
      <point x="270" y="519"/>
      <point x="306" y="519" type="curve" smooth="yes"/>
      <point x="381" y="519"/>
      <point x="420" y="468"/>
      <point x="420" y="394" type="curve" smooth="yes"/>
      <point x="420" y="318"/>
      <point x="378" y="278"/>
      <point x="306" y="278" type="curve" smooth="yes"/>
      <point x="263" y="278"/>
      <point x="228" y="295"/>
      <point x="192" y="324" type="curve"/>
      <point x="48" y="254" type="line"/>
      <point x="97" y="190"/>
      <point x="198" y="142"/>
    </contour>
    <contour>
      <point x="726" y="140" type="curve" smooth="yes"/>
      <point x="916" y="140"/>
      <point x="1034" y="229"/>
      <point x="1034" y="397" type="curve" smooth="yes"/>
      <point x="1034" y="532"/>
      <point x="942" y="656"/>
      <point x="767" y="656" type="curve" smooth="yes"/>
      <point x="707" y="656"/>
      <point x="661" y="641"/>
      <point x="634" y="623" type="curve"/>
      <point x="697" y="496" type="line"/>
      <point x="719" y="506"/>
      <point x="737" y="509"/>
      <point x="751" y="509" type="curve" smooth="yes"/>
      <point x="810" y="509"/>
      <point x="841" y="468"/>
      <point x="841" y="395" type="curve" smooth="yes"/>
      <point x="841" y="326"/>
      <point x="801" y="275"/>
      <point x="721" y="275" type="curve" smooth="yes"/>
      <point x="668" y="275"/>
      <point x="627" y="300"/>
      <point x="590" y="350" type="curve"/>
      <point x="511" y="218" type="line"/>
      <point x="543" y="191"/>
      <point x="603" y="140"/>
    </contour>
    <contour>
      <point x="1148" y="140" type="curve" smooth="yes"/>
      <point x="1338" y="140"/>
      <point x="1456" y="229"/>
      <point x="1456" y="397" type="curve" smooth="yes"/>
      <point x="1456" y="532"/>
      <point x="1364" y="656"/>
      <point x="1189" y="656" type="curve" smooth="yes"/>
      <point x="1129" y="656"/>
      <point x="1083" y="641"/>
      <point x="1056" y="623" type="curve"/>
      <point x="1119" y="496" type="line"/>
      <point x="1141" y="506"/>
      <point x="1159" y="509"/>
      <point x="1173" y="509" type="curve" smooth="yes"/>
      <point x="1232" y="509"/>
      <point x="1263" y="468"/>
      <point x="1263" y="395" type="curve" smooth="yes"/>
      <point x="1263" y="326"/>
      <point x="1223" y="275"/>
      <point x="1143" y="275" type="curve" smooth="yes"/>
      <point x="1090" y="275"/>
      <point x="1049" y="300"/>
      <point x="1012" y="350" type="curve"/>
      <point x="933" y="218" type="line"/>
      <point x="965" y="191"/>
      <point x="1025" y="140"/>
    </contour>
  </outline>
</glyph>
<glyph name="zero_m" format="2">
  <advance width="735"/>
  <unicode hex="1040"/>
  <note>
zero_m
</note>
  <outline>
    <contour>
      <point x="371" y="140" type="curve" smooth="yes"/>
      <point x="556" y="140"/>
      <point x="687" y="244"/>
      <point x="687" y="397" type="curve" smooth="yes"/>
      <point x="687" y="547"/>
      <point x="559" y="656"/>
      <point x="369" y="656" type="curve" smooth="yes"/>
      <point x="183" y="656"/>
      <point x="48" y="555"/>
      <point x="48" y="397" type="curve" smooth="yes"/>
      <point x="48" y="241"/>
      <point x="183" y="140"/>
    </contour>
    <contour>
      <point x="367" y="276" type="curve" smooth="yes"/>
      <point x="286" y="276"/>
      <point x="241" y="329"/>
      <point x="241" y="399" type="curve" smooth="yes"/>
      <point x="241" y="469"/>
      <point x="291" y="519"/>
      <point x="367" y="519" type="curve" smooth="yes"/>
      <point x="439" y="519"/>
      <point x="495" y="476"/>
      <point x="495" y="399" type="curve" smooth="yes"/>
      <point x="495" y="326"/>
      <point x="446" y="276"/>
    </contour>
  </outline>
</glyph>
<glyph name="one_m" format="2">
  <advance width="736"/>
  <unicode hex="1041"/>
  <note>
one_m
</note>
  <outline>
    <contour>
      <point x="372" y="142" type="curve" smooth="yes"/>
      <point x="548" y="142"/>
      <point x="688" y="244"/>
      <point x="688" y="397" type="curve" smooth="yes"/>
      <point x="688" y="554"/>
      <point x="551" y="656"/>
      <point x="372" y="656" type="curve" smooth="yes"/>
      <point x="237" y="656"/>
      <point x="130" y="618"/>
      <point x="88" y="556" type="curve"/>
      <point x="215" y="481" type="line"/>
      <point x="260" y="511"/>
      <point x="300" y="519"/>
      <point x="367" y="519" type="curve" smooth="yes"/>
      <point x="442" y="519"/>
      <point x="495" y="469"/>
      <point x="495" y="397" type="curve" smooth="yes"/>
      <point x="495" y="319"/>
      <point x="439" y="278"/>
      <point x="368" y="278" type="curve" smooth="yes"/>
      <point x="294" y="278"/>
      <point x="252" y="295"/>
      <point x="210" y="324" type="curve"/>
      <point x="66" y="254" type="line"/>
      <point x="112" y="190"/>
      <point x="208" y="142"/>
    </contour>
  </outline>
</glyph>
<glyph name="two_m" format="2">
  <advance width="749"/>
  <unicode hex="1042"/>
  <note>
two_m
</note>
  <outline>
    <contour>
      <point x="368" y="-270" type="curve" smooth="yes"/>
      <point x="577" y="-270"/>
      <point x="689" y="-174"/>
      <point x="689" y="14" type="curve" smooth="yes"/>
      <point x="689" y="647" type="line"/>
      <point x="502" y="647" type="line"/>
      <point x="502" y="15" type="line" smooth="yes"/>
      <point x="502" y="-96"/>
      <point x="446" y="-129"/>
      <point x="362" y="-129" type="curve" smooth="yes"/>
      <point x="276" y="-129"/>
      <point x="225" y="-95"/>
      <point x="225" y="16" type="curve" smooth="yes"/>
      <point x="225" y="19" type="line"/>
      <point x="38" y="19" type="line"/>
      <point x="38" y="14" type="line" smooth="yes"/>
      <point x="38" y="-181"/>
      <point x="146" y="-270"/>
    </contour>
  </outline>
</glyph>
<glyph name="three_m" format="2">
  <advance width="708"/>
  <unicode hex="1043"/>
  <note>
three_m
</note>
  <outline>
    <contour>
      <point x="381" y="-270" type="line"/>
      <point x="573" y="-270" type="line"/>
      <point x="408" y="7" type="line" smooth="yes"/>
      <point x="383" y="49"/>
      <point x="332" y="115"/>
      <point x="274" y="191" type="curve"/>
      <point x="246" y="158" type="line"/>
      <point x="268" y="148"/>
      <point x="328" y="142"/>
      <point x="350" y="142" type="curve" smooth="yes"/>
      <point x="521" y="142"/>
      <point x="660" y="240"/>
      <point x="660" y="397" type="curve" smooth="yes"/>
      <point x="660" y="554"/>
      <point x="523" y="656"/>
      <point x="345" y="656" type="curve" smooth="yes"/>
      <point x="221" y="656"/>
      <point x="127" y="618"/>
      <point x="86" y="556" type="curve"/>
      <point x="213" y="481" type="line"/>
      <point x="250" y="510"/>
      <point x="286" y="519"/>
      <point x="342" y="519" type="curve" smooth="yes"/>
      <point x="414" y="519"/>
      <point x="467" y="469"/>
      <point x="467" y="397" type="curve" smooth="yes"/>
      <point x="467" y="319"/>
      <point x="411" y="278"/>
      <point x="333" y="278" type="curve" smooth="yes"/>
      <point x="296" y="278"/>
      <point x="240" y="293"/>
      <point x="210" y="322" type="curve"/>
      <point x="66" y="253" type="line"/>
    </contour>
  </outline>
</glyph>
<glyph name="four_m" format="2">
  <advance width="708"/>
  <unicode hex="1044"/>
  <note>
four_m
</note>
  <outline>
    <contour>
      <point x="136" y="-270" type="line"/>
      <point x="328" y="-270" type="line"/>
      <point x="642" y="253" type="line"/>
      <point x="499" y="322" type="line"/>
      <point x="469" y="293"/>
      <point x="413" y="278"/>
      <point x="376" y="278" type="curve" smooth="yes"/>
      <point x="297" y="278"/>
      <point x="241" y="319"/>
      <point x="241" y="397" type="curve" smooth="yes"/>
      <point x="241" y="469"/>
      <point x="294" y="519"/>
      <point x="367" y="519" type="curve" smooth="yes"/>
      <point x="423" y="519"/>
      <point x="459" y="510"/>
      <point x="496" y="481" type="curve"/>
      <point x="622" y="556" type="line"/>
      <point x="581" y="618"/>
      <point x="487" y="656"/>
      <point x="364" y="656" type="curve" smooth="yes"/>
      <point x="185" y="656"/>
      <point x="48" y="554"/>
      <point x="48" y="397" type="curve" smooth="yes"/>
      <point x="48" y="240"/>
      <point x="187" y="142"/>
      <point x="359" y="142" type="curve" smooth="yes"/>
      <point x="381" y="142"/>
      <point x="441" y="148"/>
      <point x="463" y="158" type="curve"/>
      <point x="434" y="191" type="line"/>
      <point x="376" y="115"/>
      <point x="325" y="49"/>
      <point x="301" y="7" type="curve" smooth="yes"/>
    </contour>
  </outline>
</glyph>
<glyph name="five_m" format="2">
  <advance width="812"/>
  <unicode hex="1045"/>
  <note>
five_m
</note>
  <outline>
    <contour>
      <point x="410" y="-270" type="curve" smooth="yes"/>
      <point x="619" y="-270"/>
      <point x="743" y="-176"/>
      <point x="743" y="17" type="curve" smooth="yes"/>
      <point x="743" y="377" type="line" smooth="yes"/>
      <point x="743" y="568"/>
      <point x="627" y="657"/>
      <point x="414" y="657" type="curve" smooth="yes"/>
      <point x="194" y="657"/>
      <point x="71" y="562"/>
      <point x="71" y="400" type="curve" smooth="yes"/>
      <point x="71" y="302"/>
      <point x="144" y="236"/>
      <point x="255" y="236" type="curve" smooth="yes"/>
      <point x="368" y="236"/>
      <point x="436" y="298"/>
      <point x="436" y="388" type="curve" smooth="yes"/>
      <point x="436" y="470"/>
      <point x="376" y="510"/>
      <point x="304" y="510" type="curve" smooth="yes"/>
      <point x="290" y="510"/>
      <point x="281" y="509"/>
      <point x="269" y="506" type="curve"/>
      <point x="287" y="521"/>
      <point x="335" y="531"/>
      <point x="393" y="531" type="curve" smooth="yes"/>
      <point x="493" y="531"/>
      <point x="556" y="469"/>
      <point x="556" y="376" type="curve" smooth="yes"/>
      <point x="556" y="19" type="line" smooth="yes"/>
      <point x="556" y="-96"/>
      <point x="493" y="-129"/>
      <point x="405" y="-129" type="curve" smooth="yes"/>
      <point x="322" y="-129"/>
      <point x="257" y="-95"/>
      <point x="257" y="16" type="curve" smooth="yes"/>
      <point x="257" y="19" type="line"/>
      <point x="70" y="19" type="line"/>
      <point x="70" y="14" type="line" smooth="yes"/>
      <point x="70" y="-181"/>
      <point x="181" y="-270"/>
    </contour>
    <contour>
      <point x="262" y="330" type="curve" smooth="yes"/>
      <point x="236" y="330"/>
      <point x="215" y="346"/>
      <point x="215" y="375" type="curve" smooth="yes"/>
      <point x="215" y="401"/>
      <point x="234" y="421"/>
      <point x="262" y="421" type="curve" smooth="yes"/>
      <point x="291" y="421"/>
      <point x="312" y="404"/>
      <point x="312" y="375" type="curve" smooth="yes"/>
      <point x="312" y="351"/>
      <point x="294" y="330"/>
    </contour>
  </outline>
</glyph>
<glyph name="six_m" format="2">
  <advance width="792"/>
  <unicode hex="1046"/>
  <note>
six_m
</note>
  <outline>
    <contour>
      <point x="390" y="140" type="curve" smooth="yes"/>
      <point x="584" y="140"/>
      <point x="707" y="223"/>
      <point x="707" y="367" type="curve" smooth="yes"/>
      <point x="707" y="444"/>
      <point x="673" y="498"/>
      <point x="581" y="498" type="curve" smooth="yes"/>
      <point x="539" y="498"/>
      <point x="525" y="487"/>
      <point x="481" y="487" type="curve" smooth="yes"/>
      <point x="458" y="487"/>
      <point x="439" y="497"/>
      <point x="439" y="519" type="curve" smooth="yes"/>
      <point x="439" y="537"/>
      <point x="453" y="548"/>
      <point x="469" y="548" type="curve" smooth="yes"/>
      <point x="489" y="548"/>
      <point x="498" y="540"/>
      <point x="510" y="528" type="curve"/>
      <point x="594" y="590" type="line"/>
      <point x="566" y="631"/>
      <point x="518" y="657"/>
      <point x="463" y="657" type="curve" smooth="yes"/>
      <point x="359" y="657"/>
      <point x="304" y="597"/>
      <point x="304" y="514" type="curve" smooth="yes"/>
      <point x="304" y="431"/>
      <point x="362" y="384"/>
      <point x="448" y="384" type="curve" smooth="yes"/>
      <point x="473" y="384"/>
      <point x="484" y="388"/>
      <point x="500" y="388" type="curve" smooth="yes"/>
      <point x="515" y="388"/>
      <point x="523" y="379"/>
      <point x="523" y="364" type="curve" smooth="yes"/>
      <point x="523" y="319"/>
      <point x="472" y="281"/>
      <point x="399" y="281" type="curve" smooth="yes"/>
      <point x="309" y="281"/>
      <point x="266" y="313"/>
      <point x="266" y="409" type="curve" smooth="yes"/>
      <point x="266" y="769" type="line" smooth="yes"/>
      <point x="266" y="875"/>
      <point x="317" y="912"/>
      <point x="393" y="912" type="curve" smooth="yes"/>
      <point x="468" y="912"/>
      <point x="519" y="880"/>
      <point x="519" y="766" type="curve" smooth="yes"/>
      <point x="519" y="765" type="line"/>
      <point x="707" y="765" type="line"/>
      <point x="707" y="769" type="line" smooth="yes"/>
      <point x="707" y="957"/>
      <point x="601" y="1054"/>
      <point x="390" y="1054" type="curve" smooth="yes"/>
      <point x="191" y="1054"/>
      <point x="79" y="957"/>
      <point x="79" y="769" type="curve" smooth="yes"/>
      <point x="79" y="412" type="line" smooth="yes"/>
      <point x="79" y="233"/>
      <point x="194" y="140"/>
    </contour>
  </outline>
</glyph>
<glyph name="seven_m" format="2">
  <advance width="651"/>
  <unicode hex="1047"/>
  <note>
seven_m
</note>
  <outline>
    <contour>
      <point x="382" y="-270" type="curve" smooth="yes"/>
      <point x="483" y="-270"/>
      <point x="562" y="-220"/>
      <point x="609" y="-133" type="curve"/>
      <point x="469" y="-49" type="line"/>
      <point x="445" y="-100"/>
      <point x="425" y="-127"/>
      <point x="395" y="-127" type="curve" smooth="yes"/>
      <point x="375" y="-127"/>
      <point x="361" y="-111"/>
      <point x="361" y="-83" type="curve" smooth="yes"/>
      <point x="361" y="-48"/>
      <point x="371" y="-15"/>
      <point x="469" y="117" type="curve" smooth="yes"/>
      <point x="574" y="258"/>
      <point x="605" y="328"/>
      <point x="605" y="397" type="curve" smooth="yes"/>
      <point x="605" y="552"/>
      <point x="500" y="656"/>
      <point x="339" y="656" type="curve" smooth="yes"/>
      <point x="145" y="656"/>
      <point x="42" y="520"/>
      <point x="42" y="378" type="curve" smooth="yes"/>
      <point x="42" y="231"/>
      <point x="133" y="175"/>
      <point x="190" y="149" type="curve"/>
      <point x="279" y="269" type="line"/>
      <point x="258" y="285"/>
      <point x="229" y="306"/>
      <point x="229" y="380" type="curve" smooth="yes"/>
      <point x="229" y="465"/>
      <point x="271" y="516"/>
      <point x="330" y="516" type="curve" smooth="yes"/>
      <point x="387" y="516"/>
      <point x="416" y="477"/>
      <point x="416" y="411" type="curve" smooth="yes"/>
      <point x="416" y="358"/>
      <point x="392" y="307"/>
      <point x="314" y="195" type="curve" smooth="yes"/>
      <point x="265" y="124"/>
      <point x="172" y="47"/>
      <point x="172" y="-83" type="curve" smooth="yes"/>
      <point x="172" y="-208"/>
      <point x="258" y="-270"/>
    </contour>
  </outline>
</glyph>
<glyph name="eight_m" format="2">
  <advance width="724"/>
  <unicode hex="1048"/>
  <note>
eight_m
</note>
  <outline>
    <contour>
      <point x="252" y="141" type="curve"/>
      <point x="309" y="201"/>
      <point x="355" y="271"/>
      <point x="355" y="382" type="curve" smooth="yes"/>
      <point x="355" y="417"/>
      <point x="351" y="474"/>
      <point x="323" y="543" type="curve"/>
      <point x="233" y="504" type="line"/>
      <point x="248" y="446"/>
      <point x="260" y="414"/>
      <point x="260" y="382" type="curve" smooth="yes"/>
      <point x="260" y="343"/>
      <point x="253" y="318"/>
      <point x="237" y="294" type="curve"/>
      <point x="201" y="331"/>
      <point x="198" y="362"/>
      <point x="198" y="400" type="curve" smooth="yes"/>
      <point x="198" y="464"/>
      <point x="262" y="519"/>
      <point x="348" y="519" type="curve" smooth="yes"/>
      <point x="442" y="519"/>
      <point x="483" y="478"/>
      <point x="483" y="405" type="curve" smooth="yes"/>
      <point x="483" y="368"/>
      <point x="477" y="329"/>
      <point x="426" y="282" type="curve"/>
      <point x="528" y="140" type="line"/>
      <point x="615" y="184"/>
      <point x="676" y="264"/>
      <point x="676" y="404" type="curve" smooth="yes"/>
      <point x="676" y="547"/>
      <point x="567" y="656"/>
      <point x="354" y="656" type="curve" smooth="yes"/>
      <point x="156" y="656"/>
      <point x="48" y="541"/>
      <point x="48" y="404" type="curve" smooth="yes"/>
      <point x="48" y="273"/>
      <point x="129" y="179"/>
    </contour>
  </outline>
</glyph>
<glyph name="nine_m" format="2">
  <advance width="792"/>
  <unicode hex="1049"/>
  <note>
nine_m
</note>
  <outline>
    <contour>
      <point x="390" y="-270" type="curve" smooth="yes"/>
      <point x="601" y="-270"/>
      <point x="707" y="-173"/>
      <point x="707" y="15" type="curve" smooth="yes"/>
      <point x="707" y="19" type="line"/>
      <point x="519" y="19" type="line"/>
      <point x="519" y="18" type="line" smooth="yes"/>
      <point x="519" y="-96"/>
      <point x="468" y="-128"/>
      <point x="393" y="-128" type="curve" smooth="yes"/>
      <point x="317" y="-128"/>
      <point x="266" y="-91"/>
      <point x="266" y="15" type="curve" smooth="yes"/>
      <point x="266" y="388" type="line" smooth="yes"/>
      <point x="266" y="484"/>
      <point x="309" y="515"/>
      <point x="399" y="515" type="curve" smooth="yes"/>
      <point x="472" y="515"/>
      <point x="523" y="478"/>
      <point x="523" y="433" type="curve" smooth="yes"/>
      <point x="523" y="418"/>
      <point x="515" y="410"/>
      <point x="500" y="410" type="curve" smooth="yes"/>
      <point x="484" y="410"/>
      <point x="474" y="413"/>
      <point x="448" y="413" type="curve" smooth="yes"/>
      <point x="362" y="413"/>
      <point x="304" y="366"/>
      <point x="304" y="282" type="curve" smooth="yes"/>
      <point x="304" y="199"/>
      <point x="359" y="140"/>
      <point x="463" y="140" type="curve" smooth="yes"/>
      <point x="518" y="140"/>
      <point x="566" y="165"/>
      <point x="594" y="207" type="curve"/>
      <point x="510" y="269" type="line"/>
      <point x="498" y="257"/>
      <point x="489" y="249"/>
      <point x="469" y="249" type="curve" smooth="yes"/>
      <point x="453" y="249"/>
      <point x="439" y="260"/>
      <point x="439" y="278" type="curve" smooth="yes"/>
      <point x="439" y="299"/>
      <point x="458" y="309"/>
      <point x="481" y="309" type="curve" smooth="yes"/>
      <point x="517" y="309"/>
      <point x="530" y="298"/>
      <point x="581" y="298" type="curve" smooth="yes"/>
      <point x="673" y="298"/>
      <point x="707" y="352"/>
      <point x="707" y="430" type="curve" smooth="yes"/>
      <point x="707" y="574"/>
      <point x="584" y="657"/>
      <point x="390" y="657" type="curve" smooth="yes"/>
      <point x="194" y="657"/>
      <point x="79" y="564"/>
      <point x="79" y="385" type="curve" smooth="yes"/>
      <point x="79" y="15" type="line" smooth="yes"/>
      <point x="79" y="-173"/>
      <point x="191" y="-270"/>
    </contour>
  </outline>
</glyph>
<glyph name="little_section" format="2">
  <advance width="329"/>
  <unicode hex="104A"/>
  <note>
little_section
</note>
  <outline>
    <contour>
      <point x="69" y="149" type="line"/>
      <point x="259" y="149" type="line"/>
      <point x="259" y="647" type="line"/>
      <point x="69" y="647" type="line"/>
    </contour>
  </outline>
</glyph>
<glyph name="locative" format="2">
  <advance width="690"/>
  <unicode hex="104C"/>
  <note>
locative
</note>
  <outline>
    <contour>
      <point x="294" y="-270" type="curve" smooth="yes"/>
      <point x="399" y="-270" type="line" smooth="yes"/>
      <point x="551" y="-270"/>
      <point x="624" y="-212"/>
      <point x="624" y="-98" type="curve" smooth="yes"/>
      <point x="624" y="149" type="line"/>
      <point x="552" y="122"/>
      <point x="471" y="97"/>
      <point x="388" y="97" type="curve" smooth="yes"/>
      <point x="333" y="97"/>
      <point x="308" y="99"/>
      <point x="281" y="104" type="curve"/>
      <point x="281" y="183" type="line"/>
      <point x="89" y="253" type="line"/>
      <point x="89" y="36" type="line"/>
      <point x="165" y="12"/>
      <point x="266" y="-3"/>
      <point x="370" y="-3" type="curve" smooth="yes"/>
      <point x="388" y="-3"/>
      <point x="414" y="-1"/>
      <point x="434" y="1" type="curve"/>
      <point x="434" y="-116" type="line" smooth="yes"/>
      <point x="434" y="-144"/>
      <point x="425" y="-160"/>
      <point x="394" y="-160" type="curve" smooth="yes"/>
      <point x="299" y="-160" type="line" smooth="yes"/>
      <point x="269" y="-160"/>
      <point x="250" y="-153"/>
      <point x="250" y="-137" type="curve" smooth="yes"/>
      <point x="250" y="-126"/>
      <point x="259" y="-118"/>
      <point x="280" y="-118" type="curve" smooth="yes"/>
      <point x="307" y="-118"/>
      <point x="323" y="-125"/>
      <point x="345" y="-135" type="curve"/>
      <point x="400" y="-63" type="line"/>
      <point x="369" y="-42"/>
      <point x="321" y="-25"/>
      <point x="256" y="-25" type="curve" smooth="yes"/>
      <point x="140" y="-25"/>
      <point x="83" y="-69"/>
      <point x="83" y="-143" type="curve" smooth="yes"/>
      <point x="83" y="-217"/>
      <point x="158" y="-270"/>
    </contour>
    <contour>
      <point x="374" y="140" type="curve" smooth="yes"/>
      <point x="539" y="140"/>
      <point x="642" y="253"/>
      <point x="642" y="397" type="curve" smooth="yes"/>
      <point x="642" y="549"/>
      <point x="518" y="656"/>
      <point x="343" y="656" type="curve" smooth="yes"/>
      <point x="225" y="656"/>
      <point x="139" y="612"/>
      <point x="107" y="558" type="curve"/>
      <point x="236" y="481" type="line"/>
      <point x="259" y="508"/>
      <point x="296" y="519"/>
      <point x="344" y="519" type="curve" smooth="yes"/>
      <point x="409" y="519"/>
      <point x="449" y="471"/>
      <point x="449" y="397" type="curve" smooth="yes"/>
      <point x="449" y="329"/>
      <point x="409" y="276"/>
      <point x="327" y="276" type="curve" smooth="yes"/>
      <point x="286" y="276"/>
      <point x="251" y="293"/>
      <point x="233" y="322" type="curve"/>
      <point x="89" y="253" type="line"/>
      <point x="228" y="156"/>
      <point x="264" y="140"/>
    </contour>
    <component base="asat" xOffset="768"/>
  </outline>
</glyph>
<glyph name="completed" format="2">
  <advance width="1060"/>
  <unicode hex="104D"/>
  <note>
completed
</note>
  <outline>
    <contour>
      <point x="261" y="-270" type="curve" smooth="yes"/>
      <point x="775" y="-270" type="line" smooth="yes"/>
      <point x="927" y="-270"/>
      <point x="1000" y="-207"/>
      <point x="1000" y="-72" type="curve" smooth="yes"/>
      <point x="1000" y="394" type="line" smooth="yes"/>
      <point x="1000" y="595"/>
      <point x="945" y="670"/>
      <point x="788" y="815" type="curve" smooth="yes"/>
      <point x="766" y="835"/>
      <point x="746" y="856"/>
      <point x="746" y="879" type="curve" smooth="yes"/>
      <point x="746" y="901"/>
      <point x="763" y="912"/>
      <point x="784" y="912" type="curve" smooth="yes"/>
      <point x="824" y="912"/>
      <point x="840" y="883"/>
      <point x="853" y="865" type="curve"/>
      <point x="991" y="928" type="line"/>
      <point x="964" y="998"/>
      <point x="891" y="1053"/>
      <point x="779" y="1053" type="curve" smooth="yes"/>
      <point x="647" y="1053"/>
      <point x="559" y="982"/>
      <point x="559" y="885" type="curve" smooth="yes"/>
      <point x="559" y="813"/>
      <point x="601" y="767"/>
      <point x="691" y="677" type="curve" smooth="yes"/>
      <point x="775" y="594"/>
      <point x="807" y="523"/>
      <point x="807" y="397" type="curve" smooth="yes"/>
      <point x="807" y="-81" type="line" smooth="yes"/>
      <point x="807" y="-109"/>
      <point x="797" y="-126"/>
      <point x="766" y="-126" type="curve" smooth="yes"/>
      <point x="259" y="-126" type="line" smooth="yes"/>
      <point x="227" y="-126"/>
      <point x="211" y="-117"/>
      <point x="211" y="-101" type="curve" smooth="yes"/>
      <point x="211" y="-92"/>
      <point x="221" y="-80"/>
      <point x="249" y="-80" type="curve" smooth="yes"/>
      <point x="279" y="-80"/>
      <point x="297" y="-86"/>
      <point x="319" y="-97" type="curve"/>
      <point x="379" y="8" type="line"/>
      <point x="342" y="24"/>
      <point x="298" y="36"/>
      <point x="220" y="36" type="curve" smooth="yes"/>
      <point x="121" y="36"/>
      <point x="38" y="-25"/>
      <point x="38" y="-114" type="curve" smooth="yes"/>
      <point x="38" y="-216"/>
      <point x="122" y="-270"/>
    </contour>
    <contour>
      <point x="478" y="33" type="line"/>
      <point x="668" y="33" type="line"/>
      <point x="668" y="375" type="line" smooth="yes"/>
      <point x="668" y="532"/>
      <point x="562" y="656"/>
      <point x="337" y="656" type="curve" smooth="yes"/>
      <point x="163" y="656"/>
      <point x="38" y="553"/>
      <point x="38" y="397" type="curve" smooth="yes"/>
      <point x="38" y="240"/>
      <point x="161" y="140"/>
      <point x="334" y="140" type="curve" smooth="yes"/>
      <point x="363" y="140"/>
      <point x="400" y="141"/>
      <point x="446" y="155" type="curve"/>
      <point x="441" y="333"/>
      <point x="373" y="435"/>
      <point x="179" y="470" type="curve"/>
      <point x="160" y="370" type="line"/>
      <point x="263" y="349"/>
      <point x="310" y="300"/>
      <point x="334" y="222" type="curve"/>
      <point x="376" y="246" type="line"/>
      <point x="361" y="246"/>
      <point x="343" y="246"/>
      <point x="330" y="246" type="curve" smooth="yes"/>
      <point x="225" y="246"/>
      <point x="170" y="299"/>
      <point x="170" y="378" type="curve" smooth="yes"/>
      <point x="170" y="453"/>
      <point x="220" y="519"/>
      <point x="325" y="519" type="curve" smooth="yes"/>
      <point x="435" y="519"/>
      <point x="478" y="455"/>
      <point x="478" y="363" type="curve" smooth="yes"/>
    </contour>
  </outline>
</glyph>
<glyph name="aforementioned" format="2">
  <advance width="671"/>
  <unicode hex="104E"/>
  <note>
aforementioned
</note>
  <outline>
    <contour>
      <point x="350" y="142" type="curve" smooth="yes"/>
      <point x="475" y="142"/>
      <point x="562" y="190"/>
      <point x="601" y="253" type="curve"/>
      <point x="460" y="324" type="line"/>
      <point x="436" y="295"/>
      <point x="412" y="278"/>
      <point x="355" y="278" type="curve" smooth="yes"/>
      <point x="296" y="278"/>
      <point x="241" y="319"/>
      <point x="241" y="397" type="curve" smooth="yes"/>
      <point x="241" y="468"/>
      <point x="280" y="519"/>
      <point x="356" y="519" type="curve" smooth="yes"/>
      <point x="407" y="519"/>
      <point x="431" y="503"/>
      <point x="455" y="481" type="curve"/>
      <point x="581" y="556" type="line"/>
      <point x="546" y="613"/>
      <point x="456" y="656"/>
      <point x="350" y="656" type="curve" smooth="yes"/>
      <point x="169" y="656"/>
      <point x="48" y="553"/>
      <point x="48" y="397" type="curve" smooth="yes"/>
      <point x="48" y="244"/>
      <point x="167" y="142"/>
    </contour>
    <contour>
      <point x="411" y="-270" type="line"/>
      <point x="601" y="-270" type="line"/>
      <point x="601" y="253" type="line"/>
      <point x="411" y="154" type="line"/>
    </contour>
  </outline>
</glyph>
<glyph name="genitive" format="2">
  <advance width="1399"/>
  <unicode hex="104F"/>
  <note>
genitive
</note>
  <outline>
    <contour>
      <point x="1148" y="149" type="line"/>
      <point x="1338" y="149" type="line"/>
      <point x="1338" y="381" type="line" smooth="yes"/>
      <point x="1338" y="553"/>
      <point x="1296" y="635"/>
      <point x="1179" y="762" type="curve" smooth="yes"/>
      <point x="1128" y="818"/>
      <point x="1110" y="848"/>
      <point x="1110" y="873" type="curve" smooth="yes"/>
      <point x="1110" y="898"/>
      <point x="1128" y="912"/>
      <point x="1151" y="912" type="curve" smooth="yes"/>
      <point x="1188" y="912"/>
      <point x="1204" y="883"/>
      <point x="1233" y="834" type="curve"/>
      <point x="1371" y="901" type="line"/>
      <point x="1325" y="1005"/>
      <point x="1250" y="1054"/>
      <point x="1145" y="1054" type="curve" smooth="yes"/>
      <point x="1008" y="1054"/>
      <point x="923" y="979"/>
      <point x="923" y="876" type="curve" smooth="yes"/>
      <point x="923" y="811"/>
      <point x="950" y="762"/>
      <point x="1035" y="669" type="curve" smooth="yes"/>
      <point x="1115" y="582"/>
      <point x="1148" y="488"/>
      <point x="1148" y="373" type="curve" smooth="yes"/>
    </contour>
    <contour>
      <point x="817" y="149" type="line"/>
      <point x="1007" y="149" type="line"/>
      <point x="1007" y="374" type="line" smooth="yes"/>
      <point x="1007" y="548"/>
      <point x="916" y="656"/>
      <point x="757" y="656" type="curve" smooth="yes"/>
      <point x="675" y="656"/>
      <point x="613" y="619"/>
      <point x="584" y="586" type="curve"/>
      <point x="666" y="456" type="line"/>
      <point x="667" y="474"/>
      <point x="693" y="509"/>
      <point x="738" y="509" type="curve" smooth="yes"/>
      <point x="799" y="509"/>
      <point x="817" y="455"/>
      <point x="817" y="361" type="curve" smooth="yes"/>
    </contour>
    <component base="e_m" xOffset="-10"/>
  </outline>
</glyph>
<glyph name="sha_skt" format="2">
  <advance width="723"/>
  <unicode hex="1050"/>
  <note>
sha_skt
</note>
  <outline>
    <contour>
      <point x="360" y="324" type="curve" smooth="yes"/>
      <point x="398" y="324"/>
      <point x="435" y="344"/>
      <point x="435" y="397" type="curve" smooth="yes"/>
      <point x="435" y="449"/>
      <point x="399" y="469"/>
      <point x="360" y="469" type="curve" smooth="yes"/>
      <point x="324" y="469"/>
      <point x="286" y="451"/>
      <point x="286" y="397" type="curve" smooth="yes"/>
      <point x="286" y="344"/>
      <point x="325" y="324"/>
    </contour>
    <component base="ga"/>
  </outline>
</glyph>
<glyph name="ssa_skt" format="2">
  <advance width="732"/>
  <unicode hex="1051"/>
  <note>
ssa_skt
</note>
  <outline>
    <contour>
      <point x="366" y="140" type="curve" smooth="yes"/>
      <point x="570" y="140"/>
      <point x="683" y="242"/>
      <point x="683" y="392" type="curve" smooth="yes"/>
      <point x="683" y="532"/>
      <point x="616" y="614"/>
      <point x="528" y="656" type="curve"/>
      <point x="436" y="514" type="line"/>
      <point x="483" y="467"/>
      <point x="491" y="426"/>
      <point x="491" y="390" type="curve" smooth="yes"/>
      <point x="491" y="321"/>
      <point x="438" y="276"/>
      <point x="364" y="276" type="curve" smooth="yes"/>
      <point x="292" y="276"/>
      <point x="241" y="327"/>
      <point x="241" y="390" type="curve" smooth="yes"/>
      <point x="241" y="431"/>
      <point x="250" y="467"/>
      <point x="300" y="514" type="curve"/>
      <point x="208" y="656" type="line"/>
      <point x="118" y="615"/>
      <point x="48" y="531"/>
      <point x="48" y="392" type="curve" smooth="yes"/>
      <point x="48" y="241"/>
      <point x="165" y="140"/>
    </contour>
    <contour>
      <point x="366" y="329" type="curve" smooth="yes"/>
      <point x="406" y="329"/>
      <point x="441" y="349"/>
      <point x="441" y="402" type="curve" smooth="yes"/>
      <point x="441" y="454"/>
      <point x="405" y="474"/>
      <point x="366" y="474" type="curve" smooth="yes"/>
      <point x="330" y="474"/>
      <point x="292" y="454"/>
      <point x="292" y="402" type="curve" smooth="yes"/>
      <point x="292" y="350"/>
      <point x="331" y="329"/>
    </contour>
  </outline>
</glyph>
<glyph name="vocR_skt" format="2">
  <advance width="740"/>
  <unicode hex="1052"/>
  <note>
vocR_skt
</note>
  <outline>
    <contour>
      <point x="365" y="140" type="curve" smooth="yes"/>
      <point x="554" y="140"/>
      <point x="656" y="219"/>
      <point x="656" y="323" type="curve" smooth="yes"/>
      <point x="656" y="373"/>
      <point x="629" y="410"/>
      <point x="582" y="449" type="curve" smooth="yes"/>
      <point x="535" y="487"/>
      <point x="506" y="502"/>
      <point x="506" y="522" type="curve" smooth="yes"/>
      <point x="506" y="529"/>
      <point x="511" y="537"/>
      <point x="527" y="537" type="curve" smooth="yes"/>
      <point x="555" y="537"/>
      <point x="586" y="514"/>
      <point x="602" y="494" type="curve"/>
      <point x="681" y="567" type="line"/>
      <point x="646" y="625"/>
      <point x="569" y="657"/>
      <point x="502" y="657" type="curve" smooth="yes"/>
      <point x="396" y="657"/>
      <point x="339" y="604"/>
      <point x="339" y="529" type="curve" smooth="yes"/>
      <point x="339" y="472"/>
      <point x="377" y="429"/>
      <point x="420" y="398" type="curve" smooth="yes"/>
      <point x="455" y="374"/>
      <point x="464" y="358"/>
      <point x="464" y="336" type="curve" smooth="yes"/>
      <point x="464" y="300"/>
      <point x="415" y="276"/>
      <point x="356" y="276" type="curve" smooth="yes"/>
      <point x="274" y="276"/>
      <point x="216" y="317"/>
      <point x="216" y="390" type="curve" smooth="yes"/>
      <point x="216" y="445"/>
      <point x="245" y="486"/>
      <point x="299" y="514" type="curve"/>
      <point x="207" y="656" type="line"/>
      <point x="116" y="602"/>
      <point x="48" y="531"/>
      <point x="48" y="401" type="curve" smooth="yes"/>
      <point x="48" y="239"/>
      <point x="171" y="140"/>
    </contour>
  </outline>
</glyph>
<glyph name="vocRR_skt" format="2">
  <advance width="715"/>
  <unicode hex="1053"/>
  <note>
vocRR_skt
</note>
  <outline>
    <contour>
      <point x="354" y="140" type="curve" smooth="yes"/>
      <point x="554" y="140"/>
      <point x="656" y="219"/>
      <point x="656" y="323" type="curve" smooth="yes"/>
      <point x="656" y="373"/>
      <point x="629" y="410"/>
      <point x="589" y="448" type="curve" smooth="yes"/>
      <point x="547" y="487"/>
      <point x="527" y="502"/>
      <point x="527" y="522" type="curve" smooth="yes"/>
      <point x="527" y="529"/>
      <point x="532" y="537"/>
      <point x="548" y="537" type="curve" smooth="yes"/>
      <point x="568" y="537"/>
      <point x="590" y="514"/>
      <point x="602" y="494" type="curve"/>
      <point x="681" y="567" type="line"/>
      <point x="650" y="625"/>
      <point x="592" y="657"/>
      <point x="521" y="657" type="curve" smooth="yes"/>
      <point x="412" y="657"/>
      <point x="369" y="603"/>
      <point x="369" y="529" type="curve" smooth="yes"/>
      <point x="369" y="472"/>
      <point x="388" y="438"/>
      <point x="422" y="405" type="curve" smooth="yes"/>
      <point x="453" y="375"/>
      <point x="464" y="358"/>
      <point x="464" y="336" type="curve" smooth="yes"/>
      <point x="464" y="301"/>
      <point x="424" y="276"/>
      <point x="354" y="276" type="curve" smooth="yes"/>
      <point x="285" y="276"/>
      <point x="245" y="301"/>
      <point x="245" y="336" type="curve" smooth="yes"/>
      <point x="245" y="358"/>
      <point x="256" y="375"/>
      <point x="288" y="405" type="curve" smooth="yes"/>
      <point x="321" y="438"/>
      <point x="340" y="472"/>
      <point x="340" y="529" type="curve" smooth="yes"/>
      <point x="340" y="603"/>
      <point x="297" y="657"/>
      <point x="188" y="657" type="curve" smooth="yes"/>
      <point x="117" y="657"/>
      <point x="59" y="625"/>
      <point x="28" y="567" type="curve"/>
      <point x="107" y="494" type="line"/>
      <point x="119" y="514"/>
      <point x="141" y="537"/>
      <point x="161" y="537" type="curve" smooth="yes"/>
      <point x="177" y="537"/>
      <point x="182" y="529"/>
      <point x="182" y="522" type="curve" smooth="yes"/>
      <point x="182" y="502"/>
      <point x="162" y="487"/>
      <point x="120" y="448" type="curve" smooth="yes"/>
      <point x="80" y="410"/>
      <point x="53" y="373"/>
      <point x="53" y="323" type="curve" smooth="yes"/>
      <point x="53" y="219"/>
      <point x="155" y="140"/>
    </contour>
  </outline>
</glyph>
<glyph name="vocL_skt" format="2">
  <advance width="737"/>
  <unicode hex="1054"/>
  <note>
vocL_skt
</note>
  <outline>
    <contour>
      <point x="408" y="140" type="curve" smooth="yes"/>
      <point x="498" y="140"/>
      <point x="566" y="149"/>
      <point x="656" y="179" type="curve"/>
      <point x="609" y="298" type="line"/>
      <point x="524" y="271"/>
      <point x="463" y="264"/>
      <point x="408" y="264" type="curve" smooth="yes"/>
      <point x="298" y="264"/>
      <point x="241" y="303"/>
      <point x="241" y="399" type="curve" smooth="yes"/>
      <point x="241" y="481"/>
      <point x="276" y="530"/>
      <point x="385" y="530" type="curve" smooth="yes"/>
      <point x="439" y="530"/>
      <point x="502" y="510"/>
      <point x="514" y="496" type="curve"/>
      <point x="456" y="477"/>
      <point x="400" y="470"/>
      <point x="367" y="470" type="curve" smooth="yes"/>
      <point x="332" y="470"/>
      <point x="283" y="475"/>
      <point x="237" y="488" type="curve"/>
      <point x="218" y="380" type="line"/>
      <point x="280" y="367"/>
      <point x="332" y="366"/>
      <point x="381" y="366" type="curve" smooth="yes"/>
      <point x="493" y="366"/>
      <point x="574" y="384"/>
      <point x="689" y="431" type="curve"/>
      <point x="675" y="569"/>
      <point x="559" y="656"/>
      <point x="380" y="656" type="curve" smooth="yes"/>
      <point x="193" y="656"/>
      <point x="48" y="576"/>
      <point x="48" y="398" type="curve" smooth="yes"/>
      <point x="48" y="226"/>
      <point x="172" y="140"/>
    </contour>
  </outline>
</glyph>
<glyph name="vocLL_skt" format="2">
  <advance width="737"/>
  <unicode hex="1055"/>
  <note>
vocLL_skt
</note>
  <outline>
    <contour>
      <point x="254" y="142" type="curve" smooth="yes"/>
      <point x="335" y="142"/>
      <point x="386" y="168"/>
      <point x="394" y="203" type="curve"/>
      <point x="373" y="200" type="line"/>
      <point x="379" y="188"/>
      <point x="418" y="142"/>
      <point x="516" y="142" type="curve" smooth="yes"/>
      <point x="642" y="142"/>
      <point x="676" y="221"/>
      <point x="676" y="299" type="curve"/>
      <point x="513" y="325" type="line"/>
      <point x="513" y="303"/>
      <point x="509" y="287"/>
      <point x="481" y="287" type="curve" smooth="yes"/>
      <point x="460" y="287"/>
      <point x="450" y="298"/>
      <point x="450" y="319" type="curve" smooth="yes"/>
      <point x="450" y="325" type="line"/>
      <point x="312" y="325" type="line"/>
      <point x="312" y="319" type="line" smooth="yes"/>
      <point x="312" y="298"/>
      <point x="299" y="287"/>
      <point x="282" y="287" type="curve" smooth="yes"/>
      <point x="251" y="287"/>
      <point x="241" y="316"/>
      <point x="241" y="387" type="curve" smooth="yes"/>
      <point x="241" y="481"/>
      <point x="277" y="530"/>
      <point x="385" y="530" type="curve" smooth="yes"/>
      <point x="439" y="530"/>
      <point x="501" y="510"/>
      <point x="513" y="496" type="curve"/>
      <point x="456" y="477"/>
      <point x="400" y="470"/>
      <point x="367" y="470" type="curve" smooth="yes"/>
      <point x="332" y="470"/>
      <point x="283" y="475"/>
      <point x="237" y="487" type="curve"/>
      <point x="218" y="380" type="line"/>
      <point x="280" y="367"/>
      <point x="332" y="366"/>
      <point x="381" y="366" type="curve" smooth="yes"/>
      <point x="493" y="366"/>
      <point x="574" y="384"/>
      <point x="689" y="431" type="curve"/>
      <point x="675" y="569"/>
      <point x="559" y="656"/>
      <point x="380" y="656" type="curve" smooth="yes"/>
      <point x="194" y="656"/>
      <point x="48" y="576"/>
      <point x="48" y="387" type="curve" smooth="yes"/>
      <point x="48" y="235"/>
      <point x="131" y="142"/>
    </contour>
  </outline>
</glyph>
<glyph name="_vocR_skt" format="2">
  <advance width="374"/>
  <unicode hex="1056"/>
  <note>
_vocR_skt
</note>
  <outline>
    <contour>
      <point x="109" y="140" type="curve" smooth="yes"/>
      <point x="250" y="140"/>
      <point x="333" y="212"/>
      <point x="333" y="316" type="curve" smooth="yes"/>
      <point x="333" y="387"/>
      <point x="289" y="426"/>
      <point x="216" y="460" type="curve" smooth="yes"/>
      <point x="169" y="483"/>
      <point x="150" y="494"/>
      <point x="150" y="511" type="curve" smooth="yes"/>
      <point x="150" y="518"/>
      <point x="156" y="528"/>
      <point x="171" y="528" type="curve" smooth="yes"/>
      <point x="197" y="528"/>
      <point x="225" y="512"/>
      <point x="250" y="488" type="curve"/>
      <point x="343" y="578" type="line"/>
      <point x="303" y="623"/>
      <point x="242" y="652"/>
      <point x="145" y="652" type="curve" smooth="yes"/>
      <point x="40" y="652"/>
      <point x="-34" y="597"/>
      <point x="-34" y="504" type="curve" smooth="yes"/>
      <point x="-34" y="453"/>
      <point x="-8" y="406"/>
      <point x="63" y="368" type="curve" smooth="yes"/>
      <point x="125" y="334"/>
      <point x="145" y="320"/>
      <point x="145" y="302" type="curve" smooth="yes"/>
      <point x="145" y="288"/>
      <point x="137" y="274"/>
      <point x="99" y="274" type="curve" smooth="yes"/>
      <point x="50" y="274"/>
      <point x="-8" y="313"/>
      <point x="-49" y="384" type="curve"/>
      <point x="-183" y="302" type="line"/>
      <point x="-107" y="184"/>
      <point x="-16" y="140"/>
    </contour>
  </outline>
</glyph>
<glyph name="_vocRR_skt" format="2">
  <advance width="398"/>
  <unicode hex="1057"/>
  <note>
_vocRR_skt
</note>
  <outline>
    <contour>
      <point x="-62" y="142" type="curve" smooth="yes"/>
      <point x="31" y="142"/>
      <point x="58" y="190"/>
      <point x="59" y="205" type="curve"/>
      <point x="27" y="223" type="line"/>
      <point x="47" y="171"/>
      <point x="82" y="142"/>
      <point x="177" y="142" type="curve" smooth="yes"/>
      <point x="277" y="142"/>
      <point x="356" y="206"/>
      <point x="356" y="304" type="curve" smooth="yes"/>
      <point x="356" y="384"/>
      <point x="312" y="425"/>
      <point x="235" y="462" type="curve" smooth="yes"/>
      <point x="192" y="483"/>
      <point x="173" y="494"/>
      <point x="173" y="511" type="curve" smooth="yes"/>
      <point x="173" y="518"/>
      <point x="180" y="528"/>
      <point x="195" y="528" type="curve" smooth="yes"/>
      <point x="221" y="528"/>
      <point x="248" y="512"/>
      <point x="273" y="488" type="curve"/>
      <point x="366" y="578" type="line"/>
      <point x="326" y="623"/>
      <point x="265" y="652"/>
      <point x="169" y="652" type="curve" smooth="yes"/>
      <point x="63" y="652"/>
      <point x="-11" y="597"/>
      <point x="-11" y="504" type="curve" smooth="yes"/>
      <point x="-11" y="453"/>
      <point x="15" y="406"/>
      <point x="86" y="370" type="curve" smooth="yes"/>
      <point x="146" y="338"/>
      <point x="166" y="325"/>
      <point x="166" y="308" type="curve" smooth="yes"/>
      <point x="166" y="298"/>
      <point x="160" y="287"/>
      <point x="143" y="287" type="curve" smooth="yes"/>
      <point x="129" y="287"/>
      <point x="118" y="295"/>
      <point x="118" y="319" type="curve" smooth="yes"/>
      <point x="118" y="329" type="line"/>
      <point x="-14" y="329" type="line"/>
      <point x="-14" y="319" type="line" smooth="yes"/>
      <point x="-14" y="295"/>
      <point x="-24" y="287"/>
      <point x="-36" y="287" type="curve" smooth="yes"/>
      <point x="-55" y="287"/>
      <point x="-58" y="304"/>
      <point x="-58" y="329" type="curve"/>
      <point x="-215" y="304" type="line"/>
      <point x="-215" y="221"/>
      <point x="-182" y="142"/>
    </contour>
  </outline>
</glyph>
<glyph name="_vocL_skt" format="2">
  <unicode hex="1058"/>
  <note>
_vocL_skt
</note>
  <outline>
    <contour>
      <point x="-300" y="-270" type="curve" smooth="yes"/>
      <point x="-239" y="-270"/>
      <point x="-192" y="-262"/>
      <point x="-131" y="-241" type="curve"/>
      <point x="-162" y="-134" type="line"/>
      <point x="-220" y="-154"/>
      <point x="-261" y="-160"/>
      <point x="-299" y="-160" type="curve" smooth="yes"/>
      <point x="-367" y="-160"/>
      <point x="-402" y="-142"/>
      <point x="-402" y="-85" type="curve" smooth="yes"/>
      <point x="-402" y="-30"/>
      <point x="-377" y="7"/>
      <point x="-324" y="7" type="curve" smooth="yes"/>
      <point x="-293" y="7"/>
      <point x="-266" y="-15"/>
      <point x="-262" y="-33" type="curve"/>
      <point x="-288" y="-39"/>
      <point x="-311" y="-42"/>
      <point x="-332" y="-42" type="curve" smooth="yes"/>
      <point x="-348" y="-42"/>
      <point x="-382" y="-38"/>
      <point x="-413" y="-29" type="curve"/>
      <point x="-430" y="-99" type="line"/>
      <point x="-388" y="-109"/>
      <point x="-352" y="-109"/>
      <point x="-319" y="-109" type="curve" smooth="yes"/>
      <point x="-243" y="-109"/>
      <point x="-188" y="-96"/>
      <point x="-110" y="-56" type="curve"/>
      <point x="-119" y="45"/>
      <point x="-208" y="108"/>
      <point x="-324" y="108" type="curve" smooth="yes"/>
      <point x="-452" y="108"/>
      <point x="-546" y="48"/>
      <point x="-546" y="-85" type="curve" smooth="yes"/>
      <point x="-546" y="-208"/>
      <point x="-456" y="-270"/>
    </contour>
  </outline>
</glyph>
<glyph name="_vocLL_skt" format="2">
  <unicode hex="1059"/>
  <note>
_vocLL_skt
</note>
  <outline>
    <contour>
      <point x="-405" y="-270" type="curve" smooth="yes"/>
      <point x="-352" y="-270"/>
      <point x="-327" y="-251"/>
      <point x="-313" y="-217" type="curve"/>
      <point x="-334" y="-225" type="line"/>
      <point x="-316" y="-254"/>
      <point x="-292" y="-270"/>
      <point x="-242" y="-270" type="curve" smooth="yes"/>
      <point x="-153" y="-270"/>
      <point x="-128" y="-213"/>
      <point x="-128" y="-154" type="curve"/>
      <point x="-244" y="-135" type="line"/>
      <point x="-244" y="-152"/>
      <point x="-247" y="-163"/>
      <point x="-261" y="-163" type="curve" smooth="yes"/>
      <point x="-270" y="-163"/>
      <point x="-278" y="-158"/>
      <point x="-278" y="-141" type="curve" smooth="yes"/>
      <point x="-278" y="-135" type="line"/>
      <point x="-375" y="-135" type="line"/>
      <point x="-375" y="-141" type="line" smooth="yes"/>
      <point x="-375" y="-158"/>
      <point x="-381" y="-163"/>
      <point x="-391" y="-163" type="curve" smooth="yes"/>
      <point x="-408" y="-163"/>
      <point x="-415" y="-142"/>
      <point x="-415" y="-90" type="curve" smooth="yes"/>
      <point x="-415" y="-18"/>
      <point x="-387" y="15"/>
      <point x="-329" y="15" type="curve" smooth="yes"/>
      <point x="-288" y="15"/>
      <point x="-259" y="-12"/>
      <point x="-255" y="-30" type="curve"/>
      <point x="-283" y="-44"/>
      <point x="-307" y="-49"/>
      <point x="-329" y="-49" type="curve" smooth="yes"/>
      <point x="-351" y="-49"/>
      <point x="-386" y="-46"/>
      <point x="-418" y="-37" type="curve"/>
      <point x="-432" y="-95" type="line"/>
      <point x="-388" y="-105"/>
      <point x="-351" y="-105"/>
      <point x="-317" y="-105" type="curve" smooth="yes"/>
      <point x="-249" y="-105"/>
      <point x="-202" y="-89"/>
      <point x="-131" y="-58" type="curve"/>
      <point x="-138" y="40"/>
      <point x="-209" y="108"/>
      <point x="-326" y="108" type="curve" smooth="yes"/>
      <point x="-459" y="108"/>
      <point x="-551" y="48"/>
      <point x="-551" y="-90" type="curve" smooth="yes"/>
      <point x="-551" y="-202"/>
      <point x="-492" y="-270"/>
    </contour>
  </outline>
</glyph>
<glyph name="nga_mon" format="2">
  <advance width="693"/>
  <unicode hex="105A"/>
  <note>
nga_mon
</note>
  <outline>
    <contour>
      <point x="371" y="142" type="curve" smooth="yes"/>
      <point x="494" y="142"/>
      <point x="595" y="190"/>
      <point x="644" y="254" type="curve"/>
      <point x="501" y="324" type="line"/>
      <point x="465" y="295"/>
      <point x="429" y="278"/>
      <point x="376" y="278" type="curve" smooth="yes"/>
      <point x="296" y="278"/>
      <point x="241" y="319"/>
      <point x="241" y="397" type="curve" smooth="yes"/>
      <point x="241" y="469"/>
      <point x="293" y="519"/>
      <point x="376" y="519" type="curve" smooth="yes"/>
      <point x="422" y="519"/>
      <point x="456" y="511"/>
      <point x="496" y="481" type="curve"/>
      <point x="622" y="556" type="line"/>
      <point x="577" y="618"/>
      <point x="476" y="656"/>
      <point x="371" y="656" type="curve" smooth="yes"/>
      <point x="183" y="656"/>
      <point x="48" y="554"/>
      <point x="48" y="397" type="curve" smooth="yes"/>
      <point x="48" y="244"/>
      <point x="186" y="142"/>
    </contour>
    <contour>
      <point x="394" y="-270" type="curve" smooth="yes"/>
      <point x="448" y="-270"/>
      <point x="478" y="-258"/>
      <point x="503" y="-244" type="curve"/>
      <point x="461" y="-168" type="line"/>
      <point x="451" y="-171"/>
      <point x="441" y="-176"/>
      <point x="427" y="-176" type="curve" smooth="yes"/>
      <point x="416" y="-176"/>
      <point x="410" y="-171"/>
      <point x="410" y="-164" type="curve" smooth="yes"/>
      <point x="410" y="-154"/>
      <point x="418" y="-148"/>
      <point x="440" y="-135" type="curve" smooth="yes"/>
      <point x="452" y="-127"/>
      <point x="531" y="-85"/>
      <point x="531" y="-15" type="curve" smooth="yes"/>
      <point x="531" y="61"/>
      <point x="462" y="108"/>
      <point x="353" y="108" type="curve" smooth="yes"/>
      <point x="237" y="108"/>
      <point x="172" y="49"/>
      <point x="163" y="-32" type="curve"/>
      <point x="297" y="-32" type="line"/>
      <point x="301" y="-7"/>
      <point x="315" y="11"/>
      <point x="342" y="11" type="curve" smooth="yes"/>
      <point x="372" y="11"/>
      <point x="385" y="-1"/>
      <point x="385" y="-18" type="curve" smooth="yes"/>
      <point x="385" y="-36"/>
      <point x="378" y="-46"/>
      <point x="361" y="-59" type="curve" smooth="yes"/>
      <point x="334" y="-80"/>
      <point x="278" y="-115"/>
      <point x="278" y="-177" type="curve" smooth="yes"/>
      <point x="278" y="-242"/>
      <point x="335" y="-270"/>
    </contour>
  </outline>
</glyph>
<glyph name="jha_mon" format="2">
  <advance width="966"/>
  <unicode hex="105B"/>
  <note>
jha_mon
</note>
  <outline>
    <contour>
      <point x="358" y="140" type="curve" smooth="yes"/>
      <point x="435" y="140"/>
      <point x="492" y="154"/>
      <point x="547" y="197" type="curve"/>
      <point x="443" y="300" type="line"/>
      <point x="415" y="282"/>
      <point x="394" y="276"/>
      <point x="360" y="276" type="curve" smooth="yes"/>
      <point x="286" y="276"/>
      <point x="241" y="321"/>
      <point x="241" y="397" type="curve" smooth="yes"/>
      <point x="241" y="469"/>
      <point x="282" y="519"/>
      <point x="343" y="519" type="curve" smooth="yes"/>
      <point x="362" y="519"/>
      <point x="382" y="518"/>
      <point x="396" y="510" type="curve"/>
      <point x="378" y="538" type="line"/>
      <point x="353" y="514"/>
      <point x="348" y="491"/>
      <point x="348" y="467" type="curve" smooth="yes"/>
      <point x="348" y="400"/>
      <point x="391" y="364"/>
      <point x="467" y="364" type="curve" smooth="yes"/>
      <point x="489" y="364"/>
      <point x="505" y="373"/>
      <point x="521" y="383" type="curve"/>
      <point x="480" y="393" type="line"/>
      <point x="493" y="319"/>
      <point x="518" y="286"/>
      <point x="615" y="286" type="curve" smooth="yes"/>
      <point x="648" y="286" type="line"/>
      <point x="648" y="420" type="line"/>
      <point x="631" y="420" type="line" smooth="yes"/>
      <point x="598" y="420"/>
      <point x="588" y="430"/>
      <point x="588" y="450" type="curve" smooth="yes"/>
      <point x="588" y="457"/>
      <point x="590" y="490"/>
      <point x="590" y="504" type="curve" smooth="yes"/>
      <point x="590" y="565"/>
      <point x="527" y="656"/>
      <point x="362" y="656" type="curve" smooth="yes"/>
      <point x="162" y="656"/>
      <point x="48" y="549"/>
      <point x="48" y="397" type="curve" smooth="yes"/>
      <point x="48" y="234"/>
      <point x="177" y="140"/>
    </contour>
    <contour>
      <point x="577" y="-270" type="curve" smooth="yes"/>
      <point x="731" y="-270"/>
      <point x="834" y="-168"/>
      <point x="834" y="-31" type="curve" smooth="yes"/>
      <point x="834" y="648" type="line"/>
      <point x="641" y="648" type="line"/>
      <point x="641" y="12" type="line" smooth="yes"/>
      <point x="641" y="-90"/>
      <point x="625" y="-122"/>
      <point x="581" y="-122" type="curve" smooth="yes"/>
      <point x="522" y="-122"/>
      <point x="521" y="-61"/>
      <point x="521" y="10" type="curve" smooth="yes"/>
      <point x="521" y="192" type="line"/>
      <point x="329" y="152" type="line"/>
      <point x="329" y="-29" type="line" smooth="yes"/>
      <point x="329" y="-171"/>
      <point x="429" y="-270"/>
    </contour>
    <contour>
      <point x="465" y="443" type="curve" smooth="yes"/>
      <point x="439" y="443"/>
      <point x="426" y="455"/>
      <point x="426" y="474" type="curve" smooth="yes"/>
      <point x="426" y="492"/>
      <point x="440" y="504"/>
      <point x="465" y="504" type="curve" smooth="yes"/>
      <point x="487" y="504"/>
      <point x="502" y="495"/>
      <point x="502" y="474" type="curve" smooth="yes"/>
      <point x="502" y="453"/>
      <point x="487" y="443"/>
    </contour>
  </outline>
</glyph>
<glyph name="bba_mon" format="2">
  <advance width="758"/>
  <unicode hex="105C"/>
  <note>
bba_mon
</note>
  <outline>
    <contour>
      <point x="383" y="140" type="curve" smooth="yes"/>
      <point x="579" y="140"/>
      <point x="709" y="245"/>
      <point x="709" y="397" type="curve" smooth="yes"/>
      <point x="709" y="544"/>
      <point x="580" y="656"/>
      <point x="381" y="656" type="curve" smooth="yes"/>
      <point x="181" y="656"/>
      <point x="48" y="550"/>
      <point x="48" y="397" type="curve" smooth="yes"/>
      <point x="48" y="244"/>
      <point x="183" y="140"/>
    </contour>
    <contour>
      <point x="376" y="244" type="curve" smooth="yes"/>
      <point x="258" y="244"/>
      <point x="197" y="315"/>
      <point x="197" y="399" type="curve" smooth="yes"/>
      <point x="197" y="478"/>
      <point x="266" y="545"/>
      <point x="376" y="545" type="curve" smooth="yes"/>
      <point x="491" y="545"/>
      <point x="562" y="481"/>
      <point x="562" y="397" type="curve" smooth="yes"/>
      <point x="562" y="315"/>
      <point x="499" y="244"/>
    </contour>
    <contour>
      <point x="379" y="284" type="curve" smooth="yes"/>
      <point x="454" y="284"/>
      <point x="508" y="324"/>
      <point x="508" y="396" type="curve" smooth="yes"/>
      <point x="508" y="464"/>
      <point x="451" y="506"/>
      <point x="379" y="506" type="curve" smooth="yes"/>
      <point x="305" y="506"/>
      <point x="253" y="466"/>
      <point x="253" y="395" type="curve" smooth="yes"/>
      <point x="253" y="325"/>
      <point x="305" y="284"/>
    </contour>
    <contour>
      <point x="381" y="362" type="curve" smooth="yes"/>
      <point x="359" y="362"/>
      <point x="348" y="374"/>
      <point x="348" y="395" type="curve" smooth="yes"/>
      <point x="348" y="415"/>
      <point x="363" y="429"/>
      <point x="381" y="429" type="curve" smooth="yes"/>
      <point x="399" y="429"/>
      <point x="413" y="415"/>
      <point x="413" y="395" type="curve" smooth="yes"/>
      <point x="413" y="374"/>
      <point x="399" y="362"/>
    </contour>
  </outline>
</glyph>
<glyph name="bbe_mon" format="2">
  <advance width="690"/>
  <unicode hex="105D"/>
  <note>
bbe_mon
</note>
  <outline>
    <contour>
      <point x="265" y="-270" type="curve" smooth="yes"/>
      <point x="388" y="-270" type="line" smooth="yes"/>
      <point x="541" y="-270"/>
      <point x="614" y="-204"/>
      <point x="614" y="-72" type="curve" smooth="yes"/>
      <point x="614" y="283" type="line"/>
      <point x="424" y="160" type="line"/>
      <point x="424" y="-81" type="line" smooth="yes"/>
      <point x="424" y="-109"/>
      <point x="414" y="-126"/>
      <point x="383" y="-126" type="curve" smooth="yes"/>
      <point x="263" y="-126" type="line" smooth="yes"/>
      <point x="231" y="-126"/>
      <point x="215" y="-117"/>
      <point x="215" y="-101" type="curve" smooth="yes"/>
      <point x="215" y="-92"/>
      <point x="225" y="-80"/>
      <point x="253" y="-80" type="curve" smooth="yes"/>
      <point x="283" y="-80"/>
      <point x="300" y="-86"/>
      <point x="323" y="-97" type="curve"/>
      <point x="383" y="8" type="line"/>
      <point x="346" y="24"/>
      <point x="302" y="36"/>
      <point x="224" y="36" type="curve" smooth="yes"/>
      <point x="125" y="36"/>
      <point x="42" y="-25"/>
      <point x="42" y="-114" type="curve" smooth="yes"/>
      <point x="42" y="-216"/>
      <point x="126" y="-270"/>
    </contour>
    <contour>
      <point x="241" y="307" type="line"/>
      <point x="267" y="317"/>
      <point x="298" y="325"/>
      <point x="354" y="325" type="curve" smooth="yes"/>
      <point x="404" y="325"/>
      <point x="425" y="319"/>
      <point x="465" y="307" type="curve"/>
      <point x="502" y="396" type="line"/>
      <point x="444" y="418"/>
      <point x="402" y="424"/>
      <point x="354" y="424" type="curve" smooth="yes"/>
      <point x="299" y="424"/>
      <point x="252" y="410"/>
      <point x="207" y="397" type="curve"/>
    </contour>
    <contour>
      <point x="346" y="140" type="curve" smooth="yes"/>
      <point x="531" y="140"/>
      <point x="646" y="238"/>
      <point x="646" y="392" type="curve" smooth="yes"/>
      <point x="646" y="532"/>
      <point x="585" y="612"/>
      <point x="499" y="656" type="curve"/>
      <point x="407" y="514" type="line"/>
      <point x="459" y="464"/>
      <point x="467" y="424"/>
      <point x="467" y="385" type="curve" smooth="yes"/>
      <point x="467" y="301"/>
      <point x="424" y="266"/>
      <point x="354" y="266" type="curve" smooth="yes"/>
      <point x="266" y="266"/>
      <point x="228" y="315"/>
      <point x="228" y="388" type="curve" smooth="yes"/>
      <point x="228" y="430"/>
      <point x="236" y="466"/>
      <point x="286" y="514" type="curve"/>
      <point x="195" y="656" type="line"/>
      <point x="108" y="611"/>
      <point x="48" y="529"/>
      <point x="48" y="392" type="curve" smooth="yes"/>
      <point x="48" y="239"/>
      <point x="160" y="140"/>
    </contour>
  </outline>
</glyph>
<glyph name="_medialNa_mon" format="2">
  <unicode hex="105E"/>
  <note>
_medialNa_mon
</note>
  <outline>
    <contour>
      <point x="-401" y="-270" type="curve" smooth="yes"/>
      <point x="-263" y="-270"/>
      <point x="-214" y="-217"/>
      <point x="-214" y="-123" type="curve" smooth="yes"/>
      <point x="-214" y="102" type="line"/>
      <point x="-370" y="102" type="line"/>
      <point x="-370" y="-121" type="line" smooth="yes"/>
      <point x="-370" y="-150"/>
      <point x="-381" y="-167"/>
      <point x="-407" y="-167" type="curve" smooth="yes"/>
      <point x="-427" y="-167"/>
      <point x="-439" y="-156"/>
      <point x="-439" y="-139" type="curve" smooth="yes"/>
      <point x="-439" y="-111"/>
      <point x="-400" y="-86"/>
      <point x="-332" y="-86" type="curve" smooth="yes"/>
      <point x="-264" y="-86"/>
      <point x="-220" y="-99"/>
      <point x="-135" y="-157" type="curve"/>
      <point x="-60" y="-63" type="line"/>
      <point x="-156" y="-14"/>
      <point x="-227" y="10"/>
      <point x="-332" y="10" type="curve" smooth="yes"/>
      <point x="-480" y="10"/>
      <point x="-588" y="-46"/>
      <point x="-588" y="-137" type="curve" smooth="yes"/>
      <point x="-588" y="-226"/>
      <point x="-520" y="-270"/>
    </contour>
  </outline>
</glyph>
<glyph name="_medialMa_mon" format="2">
  <unicode hex="105F"/>
  <note>
_medialMa_mon
</note>
  <outline>
    <contour>
      <point x="-339" y="-270" type="curve" smooth="yes"/>
      <point x="-251" y="-270"/>
      <point x="-141" y="-243"/>
      <point x="-71" y="-197" type="curve"/>
      <point x="-140" y="-112" type="line"/>
      <point x="-175" y="-134"/>
      <point x="-248" y="-171"/>
      <point x="-333" y="-171" type="curve" smooth="yes"/>
      <point x="-390" y="-171"/>
      <point x="-415" y="-153"/>
      <point x="-415" y="-131" type="curve" smooth="yes"/>
      <point x="-415" y="-110"/>
      <point x="-398" y="-90"/>
      <point x="-345" y="-90" type="curve" smooth="yes"/>
      <point x="-308" y="-90"/>
      <point x="-281" y="-95"/>
      <point x="-241" y="-101" type="curve"/>
      <point x="-241" y="102" type="line"/>
      <point x="-398" y="102" type="line"/>
      <point x="-398" y="9" type="line"/>
      <point x="-513" y="-1"/>
      <point x="-570" y="-57"/>
      <point x="-570" y="-127" type="curve" smooth="yes"/>
      <point x="-570" y="-225"/>
      <point x="-502" y="-270"/>
    </contour>
  </outline>
</glyph>
<glyph name="_medialLa_mon" format="2">
  <unicode hex="1060"/>
  <note>
_medialLa_mon
</note>
  <outline>
    <contour>
      <point x="-587" y="-270" type="line"/>
      <point x="-133" y="-270" type="line"/>
      <point x="-133" y="-130" type="line"/>
      <point x="-267" y="-130" type="line"/>
      <point x="-119" y="108" type="line"/>
      <point x="-350" y="108" type="line"/>
    </contour>
  </outline>
</glyph>
<glyph name="sha_skn" format="2">
  <advance width="791"/>
  <unicode hex="1061"/>
  <note>
sha_skn
</note>
  <outline>
    <contour>
      <point x="521" y="-270" type="line"/>
      <point x="711" y="-270" type="line"/>
      <point x="711" y="376" type="line" smooth="yes"/>
      <point x="711" y="523"/>
      <point x="603" y="656"/>
      <point x="366" y="656" type="curve" smooth="yes"/>
      <point x="181" y="656"/>
      <point x="48" y="553"/>
      <point x="48" y="397" type="curve" smooth="yes"/>
      <point x="48" y="241"/>
      <point x="161" y="140"/>
      <point x="317" y="140" type="curve" smooth="yes"/>
      <point x="366" y="140"/>
      <point x="399" y="141"/>
      <point x="449" y="155" type="curve"/>
      <point x="449" y="333"/>
      <point x="392" y="435"/>
      <point x="189" y="470" type="curve"/>
      <point x="170" y="370" type="line"/>
      <point x="280" y="349"/>
      <point x="311" y="300"/>
      <point x="337" y="223" type="curve"/>
      <point x="386" y="246" type="line"/>
      <point x="371" y="246"/>
      <point x="353" y="246"/>
      <point x="340" y="246" type="curve" smooth="yes"/>
      <point x="235" y="246"/>
      <point x="180" y="299"/>
      <point x="180" y="378" type="curve" smooth="yes"/>
      <point x="180" y="448"/>
      <point x="223" y="519"/>
      <point x="354" y="519" type="curve" smooth="yes"/>
      <point x="479" y="519"/>
      <point x="521" y="451"/>
      <point x="521" y="364" type="curve" smooth="yes"/>
    </contour>
    <contour>
      <point x="157" y="-270" type="line"/>
      <point x="449" y="-270" type="line"/>
      <point x="449" y="158" type="line"/>
      <point x="259" y="158" type="line"/>
      <point x="259" y="-130" type="line"/>
      <point x="157" y="-130" type="line"/>
    </contour>
  </outline>
</glyph>
<glyph name="eu_skn" format="2">
  <advance width="363"/>
  <unicode hex="1062"/>
  <note>
eu_skn
</note>
  <outline>
    <contour>
      <point x="103" y="149" type="line"/>
      <point x="293" y="149" type="line"/>
      <point x="293" y="647" type="line"/>
      <point x="0" y="647" type="line"/>
      <point x="0" y="506" type="line"/>
      <point x="103" y="506" type="line"/>
    </contour>
  </outline>
</glyph>
<glyph name="hathi_skn" format="2">
  <advance width="679"/>
  <unicode hex="1063"/>
  <note>
hathi_skn
</note>
  <outline>
    <contour>
      <point x="79" y="-270" type="line"/>
      <point x="271" y="-270" type="line"/>
      <point x="271" y="183" type="line"/>
      <point x="79" y="253" type="line"/>
    </contour>
    <contour>
      <point x="364" y="140" type="curve" smooth="yes"/>
      <point x="529" y="140"/>
      <point x="632" y="253"/>
      <point x="632" y="397" type="curve" smooth="yes"/>
      <point x="632" y="549"/>
      <point x="508" y="656"/>
      <point x="333" y="656" type="curve" smooth="yes"/>
      <point x="215" y="656"/>
      <point x="129" y="612"/>
      <point x="97" y="558" type="curve"/>
      <point x="226" y="481" type="line"/>
      <point x="249" y="508"/>
      <point x="286" y="519"/>
      <point x="334" y="519" type="curve" smooth="yes"/>
      <point x="399" y="519"/>
      <point x="439" y="471"/>
      <point x="439" y="397" type="curve" smooth="yes"/>
      <point x="439" y="329"/>
      <point x="399" y="276"/>
      <point x="317" y="276" type="curve" smooth="yes"/>
      <point x="276" y="276"/>
      <point x="241" y="293"/>
      <point x="223" y="322" type="curve"/>
      <point x="79" y="253" type="line"/>
      <point x="218" y="156"/>
      <point x="254" y="140"/>
    </contour>
  </outline>
</glyph>
<glyph name="kepho_skn" format="2">
  <advance width="439"/>
  <unicode hex="1064"/>
  <note>
kepho_skn
</note>
  <outline>
    <contour>
      <point x="126" y="149" type="line"/>
      <point x="418" y="149" type="line"/>
      <point x="418" y="290" type="line"/>
      <point x="316" y="290" type="line"/>
      <point x="316" y="647" type="line"/>
      <point x="23" y="647" type="line"/>
      <point x="23" y="506" type="line"/>
      <point x="126" y="506" type="line"/>
    </contour>
  </outline>
</glyph>
<glyph name="tha_wpk" format="2">
  <advance width="739"/>
  <unicode hex="1065"/>
  <note>
tha_wpk
</note>
  <outline>
    <contour>
      <point x="364" y="142" type="curve" smooth="yes"/>
      <point x="548" y="142"/>
      <point x="687" y="244"/>
      <point x="687" y="397" type="curve" smooth="yes"/>
      <point x="687" y="554"/>
      <point x="551" y="656"/>
      <point x="364" y="656" type="curve" smooth="yes"/>
      <point x="259" y="656"/>
      <point x="158" y="618"/>
      <point x="113" y="556" type="curve"/>
      <point x="240" y="481" type="line"/>
      <point x="280" y="511"/>
      <point x="313" y="519"/>
      <point x="359" y="519" type="curve" smooth="yes"/>
      <point x="442" y="519"/>
      <point x="494" y="469"/>
      <point x="494" y="397" type="curve" smooth="yes"/>
      <point x="494" y="319"/>
      <point x="439" y="278"/>
      <point x="359" y="278" type="curve" smooth="yes"/>
      <point x="306" y="278"/>
      <point x="271" y="295"/>
      <point x="235" y="324" type="curve"/>
      <point x="91" y="254" type="line"/>
      <point x="140" y="190"/>
      <point x="241" y="142"/>
    </contour>
  </outline>
</glyph>
<glyph name="pwa_wpk" format="2">
  <advance width="723"/>
  <unicode hex="1066"/>
  <note>
pwa_wpk
</note>
  <outline>
    <contour>
      <point x="362" y="140" type="curve" smooth="yes"/>
      <point x="556" y="140"/>
      <point x="675" y="238"/>
      <point x="675" y="392" type="curve" smooth="yes"/>
      <point x="675" y="532"/>
      <point x="610" y="612"/>
      <point x="518" y="656" type="curve"/>
      <point x="426" y="514" type="line"/>
      <point x="475" y="467"/>
      <point x="482" y="428"/>
      <point x="482" y="391" type="curve" smooth="yes"/>
      <point x="482" y="323"/>
      <point x="434" y="277"/>
      <point x="360" y="277" type="curve" smooth="yes"/>
      <point x="288" y="277"/>
      <point x="241" y="328"/>
      <point x="241" y="391" type="curve" smooth="yes"/>
      <point x="241" y="432"/>
      <point x="248" y="467"/>
      <point x="297" y="514" type="curve"/>
      <point x="205" y="656" type="line"/>
      <point x="112" y="611"/>
      <point x="48" y="529"/>
      <point x="48" y="392" type="curve" smooth="yes"/>
      <point x="48" y="239"/>
      <point x="166" y="140"/>
    </contour>
    <contour>
      <point x="172" y="-270" type="line"/>
      <point x="463" y="-270" type="line"/>
      <point x="463" y="167" type="line"/>
      <point x="273" y="162" type="line"/>
      <point x="273" y="-130" type="line"/>
      <point x="172" y="-130" type="line"/>
    </contour>
  </outline>
</glyph>
<glyph name="eu_wpk" format="2">
  <advance width="452"/>
  <unicode hex="1067"/>
  <note>
eu_wpk
</note>
  <outline>
    <contour>
      <point x="197" y="141" type="curve" smooth="yes"/>
      <point x="309" y="141"/>
      <point x="384" y="193"/>
      <point x="384" y="292" type="curve" smooth="yes"/>
      <point x="384" y="385"/>
      <point x="310" y="442"/>
      <point x="197" y="442" type="curve" smooth="yes"/>
      <point x="85" y="442"/>
      <point x="12" y="385"/>
      <point x="12" y="292" type="curve" smooth="yes"/>
      <point x="12" y="193"/>
      <point x="87" y="141"/>
    </contour>
    <contour>
      <point x="197" y="246" type="curve" smooth="yes"/>
      <point x="166" y="246"/>
      <point x="150" y="265"/>
      <point x="150" y="292" type="curve" smooth="yes"/>
      <point x="150" y="320"/>
      <point x="170" y="334"/>
      <point x="197" y="334" type="curve" smooth="yes"/>
      <point x="225" y="334"/>
      <point x="245" y="320"/>
      <point x="245" y="292" type="curve" smooth="yes"/>
      <point x="245" y="265"/>
      <point x="229" y="246"/>
    </contour>
    <contour>
      <point x="383" y="292" type="line"/>
      <point x="383" y="647" type="line"/>
      <point x="202" y="647" type="line"/>
      <point x="202" y="431" type="line"/>
    </contour>
  </outline>
</glyph>
<glyph name="ue_wpk" format="2">
  <advance width="445"/>
  <unicode hex="1068"/>
  <note>
ue_wpk
</note>
  <outline>
    <contour>
      <point x="23" y="149" type="line"/>
      <point x="316" y="149" type="line"/>
      <point x="316" y="647" type="line"/>
      <point x="126" y="647" type="line"/>
      <point x="126" y="290" type="line"/>
      <point x="23" y="290" type="line"/>
    </contour>
    <contour>
      <point x="218" y="717" type="curve" smooth="yes"/>
      <point x="301" y="717"/>
      <point x="361" y="758"/>
      <point x="361" y="833" type="curve" smooth="yes"/>
      <point x="361" y="895"/>
      <point x="306" y="946"/>
      <point x="218" y="946" type="curve" smooth="yes"/>
      <point x="131" y="946"/>
      <point x="79" y="901"/>
      <point x="79" y="831" type="curve" smooth="yes"/>
      <point x="79" y="758"/>
      <point x="135" y="717"/>
    </contour>
    <contour>
      <point x="220" y="797" type="curve" smooth="yes"/>
      <point x="196" y="797"/>
      <point x="184" y="811"/>
      <point x="184" y="831" type="curve" smooth="yes"/>
      <point x="184" y="853"/>
      <point x="199" y="864"/>
      <point x="220" y="864" type="curve" smooth="yes"/>
      <point x="241" y="864"/>
      <point x="256" y="853"/>
      <point x="256" y="831" type="curve" smooth="yes"/>
      <point x="256" y="811"/>
      <point x="241" y="797"/>
    </contour>
  </outline>
</glyph>
<glyph name="tone1_wpk" format="2">
  <advance width="482"/>
  <unicode hex="1069"/>
  <note>
tone1_wpk
</note>
  <outline>
    <contour>
      <point x="213" y="142" type="curve" smooth="yes"/>
      <point x="314" y="142"/>
      <point x="381" y="170"/>
      <point x="450" y="241" type="curve"/>
      <point x="355" y="327" type="line"/>
      <point x="328" y="296"/>
      <point x="284" y="262"/>
      <point x="243" y="262" type="curve" smooth="yes"/>
      <point x="222" y="262"/>
      <point x="212" y="272"/>
      <point x="212" y="288" type="curve" smooth="yes"/>
      <point x="212" y="305"/>
      <point x="224" y="321"/>
      <point x="252" y="335" type="curve" smooth="yes"/>
      <point x="391" y="406"/>
      <point x="417" y="455"/>
      <point x="417" y="520" type="curve" smooth="yes"/>
      <point x="417" y="604"/>
      <point x="348" y="656"/>
      <point x="235" y="656" type="curve" smooth="yes"/>
      <point x="142" y="656"/>
      <point x="87" y="622"/>
      <point x="42" y="590" type="curve"/>
      <point x="121" y="497" type="line"/>
      <point x="151" y="515"/>
      <point x="178" y="532"/>
      <point x="208" y="532" type="curve" smooth="yes"/>
      <point x="229" y="532"/>
      <point x="236" y="523"/>
      <point x="236" y="512" type="curve" smooth="yes"/>
      <point x="236" y="500"/>
      <point x="230" y="492"/>
      <point x="191" y="468" type="curve" smooth="yes"/>
      <point x="55" y="383"/>
      <point x="36" y="342"/>
      <point x="36" y="279" type="curve" smooth="yes"/>
      <point x="36" y="218"/>
      <point x="87" y="142"/>
    </contour>
  </outline>
</glyph>
<glyph name="tone2_wpk" format="2">
  <advance width="481"/>
  <unicode hex="106A"/>
  <note>
tone2_wpk
</note>
  <outline>
    <contour>
      <point x="203" y="141" type="curve" smooth="yes"/>
      <point x="351" y="141"/>
      <point x="411" y="208"/>
      <point x="411" y="314" type="curve" smooth="yes"/>
      <point x="411" y="647" type="line"/>
      <point x="229" y="647" type="line"/>
      <point x="229" y="318" type="line" smooth="yes"/>
      <point x="229" y="288"/>
      <point x="220" y="268"/>
      <point x="203" y="268" type="curve" smooth="yes"/>
      <point x="178" y="268"/>
      <point x="170" y="288"/>
      <point x="170" y="336" type="curve"/>
      <point x="-3" y="336" type="line"/>
      <point x="-3" y="211"/>
      <point x="61" y="141"/>
    </contour>
  </outline>
</glyph>
<glyph name="tone3_wpk" format="2">
  <advance width="481"/>
  <unicode hex="106B"/>
  <note>
tone3_wpk
</note>
  <outline>
    <contour>
      <point x="229" y="149" type="line"/>
      <point x="411" y="149" type="line"/>
      <point x="411" y="482" type="line" smooth="yes"/>
      <point x="411" y="587"/>
      <point x="351" y="655"/>
      <point x="203" y="655" type="curve" smooth="yes"/>
      <point x="61" y="655"/>
      <point x="-3" y="585"/>
      <point x="-3" y="460" type="curve"/>
      <point x="170" y="460" type="line"/>
      <point x="170" y="508"/>
      <point x="178" y="528"/>
      <point x="203" y="528" type="curve" smooth="yes"/>
      <point x="220" y="528"/>
      <point x="229" y="508"/>
      <point x="229" y="478" type="curve" smooth="yes"/>
    </contour>
  </outline>
</glyph>
<glyph name="tone4_wpk" format="2">
  <advance width="481"/>
  <unicode hex="106C"/>
  <note>
tone4_wpk
</note>
  <outline>
    <contour>
      <point x="278" y="141" type="curve" smooth="yes"/>
      <point x="419" y="141"/>
      <point x="483" y="211"/>
      <point x="483" y="336" type="curve"/>
      <point x="311" y="336" type="line"/>
      <point x="311" y="288"/>
      <point x="303" y="268"/>
      <point x="278" y="268" type="curve" smooth="yes"/>
      <point x="260" y="268"/>
      <point x="251" y="288"/>
      <point x="251" y="318" type="curve" smooth="yes"/>
      <point x="251" y="647" type="line"/>
      <point x="69" y="647" type="line"/>
      <point x="69" y="314" type="line" smooth="yes"/>
      <point x="69" y="208"/>
      <point x="129" y="141"/>
    </contour>
  </outline>
</glyph>
<glyph name="tone5_wpk" format="2">
  <advance width="482"/>
  <unicode hex="106D"/>
  <note>
tone5_wpk
</note>
  <outline>
    <contour>
      <point x="268" y="142" type="curve" smooth="yes"/>
      <point x="394" y="142"/>
      <point x="445" y="218"/>
      <point x="445" y="279" type="curve" smooth="yes"/>
      <point x="445" y="342"/>
      <point x="426" y="383"/>
      <point x="290" y="468" type="curve" smooth="yes"/>
      <point x="251" y="492"/>
      <point x="245" y="500"/>
      <point x="245" y="512" type="curve" smooth="yes"/>
      <point x="245" y="523"/>
      <point x="252" y="532"/>
      <point x="273" y="532" type="curve" smooth="yes"/>
      <point x="303" y="532"/>
      <point x="330" y="515"/>
      <point x="360" y="497" type="curve"/>
      <point x="439" y="590" type="line"/>
      <point x="394" y="622"/>
      <point x="339" y="656"/>
      <point x="246" y="656" type="curve" smooth="yes"/>
      <point x="134" y="656"/>
      <point x="64" y="604"/>
      <point x="64" y="520" type="curve" smooth="yes"/>
      <point x="64" y="455"/>
      <point x="90" y="406"/>
      <point x="230" y="335" type="curve" smooth="yes"/>
      <point x="257" y="321"/>
      <point x="269" y="305"/>
      <point x="269" y="288" type="curve" smooth="yes"/>
      <point x="269" y="272"/>
      <point x="259" y="262"/>
      <point x="238" y="262" type="curve" smooth="yes"/>
      <point x="197" y="262"/>
      <point x="153" y="296"/>
      <point x="126" y="327" type="curve"/>
      <point x="31" y="241" type="line"/>
      <point x="100" y="170"/>
      <point x="167" y="142"/>
    </contour>
  </outline>
</glyph>
<glyph name="nna_epk" format="2">
  <advance width="1439"/>
  <unicode hex="106E"/>
  <note>
nna_epk
</note>
  <outline>
    <contour>
      <point x="205" y="140" type="curve"/>
      <point x="297" y="282" type="line"/>
      <point x="248" y="329"/>
      <point x="241" y="364"/>
      <point x="241" y="405" type="curve" smooth="yes"/>
      <point x="241" y="469"/>
      <point x="288" y="519"/>
      <point x="360" y="519" type="curve" smooth="yes"/>
      <point x="434" y="519"/>
      <point x="482" y="473"/>
      <point x="482" y="405" type="curve" smooth="yes"/>
      <point x="482" y="368"/>
      <point x="475" y="329"/>
      <point x="426" y="282" type="curve"/>
      <point x="518" y="140" type="line"/>
      <point x="598" y="184"/>
      <point x="655" y="264"/>
      <point x="655" y="404" type="curve" smooth="yes"/>
      <point x="655" y="558"/>
      <point x="544" y="656"/>
      <point x="362" y="656" type="curve" smooth="yes"/>
      <point x="166" y="656"/>
      <point x="48" y="557"/>
      <point x="48" y="404" type="curve" smooth="yes"/>
      <point x="48" y="267"/>
      <point x="112" y="185"/>
    </contour>
    <contour>
      <point x="807" y="140" type="line"/>
      <point x="893" y="184"/>
      <point x="954" y="264"/>
      <point x="954" y="404" type="curve" smooth="yes"/>
      <point x="954" y="558"/>
      <point x="843" y="656"/>
      <point x="661" y="656" type="curve" smooth="yes"/>
      <point x="573" y="656"/>
      <point x="500" y="636"/>
      <point x="447" y="600" type="curve"/>
      <point x="572" y="486" type="line"/>
      <point x="593" y="506"/>
      <point x="622" y="519"/>
      <point x="659" y="519" type="curve" smooth="yes"/>
      <point x="734" y="519"/>
      <point x="781" y="473"/>
      <point x="781" y="405" type="curve" smooth="yes"/>
      <point x="781" y="368"/>
      <point x="774" y="329"/>
      <point x="716" y="282" type="curve"/>
    </contour>
    <contour>
      <point x="1115" y="140" type="curve" smooth="yes"/>
      <point x="1303" y="140"/>
      <point x="1390" y="266"/>
      <point x="1390" y="399" type="curve" smooth="yes"/>
      <point x="1390" y="568"/>
      <point x="1268" y="656"/>
      <point x="1081" y="656" type="curve" smooth="yes"/>
      <point x="958" y="656"/>
      <point x="902" y="613"/>
      <point x="858" y="581" type="curve"/>
      <point x="931" y="447" type="line"/>
      <point x="960" y="480"/>
      <point x="999" y="521"/>
      <point x="1083" y="521" type="curve" smooth="yes"/>
      <point x="1151" y="521"/>
      <point x="1197" y="465"/>
      <point x="1197" y="401" type="curve" smooth="yes"/>
      <point x="1197" y="329"/>
      <point x="1161" y="287"/>
      <point x="1106" y="287" type="curve" smooth="yes"/>
      <point x="1082" y="287"/>
      <point x="1065" y="289"/>
      <point x="1042" y="300" type="curve"/>
      <point x="979" y="172" type="line"/>
      <point x="1006" y="154"/>
      <point x="1052" y="140"/>
    </contour>
  </outline>
</glyph>
<glyph name="ywa_epk" format="2">
  <advance width="1105"/>
  <unicode hex="106F"/>
  <note>
ywa_epk
</note>
  <outline>
    <contour>
      <point x="362" y="140" type="curve" smooth="yes"/>
      <point x="537" y="140"/>
      <point x="645" y="238"/>
      <point x="645" y="392" type="curve" smooth="yes"/>
      <point x="645" y="532"/>
      <point x="583" y="612"/>
      <point x="497" y="656" type="curve"/>
      <point x="406" y="514" type="line"/>
      <point x="446" y="467"/>
      <point x="452" y="428"/>
      <point x="452" y="391" type="curve" smooth="yes"/>
      <point x="452" y="323"/>
      <point x="416" y="277"/>
      <point x="360" y="277" type="curve" smooth="yes"/>
      <point x="288" y="277"/>
      <point x="241" y="328"/>
      <point x="241" y="391" type="curve" smooth="yes"/>
      <point x="241" y="432"/>
      <point x="247" y="467"/>
      <point x="287" y="514" type="curve"/>
      <point x="195" y="656" type="line"/>
      <point x="108" y="611"/>
      <point x="48" y="529"/>
      <point x="48" y="392" type="curve" smooth="yes"/>
      <point x="48" y="239"/>
      <point x="166" y="140"/>
    </contour>
    <contour>
      <point x="637" y="-270" type="line"/>
      <point x="928" y="-270" type="line"/>
      <point x="928" y="181" type="line"/>
      <point x="738" y="158" type="line"/>
      <point x="738" y="-130" type="line"/>
      <point x="637" y="-130" type="line"/>
    </contour>
    <contour>
      <point x="799" y="140" type="curve" smooth="yes"/>
      <point x="974" y="140"/>
      <point x="1056" y="265"/>
      <point x="1056" y="399" type="curve" smooth="yes"/>
      <point x="1056" y="568"/>
      <point x="941" y="656"/>
      <point x="765" y="656" type="curve" smooth="yes"/>
      <point x="631" y="656"/>
      <point x="582" y="613"/>
      <point x="557" y="591" type="curve"/>
      <point x="635" y="450" type="line"/>
      <point x="648" y="484"/>
      <point x="676" y="521"/>
      <point x="750" y="521" type="curve" smooth="yes"/>
      <point x="826" y="521"/>
      <point x="863" y="468"/>
      <point x="863" y="401" type="curve" smooth="yes"/>
      <point x="863" y="328"/>
      <point x="835" y="287"/>
      <point x="780" y="287" type="curve" smooth="yes"/>
      <point x="765" y="287"/>
      <point x="748" y="289"/>
      <point x="725" y="300" type="curve"/>
      <point x="663" y="172" type="line"/>
      <point x="690" y="154"/>
      <point x="736" y="140"/>
    </contour>
  </outline>
</glyph>
<glyph name="ghwa_epk" format="2">
  <advance width="1079"/>
  <unicode hex="1070"/>
  <note>
ghwa_epk
</note>
  <outline>
    <contour>
      <point x="317" y="140" type="curve" smooth="yes"/>
      <point x="556" y="140"/>
      <point x="619" y="262"/>
      <point x="619" y="390" type="curve" smooth="yes"/>
      <point x="619" y="547"/>
      <point x="552" y="616"/>
      <point x="470" y="656" type="curve"/>
      <point x="381" y="514" type="line"/>
      <point x="440" y="474"/>
      <point x="452" y="426"/>
      <point x="452" y="389" type="curve" smooth="yes"/>
      <point x="452" y="321"/>
      <point x="411" y="276"/>
      <point x="329" y="276" type="curve" smooth="yes"/>
      <point x="277" y="276"/>
      <point x="245" y="298"/>
      <point x="245" y="336" type="curve" smooth="yes"/>
      <point x="245" y="358"/>
      <point x="254" y="374"/>
      <point x="286" y="399" type="curve" smooth="yes"/>
      <point x="323" y="428"/>
      <point x="352" y="472"/>
      <point x="352" y="529" type="curve" smooth="yes"/>
      <point x="352" y="611"/>
      <point x="294" y="657"/>
      <point x="199" y="657" type="curve" smooth="yes"/>
      <point x="127" y="657"/>
      <point x="59" y="625"/>
      <point x="28" y="567" type="curve"/>
      <point x="107" y="494" type="line"/>
      <point x="119" y="514"/>
      <point x="141" y="537"/>
      <point x="164" y="537" type="curve" smooth="yes"/>
      <point x="179" y="537"/>
      <point x="184" y="529"/>
      <point x="184" y="522" type="curve" smooth="yes"/>
      <point x="184" y="502"/>
      <point x="166" y="480"/>
      <point x="123" y="445" type="curve" smooth="yes"/>
      <point x="82" y="411"/>
      <point x="53" y="374"/>
      <point x="53" y="323" type="curve" smooth="yes"/>
      <point x="53" y="210"/>
      <point x="169" y="140"/>
    </contour>
    <contour>
      <point x="556" y="-270" type="line"/>
      <point x="847" y="-270" type="line"/>
      <point x="847" y="166" type="line"/>
      <point x="657" y="163" type="line"/>
      <point x="657" y="-130" type="line"/>
      <point x="556" y="-130" type="line"/>
    </contour>
    <contour>
      <point x="738" y="140" type="curve" smooth="yes"/>
      <point x="925" y="140"/>
      <point x="1031" y="244"/>
      <point x="1031" y="397" type="curve" smooth="yes"/>
      <point x="1031" y="536"/>
      <point x="973" y="656"/>
      <point x="770" y="656" type="curve" smooth="yes"/>
      <point x="711" y="656"/>
      <point x="666" y="641"/>
      <point x="639" y="623" type="curve"/>
      <point x="701" y="496" type="line"/>
      <point x="724" y="506"/>
      <point x="741" y="509"/>
      <point x="750" y="509" type="curve" smooth="yes"/>
      <point x="809" y="509"/>
      <point x="838" y="468"/>
      <point x="838" y="395" type="curve" smooth="yes"/>
      <point x="838" y="328"/>
      <point x="793" y="275"/>
      <point x="728" y="275" type="curve" smooth="yes"/>
      <point x="659" y="275"/>
      <point x="620" y="316"/>
      <point x="610" y="346" type="curve"/>
      <point x="533" y="205" type="line"/>
      <point x="562" y="183"/>
      <point x="618" y="140"/>
    </contour>
  </outline>
</glyph>
<glyph name="i_gkn" format="2">
  <unicode hex="1071"/>
  <note>
i_gkn
</note>
  <outline>
    <contour>
      <point x="-140" y="773" type="curve" smooth="yes"/>
      <point x="-57" y="773"/>
      <point x="4" y="813"/>
      <point x="4" y="889" type="curve" smooth="yes"/>
      <point x="4" y="952"/>
      <point x="-52" y="1002"/>
      <point x="-140" y="1002" type="curve" smooth="yes"/>
      <point x="-224" y="1002"/>
      <point x="-279" y="957"/>
      <point x="-279" y="888" type="curve" smooth="yes"/>
      <point x="-279" y="815"/>
      <point x="-222" y="773"/>
    </contour>
    <contour>
      <point x="-136" y="854" type="curve" smooth="yes"/>
      <point x="-160" y="854"/>
      <point x="-172" y="867"/>
      <point x="-172" y="888" type="curve" smooth="yes"/>
      <point x="-172" y="910"/>
      <point x="-156" y="920"/>
      <point x="-136" y="920" type="curve" smooth="yes"/>
      <point x="-115" y="920"/>
      <point x="-100" y="910"/>
      <point x="-100" y="888" type="curve" smooth="yes"/>
      <point x="-100" y="867"/>
      <point x="-115" y="854"/>
    </contour>
    <contour>
      <point x="-500" y="773" type="curve" smooth="yes"/>
      <point x="-416" y="773"/>
      <point x="-357" y="813"/>
      <point x="-357" y="889" type="curve" smooth="yes"/>
      <point x="-357" y="952"/>
      <point x="-412" y="1002"/>
      <point x="-500" y="1002" type="curve" smooth="yes"/>
      <point x="-584" y="1002"/>
      <point x="-638" y="956"/>
      <point x="-638" y="888" type="curve" smooth="yes"/>
      <point x="-638" y="815"/>
      <point x="-583" y="773"/>
    </contour>
    <contour>
      <point x="-498" y="854" type="curve" smooth="yes"/>
      <point x="-523" y="854"/>
      <point x="-534" y="867"/>
      <point x="-534" y="888" type="curve" smooth="yes"/>
      <point x="-534" y="910"/>
      <point x="-519" y="920"/>
      <point x="-498" y="920" type="curve" smooth="yes"/>
      <point x="-478" y="920"/>
      <point x="-462" y="910"/>
      <point x="-462" y="888" type="curve" smooth="yes"/>
      <point x="-462" y="867"/>
      <point x="-478" y="854"/>
    </contour>
  </outline>
</glyph>
<glyph name="oe_kyh" format="2">
  <unicode hex="1072"/>
  <note>
oe_kyh
</note>
  <outline>
    <contour>
      <point x="-307" y="711" type="curve" smooth="yes"/>
      <point x="-225" y="711"/>
      <point x="-160" y="746"/>
      <point x="-131" y="795" type="curve"/>
      <point x="-251" y="843" type="line"/>
      <point x="-261" y="827"/>
      <point x="-276" y="813"/>
      <point x="-303" y="813" type="curve" smooth="yes"/>
      <point x="-346" y="813"/>
      <point x="-366" y="845"/>
      <point x="-366" y="881" type="curve" smooth="yes"/>
      <point x="-366" y="920"/>
      <point x="-345" y="953"/>
      <point x="-304" y="953" type="curve" smooth="yes"/>
      <point x="-285" y="953"/>
      <point x="-265" y="948"/>
      <point x="-246" y="925" type="curve"/>
      <point x="-138" y="975" type="line"/>
      <point x="-161" y="1021"/>
      <point x="-228" y="1054"/>
      <point x="-309" y="1054" type="curve" smooth="yes"/>
      <point x="-426" y="1054"/>
      <point x="-510" y="988"/>
      <point x="-510" y="882" type="curve" smooth="yes"/>
      <point x="-510" y="778"/>
      <point x="-424" y="711"/>
    </contour>
  </outline>
</glyph>
